<?xml version="1.0" encoding="UTF-8"?>
<svg width="30px" height="30px" viewBox="0 0 30 30" version="1.1" xmlns="http://www.w3.org/2000/svg" xmlns:xlink="http://www.w3.org/1999/xlink">
    <title> install</title>
    <g id="页面-1" stroke="none" stroke-width="1" fill="none" fill-rule="evenodd">
        <g id="svg切图" transform="translate(-395.000000, -9.000000)" fill-rule="nonzero">
            <g id="-install" transform="translate(395.000000, 9.000000)">
                <rect id="矩形" fill="#000000" opacity="0" x="0" y="0" width="30" height="30"></rect>
                <path d="M25.8161398,15.6457188 L21.0078898,24.3644687 C20.6670115,24.986414 20.0147169,25.3736095 19.3054835,25.375 L9.75704601,25.375 C9.04781266,25.3736095 8.39551805,24.986414 8.05463977,24.3644687 L3.24638975,15.6457188 C2.91787008,15.0491429 2.91787008,14.3258571 3.24638975,13.7292813 L8.05463977,5.01053124 C8.39551806,4.38858601 9.04781266,4.00139049 9.75704601,4 L19.3054835,4 C20.0147169,4.00139048 20.6670115,4.388586 21.0078898,5.01053124 L25.8161398,13.7292813 C26.1446594,14.3258571 26.1446594,15.0491429 25.8161398,15.6457188 L25.8161398,15.6457188 Z M24.3398585,14.8244687 C24.3866927,14.7392615 24.3866927,14.6360198 24.3398585,14.5508125 L19.540046,5.83206251 C19.4915886,5.7431869 19.3985543,5.68777595 19.2973273,5.6875 L9.76520225,5.6875 C9.66397521,5.68777595 9.57094088,5.7431869 9.52248351,5.83206251 L4.72267102,14.5508125 C4.67583685,14.6360198 4.67583685,14.7392615 4.72267102,14.8244687 L9.52248351,23.5432188 C9.57101496,23.6319857 9.66403495,23.6872803 9.76520225,23.6875 L19.2973273,23.6875 C19.3984946,23.6872803 19.4915146,23.6319857 19.540046,23.5432188 L24.3398585,14.8244687 L24.3398585,14.8244687 Z M14.4587023,19.0789375 C11.973296,19.0789375 9.95870226,17.0643438 9.95870226,14.5789375 C9.95870226,12.0935312 11.973296,10.0789375 14.4587023,10.0789375 C16.9438273,10.0789375 18.9587023,12.0935312 18.9587023,14.5789375 C18.9587023,17.0643438 16.9438273,19.0789375 14.4587023,19.0789375 Z M14.4587023,17.3914375 C16.012046,17.3914375 17.2712023,16.1322813 17.2712023,14.5789375 C17.2712023,13.0255938 16.012046,11.7664375 14.4587023,11.7664375 C12.9053585,11.7664375 11.6462023,13.0255938 11.6462023,14.5789375 C11.6462023,16.1322813 12.9053585,17.3914375 14.4587023,17.3914375 Z" id="形状" fill="#979797"></path>
            </g>
        </g>
    </g>
</svg>