<?xml version="1.0" encoding="UTF-8"?>
<svg width="16px" height="16px" viewBox="0 0 16 16" version="1.1" xmlns="http://www.w3.org/2000/svg" xmlns:xlink="http://www.w3.org/1999/xlink">
    <title>固定</title>
    <g id="页面-1" stroke="none" stroke-width="1" fill="none" fill-rule="evenodd">
        <g id="1．账户管理-机构管理" transform="translate(-28.000000, -308.000000)" fill-rule="nonzero">
            <g id="固定" transform="translate(28.000000, 308.000000)">
                <rect id="矩形" fill="#000000" opacity="0" x="0" y="0" width="16" height="16"></rect>
                <path d="M7.71745455,13.0705455 C7.028,11.9687273 6.90290909,10.5661818 7.41745455,9.352 C7.49507834,9.16961439 7.46750325,8.95945877 7.34545455,8.80327273 L4.71854545,5.44363636 C4.58835348,5.27736402 4.37397447,5.20104282 4.168,5.24763636 C3.71372514,5.35194659 3.23701253,5.28731636 2.82690909,5.06581819 L5.42945455,2.46363636 C5.65121061,2.87365573 5.71585392,3.35046477 5.61127273,3.80472727 C5.5646458,4.01059694 5.64098642,4.22488888 5.80727273,4.35490909 L9.25672727,7.052 C9.40472727,7.16727273 9.60036362,7.19890909 9.77490909,7.13636364 C10.9369996,6.72477743 12.2233677,6.86575845 13.2687273,7.51927273 L10.4934545,10.2949091 L10.4927273,10.2949091 L10.4927273,10.2956364 L7.71709091,13.0705455 L7.71745455,13.0705455 Z M14.7490909,13.78 L11.6494545,10.6807273 L14.488,7.84327273 C14.5955086,7.73585806 14.6533297,7.58846143 14.6475313,7.4365984 C14.6417329,7.28473537 14.5728407,7.14217688 14.4574545,7.04327273 C13.1490909,5.92072728 11.3512727,5.53818183 9.70145455,6.01490909 L6.73345455,3.69418181 C6.83227366,2.79087795 6.51487278,1.89166468 5.87090909,1.25054545 C5.65790917,1.03760985 5.31263628,1.03760985 5.09963636,1.25054545 L1.61454545,4.73563636 C1.51217726,4.83793896 1.4546619,4.97673044 1.4546619,5.12145455 C1.4546619,5.26617866 1.51217726,5.40497013 1.61454545,5.50727273 C2.25548976,6.15151322 3.15484035,6.46896256 4.05818181,6.36981819 L6.29527273,9.23163636 C5.69963638,10.9385455 6.05636364,12.8789091 7.24072727,14.26 C7.34004657,14.3748308 7.48247829,14.443414 7.63418181,14.4494545 L7.65527273,14.4494545 C7.8,14.4494545 7.93854547,14.3927273 8.04072727,14.2901818 L10.8785455,11.452 L13.9781818,14.5516364 C14.080265,14.6541393 14.2189718,14.7117603 14.3636364,14.7117603 C14.508301,14.7117603 14.6470077,14.6541393 14.7490909,14.5516364 C14.8514591,14.4493338 14.9089745,14.3105423 14.9089745,14.1658182 C14.9089745,14.0210941 14.8514591,13.8823026 14.7490909,13.78 L14.7490909,13.78 Z" id="形状" fill="#8C98B7"></path>
            </g>
        </g>
    </g>
</svg>