<?xml version="1.0" encoding="UTF-8"?>
<svg width="12px" height="12px" viewBox="0 0 12 12" version="1.1" xmlns="http://www.w3.org/2000/svg" xmlns:xlink="http://www.w3.org/1999/xlink">
    <title>固定备份</title>
    <g id="页面-1" stroke="none" stroke-width="1" fill="none" fill-rule="evenodd">
        <g id="1．账户管理-机构管理-显示列" transform="translate(-1789.000000, -351.000000)" fill-rule="nonzero">
            <g id="固定备份" transform="translate(1789.000000, 351.000000)">
                <rect id="矩形" fill="#000000" opacity="0" x="0" y="0" width="12" height="12"></rect>
                <path d="M11.0618182,10.335 L8.73709091,8.01054545 L10.866,5.88245455 C10.9466314,5.80189355 10.9899973,5.69134607 10.9856485,5.5774488 C10.9812997,5.46355153 10.9296305,5.35663266 10.8430909,5.28245455 C9.86181818,4.44054546 8.51345455,4.15363637 7.27609091,4.51118182 L5.05009091,2.77063636 C5.12420524,2.09315846 4.88615459,1.41874851 4.40318182,0.93790909 C4.24343188,0.778207385 3.98447721,0.778207385 3.82472727,0.93790909 L1.21090909,3.55172727 C1.13413295,3.62845422 1.09099642,3.73254783 1.09099642,3.84109091 C1.09099642,3.94963399 1.13413295,4.0537276 1.21090909,4.13045455 C1.69161732,4.61363492 2.36613026,4.85172192 3.04363636,4.77736364 L4.72145455,6.92372727 C4.27472728,8.20390909 4.54227273,9.65918182 5.43054545,10.695 C5.50503493,10.7811231 5.61185871,10.8325605 5.72563636,10.8370909 L5.74145455,10.8370909 C5.85,10.8370909 5.9539091,10.7945455 6.03054545,10.7176364 L8.15890909,8.589 L10.4836364,10.9137273 C10.5601988,10.9906045 10.6642288,11.0338203 10.7727273,11.0338203 C10.8812257,11.0338203 10.9852558,10.9906045 11.0618182,10.9137273 C11.1385943,10.8370003 11.1817308,10.7329067 11.1817308,10.6243636 C11.1817308,10.5158206 11.1385943,10.411727 11.0618182,10.335 L11.0618182,10.335 Z" id="形状" fill="#636363"></path>
            </g>
        </g>
    </g>
</svg>