<?xml version="1.0" encoding="UTF-8"?>
<svg width="16px" height="16px" viewBox="0 0 16 16" version="1.1" xmlns="http://www.w3.org/2000/svg" xmlns:xlink="http://www.w3.org/1999/xlink">
    <title>固定</title>
    <g id="页面-1" stroke="none" stroke-width="1" fill="none" fill-rule="evenodd">
        <g id="1．账户管理-机构管理-查询筛选-弹窗" transform="translate(-28.000000, -308.000000)" fill-rule="nonzero">
            <g id="固定" transform="translate(28.000000, 308.000000)">
                <rect id="矩形" fill="#000000" opacity="0" x="0" y="0" width="16" height="16"></rect>
                <path d="M14.7490909,13.78 L11.6494545,10.6807273 L14.488,7.84327273 C14.5955086,7.73585806 14.6533297,7.58846143 14.6475313,7.4365984 C14.6417329,7.28473537 14.5728407,7.14217688 14.4574545,7.04327273 C13.1490909,5.92072728 11.3512727,5.53818183 9.70145455,6.01490909 L6.73345455,3.69418181 C6.83227366,2.79087795 6.51487278,1.89166468 5.87090909,1.25054545 C5.65790917,1.03760985 5.31263628,1.03760985 5.09963636,1.25054545 L1.61454545,4.73563636 C1.51217726,4.83793896 1.4546619,4.97673044 1.4546619,5.12145455 C1.4546619,5.26617866 1.51217726,5.40497013 1.61454545,5.50727273 C2.25548976,6.15151322 3.15484035,6.46896256 4.05818181,6.36981819 L6.29527273,9.23163636 C5.69963638,10.9385455 6.05636364,12.8789091 7.24072727,14.26 C7.34004657,14.3748308 7.48247829,14.443414 7.63418181,14.4494545 L7.65527273,14.4494545 C7.8,14.4494545 7.93854547,14.3927273 8.04072727,14.2901818 L10.8785455,11.452 L13.9781818,14.5516364 C14.080265,14.6541393 14.2189718,14.7117603 14.3636364,14.7117603 C14.508301,14.7117603 14.6470077,14.6541393 14.7490909,14.5516364 C14.8514591,14.4493338 14.9089745,14.3105423 14.9089745,14.1658182 C14.9089745,14.0210941 14.8514591,13.8823026 14.7490909,13.78 L14.7490909,13.78 Z" id="形状" fill="#FFE380"></path>
            </g>
        </g>
    </g>
</svg>