<?xml version="1.0" encoding="UTF-8"?>
<svg width="14px" height="14px" viewBox="0 0 14 14" version="1.1" xmlns="http://www.w3.org/2000/svg" xmlns:xlink="http://www.w3.org/1999/xlink">
    <title>arrow down </title>
    <g id="页面-1" stroke="none" stroke-width="1" fill="none" fill-rule="evenodd">
        <g id="svg切图" transform="translate(-487.000000, -63.000000)" fill-rule="nonzero">
            <g id="arrow-down-" transform="translate(494.000000, 70.000000) scale(1, -1) translate(-494.000000, -70.000000) translate(487.000000, 63.000000)">
                <rect id="矩形" fill="#000000" opacity="0" x="0" y="0" width="14" height="14"></rect>
                <path d="M6.4379168,4.413 L6.85033348,4 L12.5372501,9.68516668 C12.7618335,9.90975001 12.7647501,10.2819167 12.5372501,10.5094167 C12.4281656,10.6192826 12.2797771,10.6811192 12.1249548,10.6812287 C11.9701325,10.6813382 11.8216566,10.6197116 11.7124168,10.51 L6.85150014,5.65141668 L1.9946668,10.5105833 C1.88560453,10.620337 1.73726878,10.6820544 1.5825418,10.6820544 C1.42781482,10.6820544 1.27947908,10.620337 1.1704168,10.5105833 C0.943650019,10.2825839 0.943129238,9.91439003 1.16925014,9.68575 L6.4151668,4.4375 L6.43850014,4.41358334 L6.4379168,4.413 Z" id="路径" fill="#979797"></path>
            </g>
        </g>
    </g>
</svg>