<?xml version="1.0" encoding="UTF-8"?>
<svg width="30px" height="30px" viewBox="0 0 30 30" version="1.1" xmlns="http://www.w3.org/2000/svg" xmlns:xlink="http://www.w3.org/1999/xlink">
    <title>blhy_pre</title>
    <g id="页面-1" stroke="none" stroke-width="1" fill="none" fill-rule="evenodd">
        <g id="svg切图" transform="translate(-350.000000, -168.000000)" fill-rule="nonzero">
            <g id="blhy_pre" transform="translate(350.000000, 168.000000)">
                <path d="M3.76442553,24.3512879 L3.76442553,25.8926068 L3.62827563,25.8808333 C3.31562243,25.8237367 3.0690888,25.5756896 3.0123406,25.2611172 L3,25.1225901 C3,24.7442582 3.27095769,24.4296002 3.62827563,24.364347 L3.76442553,24.3512879 Z M3.76595745,25.8932496 L3.76595745,24.3519307 L4.02025532,24.3512879 L4.02127658,22.0399523 L4.03179558,21.8444652 C4.12216297,21.0095267 4.78437203,20.3432525 5.61421631,20.2523304 L5.80851063,20.2417468 L6.06382979,20.2405902 L6.06382979,14.590115 L5.80851063,14.590244 L5.61421631,14.5796605 C4.78437203,14.4887383 4.12216297,13.8224642 4.03179558,12.9875257 L4.02127658,12.7920386 L4.02127658,9.38058602 L4.03734814,9.16823341 C4.07518457,8.88758005 4.17806138,8.61871328 4.33889362,8.38386646 C4.48595743,8.16520467 4.68988594,7.95509206 4.9449273,7.80771731 L5.14570211,7.70979629 L14.3371915,4.01063084 L14.5068191,3.95461353 C14.6781064,3.90909645 14.8514043,3.89336157 15,3.89336157 C15.1508325,3.89168995 15.3010076,3.90874494 15.4471178,3.94405338 L15.6628085,4.01063084 L24.8532766,7.70979629 L25.0448482,7.80448949 C25.291734,7.94539645 25.5029209,8.14362511 25.6600851,8.38386646 C25.8063319,8.60170619 25.9225124,8.86952576 25.9631347,9.15944169 L25.9787234,9.38058602 L25.9787234,12.7920386 L25.9682044,12.9875257 C25.877837,13.8224641 25.215628,14.4887383 24.3857837,14.5796605 L24.1914894,14.590244 L23.935149,14.590115 L23.935149,20.2405902 L24.1914894,20.2417468 L24.3857837,20.2523304 C25.215628,20.3432525 25.877837,21.0095267 25.9682044,21.8444652 L25.9787234,22.0399523 L25.9771915,24.3512879 L26.2340426,24.3519307 L26.3717244,24.364347 C26.7290423,24.4296002 27,24.7442582 27,25.1225901 C27,25.5009221 26.7290423,25.81558 26.3717244,25.8808333 L26.2340426,25.8932496 L3.76595745,25.8932496 Z" id="形状" fill="#979797"></path>
                <path d="M10.1479149,14.590115 L10.1479149,20.2405902 L7.59574468,20.2405902 L7.59574468,14.590115 L10.1479149,14.590115 Z M14.2335319,14.590115 L14.2335319,20.2405902 L11.6798298,20.2405902 L11.6798298,14.590115 L14.2335319,14.590115 Z M18.3191489,14.590115 L18.3191489,20.2405902 L15.7654468,20.2405902 L15.7654468,14.590115 L18.3191489,14.590115 Z M22.4032341,14.590115 L22.4032341,20.2405902 L19.8510638,20.2405902 L19.8510638,14.590115 L22.4032341,14.590115 Z M15,7.39742234 L15.2213004,7.40800592 C16.3137261,7.5130344 17.1829657,8.38761006 17.2873533,9.4867418 L17.2978723,9.70940075 L17.2873533,9.9320597 C17.1829657,11.0311914 16.3137261,11.9057671 15.2213004,12.0107956 L15,12.0213792 L14.7786996,12.0107956 C13.6862739,11.9057671 12.8170343,11.0311914 12.7126467,9.9320597 L12.7021277,9.70940075 L12.7126467,9.4867418 C12.8170343,8.38761006 13.6862739,7.5130344 14.7786996,7.40800592 L15,7.39742234 Z" id="路径-6" fill="#FFFFFF"></path>
                <path d="M15,8.93874128 L14.8623182,8.95115763 C14.549665,9.0082542 14.3031314,9.25630124 14.2463832,9.57087373 L14.2340426,9.70940075 L14.2463832,9.84792776 C14.3031314,10.1625003 14.549665,10.4105473 14.8623182,10.4676439 L15,10.4800602 L15.1376818,10.4676439 C15.450335,10.4105473 15.6968686,10.1625003 15.7536168,9.84792776 L15.7659574,9.70940075 L15.7536168,9.57087373 C15.6968686,9.25630124 15.450335,9.0082542 15.1376818,8.95115763 L15,8.93874128 Z" id="路径" fill="#979797"></path>
            </g>
        </g>
    </g>
</svg>