<?xml version="1.0" encoding="UTF-8"?>
<svg width="16px" height="16px" viewBox="0 0 16 16" version="1.1" xmlns="http://www.w3.org/2000/svg" xmlns:xlink="http://www.w3.org/1999/xlink">
    <title>copy-template</title>
    <g id="页面-1" stroke="none" stroke-width="1" fill="none" fill-rule="evenodd">
        <g id="5.行为审计-管理员行为" transform="translate(-533.000000, -339.000000)" fill-rule="nonzero">
            <g id="编组-13" transform="translate(326.000000, 317.000000)">
                <g id="copy-template" transform="translate(207.000000, 22.000000)">
                    <rect id="矩形" fill="#000000" opacity="0" x="0" y="0" width="16" height="16"></rect>
                    <path d="M8.8859375,4.996875 L10.2421875,6.353125 L10.2421875,13.8 L2.9609375,13.8 L2.9609375,4.996875 L8.8859375,4.996875 M9.3390625,3.903125 L2.7953125,3.903125 C2.2828125,3.903125 1.8671875,4.3171875 1.8671875,4.8296875 L1.8671875,13.965625 C1.8671875,14.2109375 1.965625,14.446875 2.1390625,14.621875 C2.3125,14.796875 2.5484375,14.89375 2.7953125,14.89375 L10.4109375,14.89375 C10.65625,14.89375 10.8921875,14.7953125 11.065625,14.621875 C11.2390625,14.4484375 11.3359375,14.2125 11.3359375,13.965625 L11.3359375,5.9 L9.3390625,3.903125 Z" id="形状" fill="#409EFF"></path>
                    <path d="M12.1359375,1.10625 L5.5921875,1.10625 C5.0796875,1.10625 4.6640625,1.5203125 4.6640625,2.0328125 L4.6640625,3.5953125 L5.7578125,3.5953125 L5.7578125,2.2 L11.6828125,2.2 L13.0390625,3.55625 L13.0390625,11.003125 L11.6984375,11.003125 L11.6984375,12.096875 L13.2078125,12.096875 C13.453125,12.096875 13.6890625,11.9984375 13.8625,11.825 C14.0359375,11.6515625 14.1328125,11.415625 14.1328125,11.16875 L14.1328125,3.103125 L12.1359375,1.10625 Z" id="路径" fill="#409EFF"></path>
                </g>
            </g>
        </g>
    </g>
</svg>