<?xml version="1.0" encoding="UTF-8"?>
<svg width="30px" height="30px" viewBox="0 0 30 30" version="1.1" xmlns="http://www.w3.org/2000/svg" xmlns:xlink="http://www.w3.org/1999/xlink">
    <title>dbhy_pre</title>
    <g id="页面-1" stroke="none" stroke-width="1" fill="none" fill-rule="evenodd">
        <g id="svg切图" transform="translate(-23.000000, -168.000000)" fill="#979797">
            <g id="dbhy_pre" transform="translate(23.000000, 168.000000)">
                <path d="M13.1559324,2.03471353 L14.2686852,2 L14.2686852,2 L14.7311779,2 L14.7311779,2 L15.602759,2.02479443 L15.602759,2.02479443 L16.6821095,2.07819733 L16.6821095,2.07819733 L17.669485,2.14662249 L17.669485,2.14662249 L18.7771568,2.245647 L18.7771568,2.245647 L19.5681437,2.33145394 C19.7028819,2.34719076 19.8389546,2.36366867 19.976183,2.38092255 L20.811994,2.49403667 C20.953131,2.51453401 21.0950665,2.5358771 21.2376218,2.55810082 L22.0989624,2.70228991 C23.1092026,2.88349067 24.1323064,3.11126156 25.1069959,3.39756883 L25.5215772,3.52389069 L26,3.67447841 L25.9975615,15.0452732 L25.9975615,15.0452732 L25.9561886,15.449316 L25.9561886,15.449316 L25.888014,15.9021714 L25.888014,15.9021714 L25.8172889,16.2803559 L25.8172889,16.2803559 L25.7223044,16.7131822 L25.7223044,16.7131822 L25.5995986,17.1951793 C25.5766451,17.2793057 25.5523924,17.365253 25.5267683,17.4529071 L25.3559892,17.998402 C25.1362005,18.6565807 24.8421434,19.3872243 24.449079,20.1512374 C23.8503662,21.3121601 22.8058885,22.3845793 21.7700679,23.3525035 L20.6323856,24.3964911 L20.6323856,24.3964911 C19.1469025,25.7611266 17.3597796,26.8676969 15.3111007,27.6923921 L14.6886905,27.9313206 L14.4999842,28 L14.3113095,27.9313206 C11.9950321,27.0847076 9.99038739,25.8906345 8.35411049,24.3826122 L7.21512956,23.3349738 C6.17863305,22.3638706 5.13481607,21.2883913 4.53858729,20.1240646 C4.02015491,19.1127534 3.67521029,18.1567806 3.44621696,17.351745 L3.31010131,16.8384648 L3.31010131,16.8384648 L3.20455318,16.3762013 L3.20455318,16.3762013 L3.12578418,15.9712491 L3.12578418,15.9712491 L3.03342988,15.3584569 L3.03342988,15.3584569 L3.00113849,15.0269649 L3,3.67447841 L3.47728432,3.52385819 C4.43734179,3.22058204 5.45440923,2.97755303 6.46725844,2.78280441 L7.33295379,2.62742168 C7.47658816,2.60340215 7.61977942,2.58029816 7.76234908,2.55807482 L8.60887961,2.43502344 C8.74824879,2.41618313 8.88663935,2.3981537 9.02387277,2.38090025 L9.83195962,2.28641225 L9.83195962,2.28641225 L10.9732755,2.17593621 L10.9732755,2.17593621 L12.0039091,2.09794336 L12.0039091,2.09794336 L13.1559324,2.03471353 L13.1559324,2.03471353 Z M18.3549437,6.69019794 L13.9228282,6.69019794 C13.4419702,6.69019794 13.1075676,6.8047395 12.9197152,7.03385515 C12.7629606,7.22475777 12.6716742,7.50459297 12.6455997,7.87334195 L12.6377784,8.10526085 L12.6377784,10.0189891 C12.6377784,10.5041331 12.7316097,10.8635869 12.9197152,11.097123 C13.0807315,11.2974918 13.3493942,11.4118211 13.7257032,11.4403975 L13.9228282,11.4475409 L15.312778,11.4475409 L15.312778,12.4313503 L12.5853125,12.4313503 C12.288006,12.4313503 12.0847838,12.4943091 11.9755511,12.6200318 C11.8661287,12.7459496 11.8116388,12.9390515 11.8116388,13.1995329 C11.8116388,13.4421048 11.870651,13.6287062 11.9886755,13.7588168 C12.0830951,13.8631133 12.2291671,13.9256185 12.4271183,13.9464486 L12.5853125,13.9542591 L14.709563,13.9542591 C14.5171882,14.2237763 14.311689,14.4844851 14.0932868,14.735898 C13.8746633,14.9875709 13.6560398,15.2210745 13.4376376,15.4367338 C13.2919096,15.580485 13.1500751,15.7143118 13.012162,15.8380987 L12.6158435,16.1764928 L12.6158435,16.1764928 L12.2837366,16.434032 C12.0739048,16.5869274 11.9165705,16.7259115 11.8116704,16.8518292 C11.7067704,16.9775194 11.6389347,17.0988216 11.6084166,17.2157034 C11.5776772,17.3323577 11.5799541,17.4448191 11.614963,17.5526 C11.6498138,17.6604133 11.7022796,17.7726472 11.772329,17.889529 C11.9209032,18.1139967 12.1175789,18.2083537 12.3624196,18.1725676 C12.6070389,18.1365214 12.9217708,17.9657492 13.306552,17.6604134 L13.8341732,17.196772 C14.0785787,16.9757382 14.2938841,16.7708895 14.4801237,16.582247 C14.68693,16.3726441 14.8792591,16.1510801 15.0570455,15.9174682 L15.3128096,15.5580035 L15.3128096,18.3881293 C15.3128096,18.6755884 15.3804239,18.8800665 15.5160634,19.0013688 C15.6514816,19.1226385 15.841611,19.1832896 16.0864833,19.1832896 C16.339926,19.1832896 16.5191764,19.122606 16.6240765,19.0013688 C16.7080219,18.904327 16.7583689,18.7540526 16.7751498,18.5506455 L16.7814424,18.3881293 L16.7814424,14.9919588 C17.0785592,15.4682619 17.4194766,15.9241855 17.8042578,16.359827 C18.1888177,16.7955335 18.6651849,17.2514245 19.2335492,17.7277601 C19.5132089,17.9703321 19.7666832,18.123 19.9940985,18.1859914 C20.2212924,18.2487552 20.4223008,18.1590462 20.5972819,17.9164417 C20.6845669,17.7816831 20.7480698,17.6580731 20.7874113,17.5458392 C20.8267212,17.4334104 20.8310222,17.3188688 20.8005041,17.2022145 C20.7697329,17.0853652 20.697628,16.9596425 20.5841259,16.8248514 C20.4988333,16.7237824 20.3865725,16.6151443 20.2472768,16.4989095 L20.0989669,16.3801415 C19.784235,16.1465729 19.4125782,15.820825 18.9843759,15.4030278 C18.6630581,15.0897043 18.3417225,14.7397597 18.0204892,14.3531256 L17.6992945,13.954259 L20.0465011,13.954259 C20.3173375,13.954259 20.5074669,13.8891874 20.6168894,13.7588168 C20.7261221,13.6287061 20.7808017,13.4421048 20.7808017,13.1995328 C20.7808017,12.9390515 20.7283358,12.7459495 20.6234357,12.6200318 C20.539541,12.5194796 20.3996219,12.4590547 20.2038243,12.4389068 L20.0465011,12.4313502 L16.7814108,12.4313502 L16.7814108,11.4475409 L18.3549437,11.4475409 C18.8356435,11.4475409 19.1634682,11.3308866 19.3384492,11.097123 C19.484056,10.9025367 19.5690701,10.6204849 19.5933635,10.2510994 L19.600652,10.0189891 L19.600652,8.11874969 C19.600652,7.60662798 19.5066309,7.24067353 19.3187469,7.02039878 C19.1619924,6.83699902 18.9127787,6.72995938 18.5710692,6.69937394 L18.3549437,6.69019794 Z M11.4838775,6.19146765 C11.1777792,6.15568152 10.963678,6.2207856 10.8413526,6.38690988 C10.7188057,6.55326167 10.6226974,6.81608321 10.5528378,7.17530949 C10.3430376,8.06479431 10.0873496,8.9003562 9.78574208,9.68202764 C9.48413458,10.4636991 9.07541323,11.2318816 8.55970454,11.9865754 C8.30607213,12.363971 8.17944568,12.6650814 8.17944568,12.889549 C8.17944568,13.1142442 8.29294778,13.3073462 8.52036307,13.4690826 C8.69512276,13.6219455 8.88752917,13.6826291 9.09732935,13.6510359 C9.27216283,13.6248708 9.45296992,13.4910837 9.64000683,13.2495617 L9.75297861,13.0917194 L9.75297858,18.3072936 C9.75297858,18.5946876 9.80544445,18.8059265 9.91034453,18.9407176 C10.0152446,19.0754762 10.2074297,19.1428555 10.4873108,19.1428555 C10.87575,19.1428555 11.0916495,18.9227385 11.1348316,18.4826413 L11.1429285,18.3072936 L11.1429285,10.1268025 C11.291471,9.7405985 11.4291662,9.33629016 11.5559824,8.91384507 C11.6825773,8.49162744 11.8116705,8.02436023 11.9427877,7.51223852 C12.0477194,7.10789769 12.0694141,6.79794639 12.0083779,6.58231961 C11.9471203,6.36669285 11.7723606,6.23654969 11.4838775,6.19146765 Z M17.673109,8.2265306 C17.8478687,8.2265306 17.9593468,8.26020401 18.00748,8.32761582 C18.0434139,8.3781503 18.066006,8.46539724 18.0750562,8.58919208 L18.079585,8.72516347 L18.079585,9.34513108 C18.079585,9.55191695 18.0511225,9.69551645 17.9943556,9.77638462 C17.9516382,9.83703575 17.880814,9.8749427 17.7816697,9.89010548 L17.6730774,9.89768687 L14.6309116,9.89768687 C14.4559622,9.89768687 14.3336367,9.85959302 14.2637771,9.7831453 C14.2112401,9.72595576 14.1785023,9.63207207 14.165417,9.50146677 L14.1588771,9.35861992 L14.1588771,8.61738256 C14.1588771,8.45567874 14.1828488,8.35014059 14.230982,8.30067058 C14.2669397,8.26371436 14.3386355,8.24048873 14.4460428,8.23118568 L14.565353,8.2265306 L17.673109,8.2265306 Z" id="形状"></path>
            </g>
        </g>
    </g>
</svg>