<?xml version="1.0" encoding="UTF-8"?>
<svg width="30px" height="30px" viewBox="0 0 30 30" version="1.1" xmlns="http://www.w3.org/2000/svg" xmlns:xlink="http://www.w3.org/1999/xlink">
    <title>dbhy_def</title>
    <g id="页面-1" stroke="none" stroke-width="1" fill="none" fill-rule="evenodd">
        <g id="svg切图-最新" transform="translate(-63.000000, -168.000000)" fill="#979797" fill-rule="nonzero">
            <g id="dbhy_def" transform="translate(63.000000, 168.000000)">
                <path d="M14.7311779,2 L15.602759,2.02479443 L16.6821095,2.07819733 L17.669485,2.14662249 L18.7771568,2.245647 L19.5681437,2.33145394 L19.976183,2.38092255 L20.811994,2.49403667 L21.2376218,2.55810082 L22.0989624,2.70228991 C23.1092026,2.88349067 24.1323064,3.11126156 25.1069959,3.39756883 L25.5215772,3.52389069 L26,3.67447841 L25.9975615,15.0452732 L25.9561886,15.449316 L25.888014,15.9021714 L25.8172889,16.2803559 L25.7223044,16.7131822 L25.5995986,17.1951793 L25.5267683,17.4529071 L25.3559892,17.998402 C25.1362005,18.6565807 24.8421434,19.3872243 24.449079,20.1512374 C23.8503662,21.3121601 22.8058885,22.3845793 21.7700679,23.3525035 L20.6323856,24.3964911 C19.1469025,25.7611266 17.3597796,26.8676969 15.3111007,27.6923921 L14.6886905,27.9313206 L14.4999842,28 L14.3113095,27.9313206 C11.9950321,27.0847076 9.99038739,25.8906345 8.35411049,24.3826122 L7.21512956,23.3349738 C6.17863305,22.3638706 5.13481607,21.2883913 4.53858729,20.1240646 C4.02015491,19.1127534 3.67521029,18.1567806 3.44621696,17.351745 L3.31010131,16.8384648 L3.20455318,16.3762013 L3.12578418,15.9712491 L3.03342988,15.3584569 L3.00113849,15.0269649 L3,3.67447841 L3.47728432,3.52385819 C4.43734179,3.22058204 5.45440923,2.97755303 6.46725844,2.78280441 L7.33295379,2.62742168 L7.76234908,2.55807482 L8.60887961,2.43502344 L9.02387277,2.38090025 L9.83195962,2.28641225 L10.9732755,2.17593621 L12.0039091,2.09794336 L13.1559324,2.03471353 L14.2686852,2 L14.7311779,2 Z M14.6774652,3.88797054 L14.3275825,3.88797054 L13.25945,3.92076384 L12.1464426,3.98144697 L11.1552639,4.05603777 L10.0513291,4.16251957 L9.12732687,4.27184872 L8.8805923,4.30426763 L7.91722507,4.44587213 L7.66665574,4.48660018 L6.82391709,4.6377158 C6.31980783,4.73464492 5.83479475,4.84032137 5.3710435,4.95486028 L4.888,5.079 L4.89,14.948 L4.90122571,15.0769602 L4.97992241,15.6105926 L5.04604965,15.9557344 L5.13588234,16.3542899 L5.26303391,16.8349493 C5.49253169,17.6417583 5.80744146,18.4586118 6.21985872,19.2631186 C6.5836111,19.973461 7.22257709,20.7304451 8.24985688,21.7137337 L8.49386607,21.9447455 L9.63421182,22.9936405 C10.8753262,24.137474 12.367112,25.083902 14.081686,25.8111247 L14.497,25.981 L14.6057351,25.9401475 C16.2951104,25.2600899 17.7739528,24.3747131 19.0209514,23.3019661 L19.3552777,23.0047666 L20.4804199,21.9723913 C21.6651707,20.865299 22.3767157,20.0486134 22.7694413,19.2871083 C23.0261187,18.7881956 23.2459474,18.2838668 23.4259183,17.7962694 L23.5533762,17.4340545 L23.7352068,16.8488144 L23.7690958,16.7291736 L23.8773194,16.3082971 L23.9605886,15.9331301 L24.0201723,15.6209792 L24.0771251,15.2569051 L24.108,14.95 L24.111,5.08 L24.0515969,5.06349942 C23.5186804,4.92139175 22.9570902,4.79219014 22.3753043,4.67646633 L21.7871004,4.56525629 L20.8124793,4.40376081 L20.5586714,4.36586179 L19.7405461,4.25505619 L19.3644305,4.20932577 L18.6089632,4.12703281 L17.5388982,4.03099208 L16.5887673,3.9647786 L15.5490463,3.91291958 L14.6774652,3.88797054 Z M18.3549437,6.69019794 L18.5710692,6.69937394 C18.9127787,6.72995938 19.1619924,6.83699902 19.3187469,7.02039878 C19.4831454,7.21313919 19.5756801,7.51741561 19.5962451,7.93355469 L19.600652,8.11874969 L19.600652,10.0189891 L19.5933635,10.2510994 C19.5690701,10.6204849 19.484056,10.9025367 19.3384492,11.097123 C19.1853408,11.3016661 18.9152115,11.4165475 18.5280402,11.4420718 L18.3549437,11.4475409 L16.7814108,11.4475409 L16.7814108,12.4313502 L20.0465011,12.4313502 L20.2038243,12.4389068 C20.3996219,12.4590547 20.539541,12.5194796 20.6234357,12.6200318 C20.7283358,12.7459495 20.7808017,12.9390515 20.7808017,13.1995328 C20.7808017,13.4421048 20.7261221,13.6287061 20.6168894,13.7588168 C20.525704,13.867459 20.3784721,13.9307546 20.1751937,13.9488353 L20.0465011,13.954259 L17.6992945,13.954259 L18.0204892,14.3531256 C18.3417225,14.7397597 18.6630581,15.0897043 18.9843759,15.4030278 C19.3412111,15.7511921 19.6587787,16.0354333 19.936859,16.2556762 L20.2472768,16.4989095 C20.3865725,16.6151443 20.4988333,16.7237824 20.5841259,16.8248514 C20.697628,16.9596425 20.7697329,17.0853652 20.8005041,17.2022145 C20.8310222,17.3188688 20.8267212,17.4334104 20.7874113,17.5458392 C20.7480698,17.6580731 20.6845669,17.7816831 20.5972819,17.9164417 C20.4223008,18.1590462 20.2212924,18.2487552 19.9940985,18.1859914 C19.7666832,18.123 19.5132089,17.9703321 19.2335492,17.7277601 C18.6651849,17.2514245 18.1888177,16.7955335 17.8042578,16.359827 C17.5156719,16.0330959 17.2517594,15.6949561 17.0124936,15.3453665 L16.7814424,14.9919588 L16.7814424,18.3881293 L16.7751498,18.5506455 C16.7583689,18.7540526 16.7080219,18.904327 16.6240765,19.0013688 C16.5191764,19.122606 16.339926,19.1832896 16.0864833,19.1832896 C15.841611,19.1832896 15.6514816,19.1226385 15.5160634,19.0013688 C15.4030304,18.9002836 15.3372373,18.7414373 15.318446,18.5249429 L15.3128096,18.3881293 L15.3128096,15.5580035 L15.0570455,15.9174682 C14.8792591,16.1510801 14.68693,16.3726441 14.4801237,16.582247 L14.1789607,16.8773628 C14.1251322,16.9285736 14.069486,16.9807967 14.0120216,17.0340317 L13.8341732,17.196772 L13.306552,17.6604134 C12.9217708,17.9657492 12.6070389,18.1365214 12.3624196,18.1725676 C12.1175789,18.2083537 11.9209032,18.1139967 11.772329,17.889529 C11.7022796,17.7726472 11.6498138,17.6604133 11.614963,17.5526 C11.5799541,17.4448191 11.5776772,17.3323577 11.6084166,17.2157034 C11.6389347,17.0988216 11.7067704,16.9775194 11.8116704,16.8518292 C11.8955905,16.751095 12.0130685,16.6419984 12.1641368,16.5241067 L12.2837366,16.434032 L12.6158435,16.1764928 L13.012162,15.8380987 C13.1500751,15.7143118 13.2919096,15.580485 13.4376376,15.4367338 C13.6560398,15.2210745 13.8746633,14.9875709 14.0932868,14.735898 C14.2388883,14.5682894 14.3787551,14.3965493 14.5128216,14.2208221 L14.709563,13.9542591 L12.5853125,13.9542591 L12.4271183,13.9464486 C12.2291671,13.9256185 12.0830951,13.8631133 11.9886755,13.7588168 C11.870651,13.6287062 11.8116388,13.4421048 11.8116388,13.1995329 C11.8116388,12.9390515 11.8661287,12.7459496 11.9755511,12.6200318 C12.0665784,12.5152629 12.2228761,12.45408 12.4444992,12.436596 L12.5853125,12.4313503 L15.312778,12.4313503 L15.312778,11.4475409 L13.9228282,11.4475409 L13.7257032,11.4403975 C13.3493942,11.4118211 13.0807315,11.2974918 12.9197152,11.097123 C12.7551229,10.8927789 12.6627093,10.5920291 12.6421776,10.1950259 L12.6377784,10.0189891 L12.6377784,8.10526085 L12.6455997,7.87334195 C12.6716742,7.50459297 12.7629606,7.22475777 12.9197152,7.03385515 C13.084086,6.83337895 13.3606594,6.72062355 13.7493717,6.69556713 L13.9228282,6.69019794 L18.3549437,6.69019794 Z M11.3583243,6.18230806 L11.4838775,6.19146765 C11.7723606,6.23654969 11.9471203,6.36669285 12.0083779,6.58231961 C12.0694141,6.79794639 12.0477194,7.10789769 11.9427877,7.51223852 C11.8116705,8.02436023 11.6825773,8.49162744 11.5559824,8.91384507 C11.4714383,9.19547513 11.382059,9.46904441 11.2878541,9.73456252 L11.1429285,10.1268025 L11.1429285,18.3072936 L11.1348316,18.4826413 C11.0916495,18.9227385 10.87575,19.1428555 10.4873108,19.1428555 C10.2074297,19.1428555 10.0152446,19.0754762 9.91034453,18.9407176 C9.8229278,18.8283917 9.77192371,18.662977 9.75735059,18.444643 L9.75297858,18.3072936 L9.75297861,13.0917194 L9.64000683,13.2495617 C9.45296992,13.4910837 9.27216283,13.6248708 9.09732935,13.6510359 C8.92249587,13.6773636 8.75974139,13.6396101 8.6092123,13.537832 L8.52036307,13.4690826 C8.29294778,13.3073462 8.17944568,13.1142442 8.17944568,12.889549 C8.17944568,12.6650814 8.30607213,12.363971 8.55970454,11.9865754 C9.07541323,11.2318816 9.48413458,10.4636991 9.78574208,9.68202764 C10.0873496,8.9003562 10.3430376,8.06479431 10.5528378,7.17530949 C10.6226974,6.81608321 10.7188057,6.55326167 10.8413526,6.38690988 C10.946203,6.24451764 11.1184804,6.17634432 11.3583243,6.18230806 Z M17.673109,8.2265306 L14.565353,8.2265306 L14.4460428,8.23118568 C14.3386355,8.24048873 14.2669397,8.26371436 14.230982,8.30067058 C14.1924754,8.34024659 14.1694322,8.41570621 14.1617552,8.52709937 L14.1588771,8.61738256 L14.1588771,9.35861992 L14.165417,9.50146677 C14.1785023,9.63207207 14.2112401,9.72595576 14.2637771,9.7831453 C14.3196648,9.84430347 14.4091306,9.88091517 14.5322556,9.89311352 L14.6309116,9.89768687 L17.6730774,9.89768687 L17.7816697,9.89010548 C17.880814,9.8749427 17.9516382,9.83703575 17.9943556,9.77638462 C18.0397691,9.71169009 18.0670678,9.60684749 18.0761708,9.46162388 L18.079585,9.34513108 L18.079585,8.72516347 L18.0750562,8.58919208 C18.066006,8.46539724 18.0434139,8.3781503 18.00748,8.32761582 C17.9593468,8.26020401 17.8478687,8.2265306 17.673109,8.2265306 Z" id="形状结合"></path>
            </g>
        </g>
    </g>
</svg>