<?xml version="1.0" encoding="UTF-8"?>
<svg width="30px" height="30px" viewBox="0 0 30 30" version="1.1" xmlns="http://www.w3.org/2000/svg" xmlns:xlink="http://www.w3.org/1999/xlink">
    <title>dbhy_def</title>
    <g id="页面-1" stroke="none" stroke-width="1" fill="none" fill-rule="evenodd">
        <g id="svg切图" transform="translate(-63.000000, -168.000000)">
            <g id="dbhy_def" transform="translate(63.000000, 168.000000)">
                <path d="M14.2746382,2.94471824 L15.5706408,2.9688051 L16.6261217,3.02102701 L17.5947825,3.08815523 L18.6841718,3.18554532 L19.4559987,3.26927376 L20.6753268,3.42865121 L21.940097,3.63331241 C22.9120211,3.80786712 23.8962107,4.02659293 24.8341048,4.3017574 L24.8341048,4.3017574 L25.0531388,14.9437648 L24.4441227,17.7470384 C24.2397014,18.3520805 23.9685819,19.0207465 23.6096867,19.7183447 C23.0568902,20.7902344 22.0802612,21.77003 21.1315139,22.6566413 L21.1315139,22.6566413 L19.9934529,23.7009766 C18.5898691,24.9903755 16.9002205,26.0337223 14.9654181,26.8134503 C12.2763706,26.1391495 10.4742431,25.0521966 8.99347875,23.6874981 L8.99347875,23.6874981 L7.86085726,22.6457633 C6.90547624,21.750658 5.92958555,20.7683498 5.37903418,19.6932231 C4.89456657,18.7481673 4.5716607,17.8546376 4.35690419,17.1013492 L4.35690419,17.1013492 L3.97762401,15.2695988 L3.946,4.369 L4.32237053,4.25618874 C4.88861322,4.09474952 5.47037164,3.95343691 6.05490659,3.82954306 L6.63989522,3.71135517 L7.4868202,3.55934152 L8.73627562,3.37093477 L9.93443075,3.2253521 L11.0544149,3.1169409 L12.0654285,3.04043279 L13.1965418,2.97835063 L14.2746382,2.94471824 Z" id="形状" stroke="#979797" stroke-width="1.888889"></path>
                <path d="M18.3549437,6.69019794 L18.5710692,6.69937394 C18.9127787,6.72995938 19.1619924,6.83699902 19.3187469,7.02039878 C19.4831454,7.21313919 19.5756801,7.51741561 19.5962451,7.93355469 L19.600652,8.11874969 L19.600652,10.0189891 L19.5933635,10.2510994 C19.5690701,10.6204849 19.484056,10.9025367 19.3384492,11.097123 C19.1853408,11.3016661 18.9152115,11.4165475 18.5280402,11.4420718 L18.3549437,11.4475409 L16.7814108,11.4475409 L16.7814108,12.4313502 L20.0465011,12.4313502 L20.2038243,12.4389068 C20.3996219,12.4590547 20.539541,12.5194796 20.6234357,12.6200318 C20.7283358,12.7459495 20.7808017,12.9390515 20.7808017,13.1995328 C20.7808017,13.4421048 20.7261221,13.6287061 20.6168894,13.7588168 C20.525704,13.867459 20.3784721,13.9307546 20.1751937,13.9488353 L20.0465011,13.954259 L17.6992945,13.954259 L18.0204892,14.3531256 C18.3417225,14.7397597 18.6630581,15.0897043 18.9843759,15.4030278 C19.3412111,15.7511921 19.6587787,16.0354333 19.936859,16.2556762 L20.2472768,16.4989095 C20.3865725,16.6151443 20.4988333,16.7237824 20.5841259,16.8248514 C20.697628,16.9596425 20.7697329,17.0853652 20.8005041,17.2022145 C20.8310222,17.3188688 20.8267212,17.4334104 20.7874113,17.5458392 C20.7480698,17.6580731 20.6845669,17.7816831 20.5972819,17.9164417 C20.4223008,18.1590462 20.2212924,18.2487552 19.9940985,18.1859914 C19.7666832,18.123 19.5132089,17.9703321 19.2335492,17.7277601 C18.6651849,17.2514245 18.1888177,16.7955335 17.8042578,16.359827 C17.5156719,16.0330959 17.2517594,15.6949561 17.0124936,15.3453665 L16.7814424,14.9919588 L16.7814424,18.3881293 L16.7751498,18.5506455 C16.7583689,18.7540526 16.7080219,18.904327 16.6240765,19.0013688 C16.5191764,19.122606 16.339926,19.1832896 16.0864833,19.1832896 C15.841611,19.1832896 15.6514816,19.1226385 15.5160634,19.0013688 C15.4030304,18.9002836 15.3372373,18.7414373 15.318446,18.5249429 L15.3128096,18.3881293 L15.3128096,15.5580035 L15.0570455,15.9174682 C14.8792591,16.1510801 14.68693,16.3726441 14.4801237,16.582247 L14.1789607,16.8773628 C14.1251322,16.9285736 14.069486,16.9807967 14.0120216,17.0340317 L13.8341732,17.196772 L13.306552,17.6604134 C12.9217708,17.9657492 12.6070389,18.1365214 12.3624196,18.1725676 C12.1175789,18.2083537 11.9209032,18.1139967 11.772329,17.889529 C11.7022796,17.7726472 11.6498138,17.6604133 11.614963,17.5526 C11.5799541,17.4448191 11.5776772,17.3323577 11.6084166,17.2157034 C11.6389347,17.0988216 11.7067704,16.9775194 11.8116704,16.8518292 C11.8955905,16.751095 12.0130685,16.6419984 12.1641368,16.5241067 L12.2837366,16.434032 L12.6158435,16.1764928 L13.012162,15.8380987 C13.1500751,15.7143118 13.2919096,15.580485 13.4376376,15.4367338 C13.6560398,15.2210745 13.8746633,14.9875709 14.0932868,14.735898 C14.2388883,14.5682894 14.3787551,14.3965493 14.5128216,14.2208221 L14.709563,13.9542591 L12.5853125,13.9542591 L12.4271183,13.9464486 C12.2291671,13.9256185 12.0830951,13.8631133 11.9886755,13.7588168 C11.870651,13.6287062 11.8116388,13.4421048 11.8116388,13.1995329 C11.8116388,12.9390515 11.8661287,12.7459496 11.9755511,12.6200318 C12.0665784,12.5152629 12.2228761,12.45408 12.4444992,12.436596 L12.5853125,12.4313503 L15.312778,12.4313503 L15.312778,11.4475409 L13.9228282,11.4475409 L13.7257032,11.4403975 C13.3493942,11.4118211 13.0807315,11.2974918 12.9197152,11.097123 C12.7551229,10.8927789 12.6627093,10.5920291 12.6421776,10.1950259 L12.6377784,10.0189891 L12.6377784,8.10526085 L12.6455997,7.87334195 C12.6716742,7.50459297 12.7629606,7.22475777 12.9197152,7.03385515 C13.084086,6.83337895 13.3606594,6.72062355 13.7493717,6.69556713 L13.9228282,6.69019794 L18.3549437,6.69019794 Z M11.3583243,6.18230806 L11.4838775,6.19146765 C11.7723606,6.23654969 11.9471203,6.36669285 12.0083779,6.58231961 C12.0694141,6.79794639 12.0477194,7.10789769 11.9427877,7.51223852 C11.8116705,8.02436023 11.6825773,8.49162744 11.5559824,8.91384507 C11.4714383,9.19547513 11.382059,9.46904441 11.2878541,9.73456252 L11.1429285,10.1268025 L11.1429285,18.3072936 L11.1348316,18.4826413 C11.0916495,18.9227385 10.87575,19.1428555 10.4873108,19.1428555 C10.2074297,19.1428555 10.0152446,19.0754762 9.91034453,18.9407176 C9.8229278,18.8283917 9.77192371,18.662977 9.75735059,18.444643 L9.75297858,18.3072936 L9.75297861,13.0917194 L9.64000683,13.2495617 C9.45296992,13.4910837 9.27216283,13.6248708 9.09732935,13.6510359 C8.92249587,13.6773636 8.75974139,13.6396101 8.6092123,13.537832 L8.52036307,13.4690826 C8.29294778,13.3073462 8.17944568,13.1142442 8.17944568,12.889549 C8.17944568,12.6650814 8.30607213,12.363971 8.55970454,11.9865754 C9.07541323,11.2318816 9.48413458,10.4636991 9.78574208,9.68202764 C10.0873496,8.9003562 10.3430376,8.06479431 10.5528378,7.17530949 C10.6226974,6.81608321 10.7188057,6.55326167 10.8413526,6.38690988 C10.946203,6.24451764 11.1184804,6.17634432 11.3583243,6.18230806 L11.3583243,6.18230806 Z M17.673109,8.2265306 L14.565353,8.2265306 L14.4460428,8.23118568 C14.3386355,8.24048873 14.2669397,8.26371436 14.230982,8.30067058 C14.1924754,8.34024659 14.1694322,8.41570621 14.1617552,8.52709937 L14.1588771,8.61738256 L14.1588771,9.35861992 L14.165417,9.50146677 C14.1785023,9.63207207 14.2112401,9.72595576 14.2637771,9.7831453 C14.3196648,9.84430347 14.4091306,9.88091517 14.5322556,9.89311352 L14.6309116,9.89768687 L17.6730774,9.89768687 L17.7816697,9.89010548 C17.880814,9.8749427 17.9516382,9.83703575 17.9943556,9.77638462 C18.0397691,9.71169009 18.0670678,9.60684749 18.0761708,9.46162388 L18.079585,9.34513108 L18.079585,8.72516347 L18.0750562,8.58919208 C18.066006,8.46539724 18.0434139,8.3781503 18.00748,8.32761582 C17.9593468,8.26020401 17.8478687,8.2265306 17.673109,8.2265306 Z" id="形状" fill="#979797"></path>
            </g>
        </g>
    </g>
</svg>