<?xml version="1.0" encoding="UTF-8"?>
<svg width="20px" height="20px" viewBox="0 0 20 20" version="1.1" xmlns="http://www.w3.org/2000/svg" xmlns:xlink="http://www.w3.org/1999/xlink">
    <title>dbsx</title>
    <g id="页面-1" stroke="none" stroke-width="1" fill="none" fill-rule="evenodd">
        <g id="svg切图-最新" transform="translate(-419.000000, -58.000000)" fill-rule="nonzero">
            <g id="dbsx" transform="translate(419.000000, 58.000000)">
                <rect id="矩形" fill="#000000" opacity="0" x="0" y="0" width="20" height="20"></rect>
                <path d="M10.9824818,19 L2.19999782,19 C1.53759995,18.9991736 1.00082645,18.4623991 1,17.8 L1,2.2 C1,1.5372583 1.53725732,1 2.19999782,1 L14.9799746,1 C15.6427151,1 16.1799724,1.5372583 16.1799724,2.2 L16.1799724,8.7892 C15.6848084,8.65703823 15.1744729,8.5902709 14.6619752,8.5906 L14.6619752,6.15460001 C14.6619752,5.99547011 14.5987612,5.84285776 14.4862395,5.73033593 C14.3737179,5.6178141 14.2211058,5.5546 14.0619762,5.5546 L3.11739614,5.5546 C2.95826653,5.5546 2.80565446,5.61781411 2.69313284,5.73033594 C2.58061122,5.84285777 2.51739723,5.99547012 2.51739724,6.15460001 L2.51739724,16.6654 C2.51739723,16.8245299 2.58061122,16.9771422 2.69313284,17.0896641 C2.80565446,17.2021859 2.95826653,17.2654 3.11739614,17.2654 L9.52868448,17.2654 C9.89528875,17.9325143 10.3884967,18.5217154 10.9806818,19 L10.9824818,19 L10.9824818,19 Z M14.6628751,18.7828 C13.5119664,18.7859787 12.4076173,18.328596 11.5959807,17.5126 C10.7799862,16.700962 10.3226044,15.5966108 10.3257666,14.4457 C10.3226044,13.2947892 10.7799862,12.190438 11.5959807,11.3788 C12.4076363,10.5628323 13.511973,10.1054548 14.6628751,10.1085835 C15.8137839,10.1054213 16.918133,10.562804 17.7297696,11.3788 C18.5457641,12.190438 19.0031459,13.2947892 18.9999837,14.4457 C19.0031459,15.5966108 18.5457641,16.700962 17.7297696,17.5126 C16.9181825,18.3287061 15.8138272,18.7861993 14.6628751,18.7831156 L14.6628751,18.7828 L14.6628751,18.7828 Z M14.4459755,11.8432 C14.206576,11.8432 14.0127763,12.037 14.0121763,12.2764 L14.0121763,14.4454 C14.0121763,14.5852 14.0790762,14.7163 14.192176,14.7982 C14.213176,14.8462 14.2431759,14.89 14.2800758,14.9272 L15.6627733,16.3102 C15.7410732,16.3888 15.847873,16.4332 15.9588728,16.4329015 C16.0698726,16.4329015 16.1766724,16.3888 16.2549723,16.3102 C16.4180148,16.1463493 16.4180148,15.8815507 16.2549723,15.7177 L14.8779748,14.3407 L14.8779748,12.2767 C14.8774829,12.0381221 14.6845507,11.8446537 14.4459755,11.8435 L14.4459755,11.8432 L14.4459755,11.8432 Z M7.72298777,15.0961 L4.25319409,15.0961 C3.8940286,15.0956043 3.60299102,14.8045661 3.60249527,14.4454 C3.60282605,14.0861654 3.89396016,13.7950308 4.25319409,13.7947 L7.72298777,13.7947 C8.0822217,13.7950308 8.37335581,14.0861654 8.37368659,14.4454 C8.37352122,14.8047517 8.08233874,15.096069 7.72298777,15.0964 L7.72298777,15.0961 L7.72298777,15.0961 Z M7.72298777,12.0601 L4.25319409,12.0601 C3.8940286,12.0596043 3.60299102,11.7685661 3.60249527,11.4094 C3.60282605,11.0501654 3.89396016,10.7590308 4.25319409,10.7587 L7.72298777,10.7587 C8.0822217,10.7590308 8.37335581,11.0501654 8.37368659,11.4094 C8.37335609,11.7686833 8.08227022,12.0599039 7.72298777,12.0604 L7.72298777,12.0601 L7.72298777,12.0601 Z M12.0603799,9.0238 L4.25349408,9.0238 C3.89426015,9.02346922 3.60312605,8.73233459 3.60279527,8.3731 C3.60329135,8.01398258 3.89437712,7.72303048 4.25349408,7.7227 L12.0603799,7.7227 C12.4194968,7.72303048 12.7105826,8.01398258 12.7110787,8.3731 C12.7110787,8.7325 12.4194792,9.0241 12.0600799,9.0241 L12.0603799,9.0238 L12.0603799,9.0238 Z" id="形状" fill="#979797"></path>
            </g>
        </g>
    </g>
</svg>