<?xml version="1.0" encoding="UTF-8"?>
<svg width="30px" height="30px" viewBox="0 0 30 30" version="1.1" xmlns="http://www.w3.org/2000/svg" xmlns:xlink="http://www.w3.org/1999/xlink">
    <title>ddhy_pre</title>
    <g id="页面-1" stroke="none" stroke-width="1" fill="none" fill-rule="evenodd">
        <g id="svg切图" transform="translate(-183.000000, -168.000000)" fill="#979797" fill-rule="nonzero" stroke="#979797" stroke-width="1.62608696">
            <g id="ddhy_pre" transform="translate(183.000000, 168.000000)">
                <path d="M6.97556302,19.0231191 L10.6006779,19.1299154 L19.5136875,19.2252888 L22.9541575,19.1300641 C23.5278232,19.0868248 24.063572,19.304206 24.4645758,19.6823408 C24.8747804,20.0691517 25.1452075,20.6228497 25.1869565,21.2528607 L25.1869565,21.2528607 L25.1869565,24.1178292 L5.2815441,24.1869565 L4.81304348,21.1470045 C4.85511479,20.5638324 5.12756222,20.0408964 5.52021032,19.6582989 C5.91385182,19.2747335 6.43258102,19.0263914 6.97556302,19.0231191 L6.97556302,19.0231191 Z M14.9457014,3.81304348 C16.2101232,3.81304348 17.3810016,4.30415304 18.2295586,5.11261539 C19.0411247,5.88583459 19.5563951,6.95175421 19.5624671,8.15206026 C19.4637824,9.8954568 18.6371882,11.2799351 17.244656,12.1091441 C16.5234646,13.3902468 16.4132009,13.9093717 16.4132009,14.4243723 L16.4132009,14.4243723 L16.4132009,14.9543381 C16.3891014,16.0635635 16.4663352,16.6478964 17.0879083,17.264775 C17.2150827,17.31327 17.3291028,17.3570829 17.4318007,17.3972705 L17.576,17.453 L12.493,17.49 L12.5140964,17.475247 C13.5036786,16.7627127 13.6777404,16.1768851 13.6940264,15.6032666 L13.6953964,15.5021433 L13.6953964,14.9721775 C13.7194959,13.8629522 13.6422621,13.2786192 13.020689,12.6617406 C11.3341835,11.3728652 10.3348704,9.79515172 10.3289096,8.18772354 C10.3778978,6.92901112 10.8910106,5.84539331 11.7019037,5.07281533 C12.5375648,4.27663958 13.6840545,3.81304348 14.9457014,3.81304348 Z" id="形状"></path>
            </g>
        </g>
    </g>
</svg>