<?xml version="1.0" encoding="UTF-8"?>
<svg width="30px" height="30px" viewBox="0 0 30 30" version="1.1" xmlns="http://www.w3.org/2000/svg" xmlns:xlink="http://www.w3.org/1999/xlink">
    <title>ddhy_pre</title>
    <g id="页面-1" stroke="none" stroke-width="1" fill="none" fill-rule="evenodd">
        <g id="svg切图-最新" transform="translate(-183.000000, -168.000000)" fill="#979797" fill-rule="nonzero">
            <g id="ddhy_pre" transform="translate(183.000000, 168.000000)">
                <path d="M6.98642534,18.2100429 L6.88687783,18.31782 L10.617,18.317 L10.60181,18.4121249 L19.5067873,18.4121249 L19.49,18.317 L22.9140271,18.31782 L23.0838683,18.3115896 L23.2518865,18.3158168 C24.6992797,18.3970031 25.907563,19.6265419 26,21.2278016 L26,24.2455603 C26,24.7844458 25.3031674,25 24.8054299,25 L5.19457014,25 L4.97167658,24.9465828 C4.51195863,24.8240374 4,24.5996851 4,24.1377832 L4,21.1200245 C4.09586057,19.5632442 5.39175341,18.3062883 6.82098317,18.2153159 L6.98642534,18.2100429 Z M14.9457014,3 C17.8778281,3 20.3755656,5.26331904 20.3755656,8.17330067 L20.3755656,8.38885487 C20.2669683,10.2210655 19.2895928,11.837722 17.6606335,12.8077159 L17.6606335,13.2388242 C17.3348416,13.5621555 17.2262443,13.9932639 17.2262443,14.4243723 L17.2262443,14.9632578 L17.2175447,15.5327055 C17.2211036,15.9415422 17.2847198,16.3146168 17.6606335,16.6876914 L17.6606335,16.7954685 L17.8778281,16.7954685 C18.6923077,16.8965095 19.3158937,17.4711803 19.4801418,18.2530642 L19.49,18.317 L10.617,18.317 L10.6284555,18.2530642 C10.7927036,17.4711803 11.4162896,16.8965095 12.2307692,16.7954685 L12.4479638,16.7954685 L12.4479638,16.6876914 C12.7737557,16.3643601 12.8823529,15.9332517 12.8823529,15.5021433 L12.8839347,14.8158921 L12.8903606,14.5314626 C12.897775,14.0678788 12.8656457,13.6533515 12.4479638,13.2388242 L12.4479638,12.8077159 C10.60181,11.837722 9.5158371,10.0055113 9.5158371,8.17330067 L9.5158371,7.95774648 C9.62157657,5.22928417 11.8894098,3.1138974 14.7153774,3.00445077 L14.9457014,3 Z" id="形状"></path>
            </g>
        </g>
    </g>
</svg>