<?xml version="1.0" encoding="UTF-8"?>
<svg width="30px" height="30px" viewBox="0 0 30 30" version="1.1" xmlns="http://www.w3.org/2000/svg" xmlns:xlink="http://www.w3.org/1999/xlink">
    <title>ddhy_def</title>
    <g id="页面-1" stroke="none" stroke-width="1" fill="none" fill-rule="evenodd">
        <g id="svg切图-最新" transform="translate(-225.000000, -168.000000)" fill="#979797" fill-rule="nonzero">
            <g id="ddhy_def" transform="translate(225.000000, 168.000000)">
                <path d="M6.98642534,18.2100429 L6.88687783,18.31782 L10.617,18.317 L10.60181,18.4121249 L19.5067873,18.4121249 L19.49,18.317 L22.9140271,18.31782 L23.0838683,18.3115896 L23.2518865,18.3158168 C24.6992797,18.3970031 25.907563,19.6265419 26,21.2278016 L26,24.2455603 C26,24.7844458 25.3031674,25 24.8054299,25 L5.19457014,25 L4.97167658,24.9465828 C4.51195863,24.8240374 4,24.5996851 4,24.1377832 L4,21.1200245 C4.09586057,19.5632442 5.39175341,18.3062883 6.82098317,18.2153159 L6.98642534,18.2100429 Z M6.581,19.916 L6.50581629,19.9463456 C6.08404505,20.1376554 5.72852408,20.5526863 5.64333097,20.9887704 L5.626,21.1200245 L5.626,23.373 L24.374,23.373 L24.3766157,21.3215158 C24.331212,20.5349997 23.7703437,19.9649696 23.1422535,19.9386753 L22.9136377,19.9439069 L20.053,19.943 L20.0298005,19.9526596 C19.9072185,19.9941882 19.777723,20.0215471 19.6430803,20.032631 L19.5067873,20.0382119 L10.60181,20.0382119 C10.4199283,20.0382119 10.2458884,20.0086361 10.0837994,19.954302 L10.055,19.943 L6.88723528,19.9439069 C6.79270476,19.9439277 6.70119181,19.9364445 6.61299926,19.9221491 L6.581,19.916 Z M14.9457014,3 C17.8778281,3 20.3755656,5.26331904 20.3755656,8.17330067 L20.3755656,8.38885487 C20.2669683,10.2210655 19.2895928,11.837722 17.6606335,12.8077159 L17.6606335,13.2388242 C17.3348416,13.5621555 17.2262443,13.9932639 17.2262443,14.4243723 L17.2262443,14.9632578 L17.2175447,15.5327055 C17.2211036,15.9415422 17.2847198,16.3146168 17.6606335,16.6876914 L17.6606335,16.7954685 L17.8778281,16.7954685 C18.6923077,16.8965095 19.3158937,17.4711803 19.4801418,18.2530642 L19.49,18.317 L10.617,18.317 L10.6284555,18.2530642 C10.7927036,17.4711803 11.4162896,16.8965095 12.2307692,16.7954685 L12.4479638,16.7954685 L12.4479638,16.6876914 C12.7737557,16.3643601 12.8823529,15.9332517 12.8823529,15.5021433 L12.8839347,14.8158921 L12.8903606,14.5314626 C12.897775,14.0678788 12.8656457,13.6533515 12.4479638,13.2388242 L12.4479638,12.8077159 C10.60181,11.837722 9.5158371,10.0055113 9.5158371,8.17330067 L9.5158371,7.95774648 C9.62157657,5.22928417 11.8894098,3.1138974 14.7153774,3.00445077 L14.9457014,3 Z M14.9457014,4.62608696 C12.9275034,4.62608696 11.32438,6.02331667 11.1543586,7.77528563 L11.1419241,7.95774648 L11.1419241,8.17330067 C11.1419241,9.43563594 11.925159,10.696154 13.2042905,11.3682268 C13.6499722,11.6023939 13.9568512,12.0263823 14.0467642,12.5108283 L14.066,12.65 L14.0771781,12.666855 C14.4231035,13.1992983 14.5190818,13.7518617 14.5156485,14.518629 L14.5086408,14.9186113 L14.5084399,15.5021433 C14.5084399,15.8711076 14.4606759,16.2285467 14.3586617,16.5659485 L14.316,16.69 L15.756,16.69 L15.7459602,16.6614995 C15.6288367,16.2970286 15.5907639,15.8958295 15.5929488,15.4078866 L15.6001574,14.9632578 L15.6001574,14.4243723 C15.6001574,13.8340294 15.7224333,13.273191 15.9935521,12.776723 L16.039,12.699 L16.0419434,12.6526065 C16.0860746,12.1913064 16.3254193,11.7702192 16.6991922,11.4962865 L16.8286786,11.4105724 C17.9186558,10.7615254 18.5924826,9.72670155 18.730007,8.60093071 L18.7494787,8.38885487 L18.7494787,8.17330067 C18.7494787,6.225306 17.0446756,4.62608696 14.9457014,4.62608696 Z" id="形状"></path>
            </g>
        </g>
    </g>
</svg>