<?xml version="1.0" encoding="UTF-8"?>
<svg width="12px" height="12px" viewBox="0 0 12 12" version="1.1" xmlns="http://www.w3.org/2000/svg" xmlns:xlink="http://www.w3.org/1999/xlink">
    <title>点点点</title>
    <g id="页面-1" stroke="none" stroke-width="1" fill="none" fill-rule="evenodd">
        <g id="1．账户管理-机构管理-显示列" transform="translate(-1817.000000, -351.000000)" fill-rule="nonzero">
            <g id="点点点" transform="translate(1817.000000, 351.000000)">
                <rect id="矩形" fill="#000000" opacity="0" x="0" y="0" width="12" height="12"></rect>
                <path d="M3.333,2.77 C2.597,2.77 2,2.15 2,1.384 C2,0.617999988 2.597,0 3.333,0 C4.07,0 4.667,0.620000004 4.667,1.385 C4.667,2.14900001 4.07,2.769 3.333,2.769 L3.333,2.77 Z M3.333,7.385 C2.597,7.385 2,6.765 2,6 C2,5.235 2.597,4.615 3.333,4.615 C4.07,4.615 4.667,5.235 4.667,6 C4.667,6.765 4.07,7.385 3.333,7.385 L3.333,7.385 Z M8.667,2.769 C7.93,2.769 7.333,2.149 7.333,1.385 C7.333,0.620000004 7.93,0 8.667,0 C9.403,0 10,0.620000004 10,1.385 C10,2.14900001 9.403,2.769 8.667,2.769 L8.667,2.769 Z M8.667,7.385 C7.93,7.385 7.333,6.765 7.333,6 C7.333,5.235 7.93,4.615 8.667,4.615 C9.403,4.615 10,5.235 10,6 C10,6.765 9.403,7.385 8.667,7.385 Z M3.333,12 C2.597,12 2,11.38 2,10.615 C2,9.85099999 2.597,9.231 3.333,9.231 C4.07,9.231 4.667,9.851 4.667,10.615 C4.667,11.38 4.07,12 3.333,12 Z M8.667,12 C7.93,12 7.333,11.38 7.333,10.615 C7.333,9.85099999 7.93,9.231 8.667,9.231 C9.403,9.231 10,9.851 10,10.615 C10,11.38 9.403,12 8.667,12 L8.667,12 Z" id="形状" fill="#989898"></path>
            </g>
        </g>
    </g>
</svg>