<?xml version="1.0" encoding="UTF-8"?>
<svg width="19px" height="19px" viewBox="0 0 19 19" version="1.1" xmlns="http://www.w3.org/2000/svg" xmlns:xlink="http://www.w3.org/1999/xlink">
    <title>筛选</title>
    <g id="页面-1" stroke="none" stroke-width="1" fill="none" fill-rule="evenodd">
        <g id="1．账户管理-机构管理" transform="translate(-1075.000000, -174.000000)" fill-rule="nonzero">
            <g id="筛选" transform="translate(1075.000000, 174.000000)">
                <rect id="矩形" fill="#000000" opacity="0" x="0" y="0" width="18.999981" height="18.999981"></rect>
                <path d="M10.7153083,18.999981 C10.4044701,19.001513 10.0982223,18.924951 9.82468522,18.7773021 L7.37547191,17.4228129 C6.77897631,17.0964419 6.40877441,16.4699463 6.41063031,15.790004 L6.41063031,8.01560721 C6.41063031,7.898803 6.35563651,7.78881538 6.26219314,7.71873286 L0.603026017,3.19139916 L0.528807434,3.11718058 C0.00927733447,2.57909583 -0.120605181,1.7998007 0.176269151,1.11327878 C0.473143483,0.426756866 1.12255612,0 1.86474197,0 L17.1166612,0 C17.8588471,0 18.5268143,0.426756866 18.8236887,1.11327878 C19.120563,1.7998007 18.9906805,2.5605412 18.489705,3.11718058 L18.4154865,3.19139916 L12.7006554,7.77439681 C12.6141602,7.84822654 12.5662921,7.95763938 12.5707729,8.07127114 L12.5707729,17.1444932 C12.5707729,18.169238 11.7400531,18.999981 10.7153083,18.999981 Z M1.56786761,2.07812038 L7.18992546,6.56834479 C7.63509059,6.91660123 7.89514841,7.45040413 7.89500201,8.01560721 L7.89500201,15.790004 C7.89038761,15.9270642 7.96173883,16.0554964 8.08054847,16.1239876 L10.5297618,17.4599222 C10.6465442,17.5274525 10.7907753,17.5262884 10.9064525,17.4568821 C11.0221298,17.3874757 11.0910303,17.2607608 11.0864012,17.1259385 L11.0864012,8.07127114 C11.0844922,7.50982904 11.3369047,6.97771604 11.7729231,6.62400872 L17.4135356,2.07812038 C17.4978713,1.96567267 17.511437,1.81522718 17.4485768,1.68950683 C17.3857166,1.56378648 17.2572209,1.4843717 17.1166612,1.4843717 L1.86474197,1.4843717 C1.72418233,1.4843717 1.59568654,1.56378647 1.53282636,1.68950682 C1.46996618,1.81522718 1.48353184,1.96567267 1.56786761,2.07812038 Z" id="形状" fill="#989898"></path>
                <path d="M18.2484946,9.66697072 L14.0551446,9.66697072 C13.6452467,9.66697072 13.3129587,9.3346828 13.3129587,8.92478487 C13.3129587,8.51488695 13.6452467,8.18259902 14.0551446,8.18259902 L18.2484946,8.18259902 C18.6583926,8.18259902 18.9906805,8.51488695 18.9906805,8.92478487 C18.9906805,9.3346828 18.6583926,9.66697072 18.2484946,9.66697072 L18.2484946,9.66697072 Z M18.2484946,12.4501677 L14.0551446,12.4501677 C13.6452467,12.4501677 13.3129587,12.1178797 13.3129587,11.7079818 C13.3129587,11.2980839 13.6452467,10.965796 14.0551446,10.965796 L18.2484946,10.965796 C18.6583926,10.965796 18.9906805,11.2980839 18.9906805,11.7079818 C18.9906805,12.1178797 18.6583926,12.4501677 18.2484946,12.4501677 L18.2484946,12.4501677 Z M18.2484946,15.21481 L14.0551446,15.21481 C13.6452467,15.21481 13.3129587,14.882522 13.3129587,14.4726241 C13.3129587,14.0627262 13.6452467,13.7304383 14.0551446,13.7304383 L18.2484946,13.7304383 C18.6583926,13.7304383 18.9906805,14.0627262 18.9906805,14.4726241 C18.9906805,14.882522 18.6583926,15.21481 18.2484946,15.21481 L18.2484946,15.21481 Z" id="形状" fill="#989898"></path>
            </g>
        </g>
    </g>
</svg>