<?xml version="1.0" encoding="UTF-8"?>
<svg width="30px" height="30px" viewBox="0 0 30 30" version="1.1" xmlns="http://www.w3.org/2000/svg" xmlns:xlink="http://www.w3.org/1999/xlink">
    <title>home_def</title>
    <g id="页面-1" stroke="none" stroke-width="1" fill="none" fill-rule="evenodd">
        <g id="svg切图" transform="translate(-23.000000, -9.000000)">
            <g id="home_def" transform="translate(23.000000, 9.000000)">
                <rect id="矩形" x="0" y="0" width="30" height="30"></rect>
                <path d="M15.9311021,3.32035565 L25.8279952,10.1530035 C26.5618737,10.6596608 27,11.4945321 27,12.3863164 L27,24.8905671 C27,26.389383 25.7849696,27.6044134 24.2861536,27.6044134 L5.71384638,27.6044134 C4.21503041,27.6044134 3,26.389383 3,24.8905671 L3,12.3720191 C3,11.4881752 3.43040586,10.6596986 4.15356759,10.1515479 L13.8630219,3.32891683 C14.4826505,2.89351675 15.30789,2.89010052 15.9311021,3.32035565 Z M14.9032078,4.80923096 L5.19375345,11.631862 C4.98713581,11.7770479 4.85221349,12.000681 4.81788095,12.2471431 L4.80923092,12.3720191 L4.80923092,24.8905671 C4.80923092,25.3517412 5.15432832,25.7323135 5.60037334,25.7881343 L5.71384638,25.7951825 L24.2861536,25.7951825 C24.7473278,25.7951825 25.1279001,25.4500851 25.1837208,25.0040401 L25.1907691,24.8905671 L25.1907691,12.3863164 C25.1907691,12.1262127 25.0789556,11.8806336 24.8871218,11.7101626 L24.8001008,11.6418788 L14.9032078,4.80923096 Z M15.9230769,12.7582596 L15.9230769,22.9890286 L14.0769231,22.9890286 L14.0769231,12.7582596 L15.9230769,12.7582596 Z M15.018,13.6624134 L14.981,13.6624134 L14.981,22.0834134 L15.018,22.0834134 L15.018,13.6624134 Z" id="形状" fill="#979797" fill-rule="nonzero"></path>
            </g>
        </g>
    </g>
</svg>