<?xml version="1.0" encoding="UTF-8"?>
<svg width="24px" height="24px" viewBox="0 0 24 24" version="1.1" xmlns="http://www.w3.org/2000/svg" xmlns:xlink="http://www.w3.org/1999/xlink">
    <title>icon_more</title>
    <g id="页面-1" stroke="none" stroke-width="1" fill="none" fill-rule="evenodd">
        <g id="svg切图-最新" transform="translate(-535.000000, -54.000000)" fill-rule="nonzero">
            <g id="icon_more" transform="translate(535.000000, 54.000000)">
                <rect id="矩形" fill="#000000" opacity="0" x="0" y="0" width="24" height="24"></rect>
                <path d="M14.2333333,16.4 C14.9513035,16.4 15.5333333,16.9820298 15.5333333,17.7 C15.5333333,18.4179702 14.9513035,19 14.2333333,19 L7.3,19 C6.58202983,19 6,18.4179702 6,17.7 C6,16.9820298 6.58202983,16.4 7.3,16.4 L14.2333333,16.4 Z M17.7,11.2 C18.4179702,11.2 19,11.7820298 19,12.5 C19,13.2179702 18.4179702,13.8 17.7,13.8 L7.3,13.8 C6.58202983,13.8 6,13.2179702 6,12.5 C6,11.7820298 6.58202983,11.2 7.3,11.2 L17.7,11.2 Z M15.1,6 C15.8179702,6 16.4,6.58202983 16.4,7.3 C16.4,8.01797017 15.8179702,8.6 15.1,8.6 L7.3,8.6 C6.58202983,8.6 6,8.01797017 6,7.3 C6,6.58202983 6.58202983,6 7.3,6 L15.1,6 Z" id="形状" fill="#979797"></path>
            </g>
        </g>
    </g>
</svg>