<?xml version="1.0" encoding="UTF-8"?>
<svg width="18px" height="18px" viewBox="0 0 18 18" version="1.1" xmlns="http://www.w3.org/2000/svg" xmlns:xlink="http://www.w3.org/1999/xlink">
    <title>icon_explain</title>
    <g id="页面-1" stroke="none" stroke-width="1" fill="none" fill-rule="evenodd">
        <g id="svg切图" transform="translate(-23.000000, -131.000000)" fill="#979797" fill-rule="nonzero">
            <path d="M32,149 C27.037681,149 23,144.962979 23,140 C23,135.037681 27.0376463,131 32,131 C36.9629785,131 41,135.037021 41,140 C41,144.962979 36.9629785,149 32,149 Z M32,132.291432 C27.7492614,132.291432 24.2914317,135.749227 24.2914317,140 C24.2914317,144.250114 27.7492267,147.708568 32,147.708568 C36.2501138,147.708568 39.7085683,144.250773 39.7085683,140 C39.7085683,135.749227 36.2501138,132.291432 32,132.291432 Z M31.0314175,135.802856 C31.0314175,136.337791 31.4650651,136.771438 32,136.771438 C32.5349349,136.771438 32.9685825,136.337791 32.9685825,135.802856 C32.9685825,135.267921 32.5349349,134.834273 32,134.834273 C31.4650651,134.834273 31.0314175,135.267921 31.0314175,135.802856 Z M32,145.165727 C31.6435503,145.165727 31.3542668,144.877103 31.3542668,144.519994 L31.3542668,138.708568 C31.3542668,138.352119 31.6435503,138.062835 32,138.062835 C32.3564497,138.062835 32.6457332,138.352119 32.6457332,138.708568 L32.6457332,144.519994 C32.6457332,144.877103 32.3564497,145.165727 32,145.165727 Z" id="icon_explain"></path>
        </g>
    </g>
</svg>