<?xml version="1.0" encoding="UTF-8"?>
<svg width="20px" height="20px" viewBox="0 0 20 20" version="1.1" xmlns="http://www.w3.org/2000/svg" xmlns:xlink="http://www.w3.org/1999/xlink">
    <title>index</title>
    <g id="页面-1" stroke="none" stroke-width="1" fill="none" fill-rule="evenodd">
        <g id="svg切图-最新" transform="translate(-386.000000, -58.000000)" fill-rule="nonzero">
            <g id="index" transform="translate(386.000000, 58.000000)">
                <rect id="矩形" fill="#000000" opacity="0" x="0" y="0" width="20" height="20"></rect>
                <path d="M16.7662651,2 C17.4448193,2 18,2.54661159 18,3.21469242 L18,3.21469242 L18,17.7853076 C18,18.4533884 17.4448193,19 16.7662651,19 L16.7662651,19 L3.23373494,19 C2.55518072,19 2,18.4533884 2,17.7853076 L2,17.7853076 L2,3.21469242 C2,2.54661159 2.55518072,2 3.23373494,2 L3.23373494,2 Z M16.7643373,3.21469242 L3.23566265,3.21469242 L3.23373494,3.21659038 L3.23373494,17.7834096 L3.23566265,17.7853076 L16.7643373,17.7853076 L16.7662651,17.7834096 L16.7662651,3.21659038 L16.7643373,3.21469242 Z M12.4616867,10.4345205 C13.866988,10.4345205 15.0120482,11.558111 15.0120482,12.9417216 C15.0120482,13.4592784 14.8520979,13.9409836 14.5782061,14.3412408 L16.020241,15.7639835 C16.2091566,15.9499833 16.2072289,16.2498604 16.020241,16.4358602 C15.9257831,16.5269622 15.8024096,16.5744111 15.6790361,16.5744111 C15.5556627,16.5744111 15.4322892,16.5288601 15.3378313,16.4358602 L13.8982998,15.0155054 C13.4890234,15.2912395 12.9942688,15.4527185 12.4616867,15.4527185 C11.0563855,15.4527185 9.91325301,14.3272301 9.91325301,12.9436195 C9.91325301,11.5600089 11.0563855,10.4345205 12.4616867,10.4345205 Z M12.4616867,11.381601 C11.586506,11.381601 10.8771084,12.0819471 10.8771084,12.9417216 C10.8771084,13.801496 11.5884337,14.5018421 12.4616867,14.5018421 C13.3349398,14.5018421 14.0462651,13.801496 14.0462651,12.9417216 C14.0462651,12.0819471 13.3368675,11.381601 12.4616867,11.381601 Z M8.74891566,9.91637825 C9.09012048,9.91637825 9.36578313,10.1877861 9.36578313,10.5237245 C9.36578313,10.8596628 9.09012048,11.1310707 8.74891566,11.1310707 L6.28144578,11.1310707 C5.94024096,11.1310707 5.66457831,10.8596628 5.66457831,10.5237245 C5.66457831,10.1877861 5.94024096,9.91637825 6.28144578,9.91637825 L8.74891566,9.91637825 Z M13.6703614,7.46421793 C14.0115663,7.46421793 14.2872289,7.73562577 14.2872289,8.07156414 C14.2872289,8.40750251 14.0096386,8.67891035 13.6703614,8.67891035 L6.28144578,8.67891035 C5.94024096,8.67891035 5.66457831,8.40750251 5.66457831,8.07156414 C5.66457831,7.73562577 5.94024096,7.46421793 6.28144578,7.46421793 L13.6703614,7.46421793 Z M13.6703614,5.03862901 C14.0115663,5.03862901 14.2872289,5.31003684 14.2872289,5.64597521 C14.2872289,5.98191359 14.0096386,6.25332142 13.6703614,6.25332142 L6.28144578,6.25332142 C5.94024096,6.25332142 5.66457831,5.98191359 5.66457831,5.64597521 C5.66457831,5.31003684 5.94024096,5.03862901 6.28144578,5.03862901 L13.6703614,5.03862901 Z" id="形状结合" fill="#979797"></path>
            </g>
        </g>
    </g>
</svg>