<?xml version="1.0" encoding="UTF-8"?>
<svg width="20px" height="20px" viewBox="0 0 20 20" version="1.1" xmlns="http://www.w3.org/2000/svg" xmlns:xlink="http://www.w3.org/1999/xlink">
    <title>安全评分</title>
    <g id="页面-1" stroke="none" stroke-width="1" fill="none" fill-rule="evenodd">
        <g id="1-2信息中心技术员首页备份" transform="translate(-310.000000, -636.000000)">
            <g id="编组-18备份" transform="translate(280.000000, 616.000000)">
                <g id="安全评分" transform="translate(30.000000, 20.000000)">
                    <rect id="矩形" x="0" y="0" width="20" height="20"></rect>
                    <path d="M10,0 L19,1.5 L19,12 C19,15.5 11.5,20 10,20 C8.5,20 1,15 1,12.5 L1,2 L10,0 Z M16.1178216,4.71368166 C15.6835499,4.37246824 15.0548951,4.44790682 14.7136817,4.88217845 L9.817,11.113 L6.6,8.7 C6.1581722,8.36862915 5.53137085,8.4581722 5.2,8.9 C4.86862915,9.3418278 4.9581722,9.96862915 5.4,10.3 L9.4,13.3 C9.83482454,13.6261184 10.4505134,13.5452097 10.7863183,13.1178216 L16.2863183,6.11782155 C16.6275318,5.68354992 16.5520932,5.05489508 16.1178216,4.71368166 Z" id="形状结合" fill="#3165D2"></path>
                </g>
            </g>
        </g>
    </g>
</svg>