<?xml version="1.0" encoding="UTF-8"?>
<svg width="30px" height="30px" viewBox="0 0 30 30" version="1.1" xmlns="http://www.w3.org/2000/svg" xmlns:xlink="http://www.w3.org/1999/xlink">
    <title>本年累计</title>
    <g id="工作台首页" stroke="none" stroke-width="1" fill="none" fill-rule="evenodd">
        <g id="本年累计">
            <rect id="矩形" x="0" y="0" width="30" height="30"></rect>
            <g fill="#3165D2" fill-rule="nonzero" id="形状结合">
                <path d="M4,2 C4.55228475,2 5,2.44771525 5,3 C5,3.55228475 4.55228475,4 4,4 L3,4 C2.44771525,4 2,4.44771525 2,5 L2,27 C2,27.5522847 2.44771525,28 3,28 L27,28 C27.5522847,28 28,27.5522847 28,27 L28,5 C28,4.44771525 27.5522847,4 27,4 L26,4 C25.4477153,4 25,3.55228475 25,3 C25,2.44771525 25.4477153,2 26,2 L27,2 C28.6568542,2 30,3.34314575 30,5 L30,27 C30,28.6568542 28.6568542,30 27,30 L3,30 C1.34314575,30 0,28.6568542 0,27 L0,5 C0,3.34314575 1.34314575,2 3,2 L4,2 Z M11.5326877,8 C11.8167877,8 12.0460048,8.10851064 12.220339,8.32553191 C12.3946731,8.54255319 12.4495561,8.78510638 12.3849879,9.05319149 L12.2106538,9.68510638 L21.3341404,9.68510638 C21.5794996,9.68510638 21.7861178,9.76808511 21.9539952,9.93404255 C22.1218725,10.1 22.2058111,10.3042553 22.2058111,10.5468085 C22.2058111,10.7893617 22.1218725,10.993617 21.9539952,11.1595745 C21.7861178,11.3255319 21.5794996,11.4085106 21.3341404,11.4085106 L16.8983051,11.4085106 L16.8983051,14.0702128 L20.9467312,14.0702128 C21.1920904,14.0702128 21.3987086,14.1531915 21.566586,14.3191489 C21.7344633,14.4851064 21.8184019,14.6893617 21.8184019,14.9319149 C21.8184019,15.1744681 21.7344633,15.3787234 21.566586,15.5446809 C21.3987086,15.7106383 21.1920904,15.793617 20.9467312,15.793617 L16.8983051,15.793617 L16.8983051,18.9723404 L22.1283293,18.9723404 C22.3736885,18.9723404 22.5803067,19.0553191 22.748184,19.2212766 C22.9160613,19.387234 23,19.5914894 23,19.8340426 C23,20.0765957 22.9160613,20.2808511 22.748184,20.4468085 C22.5803067,20.612766 22.3736885,20.6957447 22.1283293,20.6957447 L16.8983051,20.6957447 L16.8983051,25.1382979 C16.8983051,25.3808511 16.8143664,25.5851064 16.6464891,25.7510638 C16.4786118,25.9170213 16.2719935,26 16.0266344,26 C15.7812752,26 15.574657,25.9170213 15.4067797,25.7510638 C15.2389023,25.5851064 15.1549637,25.3808511 15.1549637,25.1382979 L15.1549637,20.6957447 L7.8716707,20.6957447 C7.62631154,20.6957447 7.4196933,20.612766 7.25181598,20.4468085 C7.08393866,20.2808511 7,20.0765957 7,19.8340426 C7,19.5914894 7.08393866,19.387234 7.25181598,19.2212766 C7.4196933,19.0553191 7.62631154,18.9723404 7.8716707,18.9723404 L9.90556901,18.9723404 L9.90556901,14.9319149 C9.90556901,14.6893617 9.98950767,14.4851064 10.157385,14.3191489 C10.3252623,14.1531915 10.5318805,14.0702128 10.7772397,14.0702128 L15.1549637,14.0702128 L15.1549637,11.4085106 L11.4939467,11.4085106 C11.1065375,12.1744681 10.6674738,12.8829787 10.1767554,13.5340426 C9.68603713,14.1851064 9.20823245,14.6893617 8.7433414,15.0468085 C8.57546408,15.1744681 8.39467312,15.2382979 8.20096852,15.2382979 C7.95560936,15.2382979 7.74899112,15.1553191 7.5811138,14.9893617 C7.41323648,14.8234043 7.32929782,14.6191489 7.32929782,14.3765957 C7.32929782,14.2361702 7.35835351,14.1085106 7.41646489,13.993617 C7.47457627,13.8787234 7.55528652,13.7829787 7.65859564,13.706383 C7.94269572,13.4765957 8.23970944,13.1734043 8.5496368,12.7968085 C8.85956416,12.4202128 9.15334948,12.0053191 9.43099274,11.5521277 C9.708636,11.0989362 9.95722357,10.6234043 10.1767554,10.1255319 C10.3962873,9.62765957 10.5641646,9.14255319 10.6803874,8.67021277 C10.732042,8.4787234 10.8353511,8.31914894 10.9903148,8.19148936 C11.1452785,8.06382979 11.3260694,8 11.5326877,8 Z M15.1549637,15.793617 L11.6489104,15.793617 L11.6489104,18.9723404 L15.1549637,18.9723404 L15.1549637,15.793617 Z M7,0 C7.55228475,-1.01453063e-16 8,0.44771525 8,1 L8,5 C8,5.55228475 7.55228475,6 7,6 C6.44771525,6 6,5.55228475 6,5 L6,1 C6,0.44771525 6.44771525,-2.31613845e-16 7,0 Z M23,0 C23.5522847,-1.01453063e-16 24,0.44771525 24,1 L24,5 C24,5.55228475 23.5522847,6 23,6 C22.4477153,6 22,5.55228475 22,5 L22,1 C22,0.44771525 22.4477153,-2.31613845e-16 23,0 Z M20,2 C20.5522847,2 21,2.44771525 21,3 C21,3.55228475 20.5522847,4 20,4 L10,4 C9.44771525,4 9,3.55228475 9,3 C9,2.44771525 9.44771525,2 10,2 L20,2 Z"></path>
            </g>
        </g>
    </g>
</svg>