<?xml version="1.0" encoding="UTF-8"?>
<svg width="20px" height="20px" viewBox="0 0 20 20" version="1.1" xmlns="http://www.w3.org/2000/svg" xmlns:xlink="http://www.w3.org/1999/xlink">
    <title>贷款余额</title>
    <g id="工作台首页" stroke="none" stroke-width="1" fill="none" fill-rule="evenodd">
        <g id="贷款余额">
            <rect id="矩形" x="0" y="0" width="20" height="20"></rect>
            <path d="M19.5,12 C19.7761424,12 20,12.2238576 20,12.5 C20,12.8133682 19.8471053,13.1070263 19.590384,13.2867312 L10.9758887,19.3168779 C10.3745848,19.7377907 9.591033,19.7955165 8.93453685,19.4672684 L2.4472136,16.2236068 C2.1656861,16.0828431 1.8343139,16.0828431 1.5527864,16.2236068 L0.723606798,16.6381966 C0.654179081,16.6729105 0.577622548,16.690983 0.5,16.690983 C0.223857625,16.690983 -1.88226917e-16,16.4671254 0,16.190983 L0,13.3603796 C8.46660414e-17,13.1451644 0.137715047,12.954095 0.341886117,12.886038 L2.15166767,12.2827774 C2.69147303,12.1028423 3.28236654,12.1613523 3.77640107,12.4436578 L9.07066074,15.468949 C9.65126047,15.8007203 10.3592566,15.8203717 10.9573658,15.5213171 L17.1055728,12.4472136 C17.6937739,12.1531131 18.3423712,12 19,12 Z M10,0 C13.8659932,0 17,3.13400675 17,7 C17,10.8659932 13.8659932,14 10,14 C6.13400675,14 3,10.8659932 3,7 C3,3.13400675 6.13400675,0 10,0 Z M9.29289322,4.87867966 L7.87867966,6.29289322 C7.48815536,6.68341751 7.48815536,7.31658249 7.87867966,7.70710678 L9.29289322,9.12132034 C9.68341751,9.51184464 10.3165825,9.51184464 10.7071068,9.12132034 L12.1213203,7.70710678 C12.5118446,7.31658249 12.5118446,6.68341751 12.1213203,6.29289322 L10.7071068,4.87867966 C10.3165825,4.48815536 9.68341751,4.48815536 9.29289322,4.87867966 Z" id="形状结合" fill="#3165D2"></path>
        </g>
    </g>
</svg>