<?xml version="1.0" encoding="UTF-8"?>
<svg width="20px" height="20px" viewBox="0 0 20 20" version="1.1" xmlns="http://www.w3.org/2000/svg" xmlns:xlink="http://www.w3.org/1999/xlink">
    <title>态势感知</title>
    <g id="页面-1" stroke="none" stroke-width="1" fill="none" fill-rule="evenodd">
        <g id="1-2信息中心技术员首页备份" transform="translate(-1128.000000, -636.000000)">
            <g id="编组-9" transform="translate(1098.000000, 616.000000)">
                <g id="态势感知" transform="translate(30.000000, 20.000000)">
                    <rect id="矩形" x="0" y="0" width="20" height="20"></rect>
                    <path d="M16,16 C16.5522847,16 17,16.4477153 17,17 C17,17.5522847 16.5522847,18 16,18 L4,18 C3.44771525,18 3,17.5522847 3,17 C3,16.4477153 3.44771525,16 4,16 L16,16 Z M16,2 C16.5522847,2 17,2.44771525 17,3 L17,14 C17,14.5522847 16.5522847,15 16,15 L4,15 C3.44771525,15 3,14.5522847 3,14 L3,3 C3,2.44771525 3.44771525,2 4,2 L16,2 Z M1,5 C1.55228475,5 2,5.44771525 2,6 L2,12 C2,12.5522847 1.55228475,13 1,13 C0.44771525,13 6.76353751e-17,12.5522847 0,12 L0,6 C-6.76353751e-17,5.44771525 0.44771525,5 1,5 Z M19,5 C19.5522847,5 20,5.44771525 20,6 L20,12 C20,12.5522847 19.5522847,13 19,13 C18.4477153,13 18,12.5522847 18,12 L18,6 C18,5.44771525 18.4477153,5 19,5 Z M9.56179751,5.78932594 C9.38545305,5.31907404 8.74389906,5.26064452 8.48550424,5.69130255 L7.16,7.9 L4.5,7.9 C4.16862915,7.9 3.9,8.16862915 3.9,8.5 C3.9,8.83137085 4.16862915,9.1 4.5,9.1 L7.5,9.1 L7.58917038,9.09334773 C7.76478602,9.06697441 7.92155237,8.96360309 8.01449576,8.80869745 L8.874,7.374 L9.93820249,10.2106741 L9.97942281,10.2992106 C10.1983846,10.6865428 10.7733273,10.7106449 11.0144958,10.3086975 L12.118,8.467 L12.5757359,8.92426407 C12.6882578,9.0367859 12.8408701,9.1 13,9.1 L15,9.1 C15.3313708,9.1 15.6,8.83137085 15.6,8.5 L15.592147,8.40267688 C15.5456468,8.11758961 15.2982338,7.9 15,7.9 L13.249,7.9 L12.4242641,7.07573593 L12.3516463,7.01363556 C12.0730772,6.81112891 11.6695981,6.88447946 11.4855042,7.19130255 L10.624,8.625 Z" id="形状结合" fill="#3165D2"></path>
                </g>
            </g>
        </g>
    </g>
</svg>