<?xml version="1.0" encoding="UTF-8"?>
<svg width="30px" height="30px" viewBox="0 0 30 30" version="1.1" xmlns="http://www.w3.org/2000/svg" xmlns:xlink="http://www.w3.org/1999/xlink">
    <title>份额转让</title>
    <g id="工作台首页" stroke="none" stroke-width="1" fill="none" fill-rule="evenodd">
        <g id="份额转让">
            <rect id="矩形" x="0" y="0" width="30" height="30"></rect>
            <path d="M28.6973669,18.0780994 C29.2262804,18.2370612 29.5261856,18.7946944 29.3672237,19.323608 C27.4771522,25.6124409 21.6665754,30 15,30 C8.44165202,30 2.70288728,25.7529985 0.721232828,19.6076061 C0.708697381,19.5687319 0.698668133,19.5296505 0.691055573,19.4905366 C0.644866501,19.3774959 0.620122452,19.2534384 0.620122452,19.1236017 C0.620122452,18.571317 1.0678377,18.1236017 1.62012245,18.1236017 L5.86265113,18.1236017 C6.41493588,18.1236017 6.86265113,18.571317 6.86265113,19.1236017 C6.86265113,19.6758865 6.41493588,20.1236017 5.86265113,20.1236017 L3.04778688,20.1234542 C5.06560248,24.8324261 9.72741283,28 15,28 C20.7777044,28 25.8141945,24.1969527 27.4518582,18.7479562 C27.6108201,18.2190427 28.1684533,17.9191375 28.6973669,18.0780994 Z M12.8786797,10.0502525 C14.0502525,8.87867966 15.9497475,8.87867966 17.1213203,10.0502525 L19.9497475,12.8786797 C21.1213203,14.0502525 21.1213203,15.9497475 19.9497475,17.1213203 L17.1213203,19.9497475 C15.9497475,21.1213203 14.0502525,21.1213203 12.8786797,19.9497475 L10.0502525,17.1213203 C8.87867966,15.9497475 8.87867966,14.0502525 10.0502525,12.8786797 Z M15.7071068,11.4644661 C15.3165825,11.0739418 14.6834175,11.0739418 14.2928932,11.4644661 L11.4644661,14.2928932 C11.0739418,14.6834175 11.0739418,15.3165825 11.4644661,15.7071068 L14.2928932,18.5355339 C14.6834175,18.9260582 15.3165825,18.9260582 15.7071068,18.5355339 L18.5355339,15.7071068 C18.9260582,15.3165825 18.9260582,14.6834175 18.5355339,14.2928932 Z M28.8748564,12.943 L28.8808564,12.942 L28.8638564,12.945 L28.7846638,12.9589872 L28.8088564,12.955 L28.6779129,12.9654427 L24.1413551,13.0002993 C23.5890866,13.0045089 23.1379476,12.5602438 23.1337079,12.0079753 C23.1294682,11.4557068 23.5737334,11.0045678 24.1260018,11.0003282 L27.365,10.975 L27.2754296,10.7088468 C25.4716116,5.54451592 20.5774866,2 15,2 C9.25670523,2 4.2429666,5.7580895 2.57566945,11.1616543 C2.41283445,11.6893883 1.85301764,11.9851975 1.32528361,11.8223625 C0.797549579,11.6595275 0.501740463,11.0997107 0.664575458,10.5719766 C2.58880661,4.33571112 8.37316121,0 15,0 C21.5568875,0 27.2946747,4.24511891 29.2775335,10.38857 C29.3711775,10.6787053 29.4559617,10.9718755 29.5317421,11.2677469 L29.6466779,11.7496905 L29.6458564,11.75 L29.6617122,11.8347337 C29.6654755,11.8630264 29.6680034,11.8912443 29.6693339,11.9193276 L29.6702369,11.9577955 C29.670531,12.000036 29.6682315,12.0416849 29.6634606,12.0825875 L29.6511579,12.1610566 L29.6230089,12.2700159 L29.5821955,12.3759382 L29.5320873,12.4728944 L29.5166634,12.4982079 C29.4865505,12.5457711 29.4528449,12.5905437 29.4155467,12.6323016 L29.3789396,12.6709789 C29.3339113,12.7164964 29.2839251,12.758044 29.2297183,12.7946397 L29.1120259,12.8628462 L29.0317722,12.8981086 L28.9260362,12.9324253 L28.8828564,12.942 L28.8748564,12.943 L28.8583149,12.9478039 L28.8217113,12.9540644 L28.8088564,12.955 L28.8748564,12.943 Z" id="形状结合" fill="#3165D2" fill-rule="nonzero"></path>
        </g>
    </g>
</svg>