<?xml version="1.0" encoding="UTF-8"?>
<svg width="30px" height="30px" viewBox="0 0 30 30" version="1.1" xmlns="http://www.w3.org/2000/svg" xmlns:xlink="http://www.w3.org/1999/xlink">
    <title>份额质押</title>
    <g id="工作台首页" stroke="none" stroke-width="1" fill="none" fill-rule="evenodd">
        <g id="份额质押">
            <rect id="矩形" x="0" y="0" width="30" height="30"></rect>
            <path d="M29,28 C29.5522847,28 30,28.4477153 30,29 C30,29.5522847 29.5522847,30 29,30 L12.9913774,30 C12.4390926,30 11.9913774,29.5522847 11.9913774,29 C11.9913774,28.4477153 12.4390926,28 12.9913774,28 L29,28 Z M27,0 C28.6568542,0 30,1.34314575 30,3 L30,14.5213714 C30,15.0736562 29.5522847,15.5213714 29,15.5213714 C28.4477153,15.5213714 28,15.0736562 28,14.5213714 L28,3 C28,2.44771525 27.5522847,2 27,2 L3,2 C2.44771525,2 2,2.44771525 2,3 L2,27 C2,27.5522847 2.44771525,28 3,28 L8.56245552,28 C9.11474027,28 9.56245552,28.4477153 9.56245552,29 C9.56245552,29.5522847 9.11474027,30 8.56245552,30 L3,30 C1.34314575,30 0,28.6568542 0,27 L0,3 C0,1.34314575 1.34314575,0 3,0 L27,0 Z M21,7 C23.7614237,7 26,9.23857625 26,12 C26,13.4114286 25.4103841,14.7276482 24.4033669,15.663052 L24.4315119,15.4934613 C24.2857764,16.2849345 24.3010838,16.8172023 24.4148599,17.0582593 C24.5301816,17.3025909 24.9319087,17.6375891 25.6352362,18.0004699 L28,18 C29.1045695,18 30,18.8954305 30,20 L30,24 C30,25.1045695 29.1045695,26 28,26 L14,26 C12.8954305,26 12,25.1045695 12,24 L12,20 C12,18.8954305 12.8954305,18 14,18 L16.2654815,18.0003275 C17.0050719,17.5395857 17.4563865,17.1675117 17.5932855,16.9493434 C17.7008396,16.7779404 17.779153,16.4006727 17.792928,15.8356748 C16.6703546,14.8972448 16,13.504524 16,12 C16,9.23857625 18.2385763,7 21,7 Z M28,20 L14,20 L14,24 L28,24 L28,20 Z M21,9 C19.3431458,9 18,10.3431458 18,12 C18,12.9996746 18.4914562,13.9147942 19.2997686,14.4721319 C19.4723782,14.5911477 19.5959537,14.7547294 19.665696,14.9367639 C19.7428018,15.0733253 19.7879106,15.2303969 19.7919533,15.3981099 C19.8192648,16.5311474 19.6741698,17.3880749 19.2946165,18.0007719 L22.6504371,18.0009605 C22.6350487,17.9714826 22.6203024,17.9418061 22.6061994,17.9119263 C22.3038091,17.2712531 22.2564693,16.4479914 22.4159821,15.4174888 L22.4863825,15.0163082 C22.4974643,14.959496 22.5131531,14.9047526 22.5329855,14.8523903 C22.5883361,14.6596075 22.7020208,14.4803531 22.8713979,14.3449447 C23.580336,13.7781845 24,12.9246131 24,12 C24,10.3431458 22.6568542,9 21,9 Z M12.75,13.4642857 C13.3022847,13.4642857 13.75,13.912001 13.75,14.4642857 C13.75,15.0165705 13.3022847,15.4642857 12.75,15.4642857 L5.03571429,15.4642857 C4.48342954,15.4642857 4.03571429,15.0165705 4.03571429,14.4642857 C4.03571429,13.912001 4.48342954,13.4642857 5.03571429,13.4642857 L12.75,13.4642857 Z M12.75,6.71428571 C13.3022847,6.71428571 13.75,7.16200096 13.75,7.71428571 C13.75,8.26657046 13.3022847,8.71428571 12.75,8.71428571 L5.03571429,8.71428571 C4.48342954,8.71428571 4.03571429,8.26657046 4.03571429,7.71428571 C4.03571429,7.16200096 4.48342954,6.71428571 5.03571429,6.71428571 L12.75,6.71428571 Z" id="形状结合" fill="#3165D2" fill-rule="nonzero"></path>
        </g>
    </g>
</svg>