<?xml version="1.0" encoding="UTF-8"?>
<svg width="20px" height="20px" viewBox="0 0 20 20" version="1.1" xmlns="http://www.w3.org/2000/svg" xmlns:xlink="http://www.w3.org/1999/xlink">
    <title>非现场监管选中</title>
    <g id="页面-1" stroke="none" stroke-width="1" fill="none" fill-rule="evenodd">
        <g id="非现场监管选中">
            <rect id="矩形" x="0" y="0" width="20" height="20"></rect>
            <path d="M10,0 L19,4 L19,14.5 C19,16.5 12,20 10,20 C8,20 1,16.5 1,14.5 L1,4 L10,0 Z M9.7,5.3 C7.65654643,5.3 6,6.95654643 6,9 C6,11.0434536 7.65654643,12.7 9.7,12.7 C10.3386797,12.7 10.9395637,12.538177 11.4638872,12.2532955 L13.7050253,14.4949747 C13.9783923,14.7683418 14.4216077,14.7683418 14.6949747,14.4949747 C14.9683418,14.2216077 14.9683418,13.7783923 14.6949747,13.5050253 L12.5495546,11.3602469 C13.0807051,10.7196994 13.4,9.89713736 13.4,9 C13.4,6.95654643 11.7434536,5.3 9.7,5.3 Z M9.7,6.7 C10.9702549,6.7 12,7.72974508 12,9 C12,10.2702549 10.9702549,11.3 9.7,11.3 C8.42974508,11.3 7.4,10.2702549 7.4,9 C7.4,7.72974508 8.42974508,6.7 9.7,6.7 Z" id="形状结合" fill="#3165D2"></path>
        </g>
    </g>
</svg>