<?xml version="1.0" encoding="UTF-8"?>
<svg width="20px" height="20px" viewBox="0 0 20 20" version="1.1" xmlns="http://www.w3.org/2000/svg" xmlns:xlink="http://www.w3.org/1999/xlink">
    <title>负债情况</title>
    <g id="工作台首页" stroke="none" stroke-width="1" fill="none" fill-rule="evenodd">
        <g id="负债情况" transform="translate(0.000000, 0.000000)">
            <rect id="矩形" x="0" y="0" width="20" height="20"></rect>
            <path d="M10,0 C15.5228475,0 20,4.4771525 20,10 C20,15.5228475 15.5228475,20 10,20 C4.4771525,20 0,15.5228475 0,10 C0,4.4771525 4.4771525,0 10,0 Z M11.884,11.76 L10.864,11.76 L10.864,12.684 C10.864,13.428 10.624,14.508 7.396,15.18 C7.648,15.384 7.948,15.732 8.08,15.972 C11.464,15.072 11.884,13.728 11.884,12.708 L11.884,11.76 Z M6.772,4.98 C6.244,6.708 5.392,8.46 4.42,9.6 C4.624,9.864 4.96,10.476 5.056,10.74 C5.344,10.392 5.608,10.008 5.872,9.576 L5.872,15.936 L6.928,15.936 L6.928,7.608 C7.276,6.852 7.588,6.06 7.84,5.28 L6.772,4.98 Z M12.292,13.764 L11.764,14.484 C12.784,14.856 14.152,15.456 14.824,15.876 L15.388,15.072 C14.668,14.664 13.3,14.1 12.292,13.764 Z M14.62,10.356 L8.308,10.356 L8.308,13.74 L9.316,13.74 L9.316,11.124 L13.564,11.124 L13.564,13.74 L14.62,13.74 L14.62,10.356 Z M11.968,4.932 L10.936,4.932 L10.936,5.928 L8.008,5.928 L8.008,6.78 L10.936,6.78 L10.936,7.416 L8.38,7.416 L8.38,8.208 L10.936,8.208 L10.936,8.928 L7.696,8.928 L7.696,9.756 L15.268,9.756 L15.268,8.928 L11.968,8.928 L11.968,8.208 L14.44,8.208 L14.44,7.416 L11.968,7.416 L11.968,6.78 L14.752,6.78 L14.752,5.928 L11.968,5.928 L11.968,4.932 Z" id="形状结合" fill="#3165D2"></path>
        </g>
    </g>
</svg>