<?xml version="1.0" encoding="UTF-8"?>
<svg width="20px" height="20px" viewBox="0 0 20 20" version="1.1" xmlns="http://www.w3.org/2000/svg" xmlns:xlink="http://www.w3.org/1999/xlink">
    <title>风险信息趋势</title>
    <g id="工作台首页" stroke="none" stroke-width="1" fill="none" fill-rule="evenodd">
        <g id="风险信息趋势">
            <rect id="矩形" x="0" y="0" width="20" height="20"></rect>
            <path d="M18,0 C19.1045695,-2.02906125e-16 20,0.8954305 20,2 L20,18 C20,19.1045695 19.1045695,20 18,20 L2,20 C0.8954305,20 -8.67738547e-17,19.1045695 0,18 L0,2 C-1.3527075e-16,0.8954305 0.8954305,-1.91384796e-17 2,0 L18,0 Z M15.5,6.3 L11,6.3 C10.6134007,6.3 10.3,6.61340068 10.3,7 L10.3063902,7.09498585 C10.3527418,7.43665638 10.6456173,7.7 11,7.7 L13.811,7.699 L10,11.511 L7.99497475,9.50502525 C7.72160774,9.23165825 7.27839226,9.23165825 7.00502525,9.50502525 L3.50502525,13.0050253 C3.23165825,13.2783923 3.23165825,13.7216077 3.50502525,13.9949747 L3.59179111,14.0687838 C3.86533687,14.2656081 4.24894444,14.2410051 4.49497475,13.9949747 L7.5,10.989 L9.50502525,12.9949747 C9.77839226,13.2683418 10.2216077,13.2683418 10.4949747,12.9949747 L14.8,8.688 L14.8,11.5 C14.8,11.8543827 15.0633436,12.1472582 15.4050141,12.1936098 L15.5,12.2 C15.8865993,12.2 16.2,11.8865993 16.2,11.5 L16.2,7 C16.2,6.96533213 16.1974798,6.93125287 16.1926127,6.89793545 C16.1908735,6.88630798 16.1887258,6.87388512 16.1862416,6.8615164 C16.1823408,6.84185932 16.1777273,6.82309088 16.1723745,6.80463667 C16.1670831,6.78656076 16.1611395,6.76875174 16.1544615,6.75115779 C16.1494409,6.73791809 16.1440327,6.72491446 16.1382508,6.71211582 C16.1314554,6.69699506 16.1240245,6.6819696 16.1160217,6.6671716 C16.1050266,6.64697698 16.0931858,6.62747334 16.080451,6.60862334 L16.0687838,6.59179111 C16.0218775,6.52821719 15.9717828,6.47812247 15.9151699,6.43635301 C15.9067207,6.43006507 15.898798,6.42448046 15.8907883,6.41907958 C15.8725267,6.4068142 15.853023,6.39497342 15.8329266,6.38408753 C15.8180304,6.37597546 15.8030049,6.36854456 15.7877845,6.36168565 C15.7750855,6.3559673 15.7620819,6.35055905 15.7488872,6.34553836 C15.7312483,6.33886047 15.7134392,6.33291694 15.6954625,6.32770788 C15.6769091,6.32227274 15.6581407,6.31765915 15.6390922,6.31381888 C15.6264261,6.31133671 15.6143172,6.30923475 15.6021703,6.30745247 L15.5,6.3 Z" id="形状结合" fill="#3165D2"></path>
        </g>
    </g>
</svg>