<?xml version="1.0" encoding="UTF-8"?>
<svg width="20px" height="20px" viewBox="0 0 20 20" version="1.1" xmlns="http://www.w3.org/2000/svg" xmlns:xlink="http://www.w3.org/1999/xlink">
    <title>风险分布</title>
    <defs>
        <rect id="path-1" x="0" y="0" width="20" height="20"></rect>
    </defs>
    <g id="工作台首页" stroke="none" stroke-width="1" fill="none" fill-rule="evenodd">
        <g id="风险分布">
            <mask id="mask-2" fill="white">
                <use xlink:href="#path-1"></use>
            </mask>
            <g id="矩形"></g>
            <path d="M10,0 C12.7614237,0 15,2.23857625 15,5 C15,6.84094917 13.3333333,9.50761583 10,13 C6.66666667,9.50761583 5,6.84094917 5,5 C5,2.23857625 7.23857625,0 10,0 Z M10,3 C8.8954305,3 8,3.8954305 8,5 C8,6.1045695 8.8954305,7 10,7 C11.1045695,7 12,6.1045695 12,5 C12,3.8954305 11.1045695,3 10,3 Z" id="形状结合" fill="#3165D2" mask="url(#mask-2)"></path>
            <path d="M4.58578644,9 L3.5,9 C2.62356911,9 1.86472887,9.6087201 1.67460431,10.4642806 L0.31363174,16.5886572 C0.193824357,17.1277904 0.533755116,17.6619673 1.07288834,17.7817747 C1.19053378,17.8079181 1.31193614,17.8125806 1.43124016,17.7955371 L6.17989899,17.1171573 C6.70500085,17.0421427 7.23839532,17.1787965 7.6627417,17.4970563 L10.6320521,19.724039 C10.865592,19.899194 11.1640092,19.9635535 11.4489825,19.9002261 L18.0476259,18.4338609 C19.1258923,18.1942461 19.8057539,17.1258923 19.5661391,16.0476259 L18.1740155,9.78306954 C18.0723404,9.32553199 17.666527,9 17.1978284,9 L15.4142136,9 C15.1489971,9 14.8946432,9.10535684 14.7071068,9.29289322 L10.7071068,13.2928932 C10.3165825,13.6834175 9.68341751,13.6834175 9.29289322,13.2928932 L5.29289322,9.29289322 C5.10535684,9.10535684 4.85100293,9 4.58578644,9 Z" id="路径-39" fill="#3165D2" mask="url(#mask-2)"></path>
        </g>
    </g>
</svg>