<?xml version="1.0" encoding="UTF-8"?>
<svg width="20px" height="20px" viewBox="0 0 20 20" version="1.1" xmlns="http://www.w3.org/2000/svg" xmlns:xlink="http://www.w3.org/1999/xlink">
    <title>监测预警未选中</title>
    <g id="页面-1" stroke="none" stroke-width="1" fill="none" fill-rule="evenodd">
        <g id="监测预警未选中">
            <rect id="矩形" x="0" y="0" width="20" height="20"></rect>
            <path d="M9.79243079,0.739657167 C10.2096188,0.377755807 10.8411956,0.422574506 11.2030969,0.839762533 C12.0669223,1.83553099 12.8329297,2.5552865 13.5,3 C14.2373964,3.4915976 15.4789305,3.93604713 17.2246023,4.33334858 C17.2837475,4.34758733 17.3416576,4.36662284 17.3974779,4.39080225 C17.9042609,4.61032323 18.1371327,5.19910892 18,5.74157965 L18,14 C18,15.2926432 15.6502596,17.2118839 10.9516915,19.7594056 C10.6709888,19.9115912 10.3344871,19.9205787 10.046061,19.7835937 C4.68184965,17.2254245 2,15.2972005 2,14 L2,5.78272402 C2.05556184,5.67369093 2.03240773,5.60009326 2.01791643,5.52457204 C1.91384062,4.98218226 2.26916429,4.45811835 2.81158553,4.35420652 C4.68213303,3.99359559 6.07827119,3.54219342 7,3 C7.84017351,2.50578029 8.75467444,1.76715228 9.74350278,0.784115977 C9.75962379,0.769080611 9.77578641,0.754095801 9.79243079,0.739657167 Z M9.74578641,5.34456958 C9.38380218,5.20882549 8.98031366,5.39222936 8.84456958,5.75421359 L7.34456958,9.75421359 L7.31693989,9.84599216 C7.21873474,10.2747577 7.54383863,10.7 8,10.7 L10.966,10.7 L9.35006632,14.7400265 C9.20648693,15.098975 9.38107806,15.5063543 9.74002653,15.6499337 C10.098975,15.7935131 10.5063543,15.6189219 10.6499337,15.2599735 L12.6499337,10.2599735 L12.6798592,10.1676344 C12.788009,9.73570225 12.4622102,9.3 12,9.3 L9.009,9.3 L10.1554304,6.24578641 C10.2911745,5.88380218 10.1077706,5.48031366 9.74578641,5.34456958 Z" id="形状结合" fill="#7E7E7E"></path>
        </g>
    </g>
</svg>