<?xml version="1.0" encoding="UTF-8"?>
<svg width="20px" height="20px" viewBox="0 0 20 20" version="1.1" xmlns="http://www.w3.org/2000/svg" xmlns:xlink="http://www.w3.org/1999/xlink">
    <title>防护网</title>
    <g id="页面-1" stroke="none" stroke-width="1" fill="none" fill-rule="evenodd">
        <g id="1-2信息中心技术员首页备份" transform="translate(-308.000000, -1112.000000)">
            <g id="编组-10" transform="translate(280.000000, 1092.000000)">
                <g id="防护网" transform="translate(28.000000, 20.000000)">
                    <rect id="矩形" x="0" y="8.55834514e-09" width="20" height="20"></rect>
                    <path d="M9.61816186,0.0757707987 C9.86689666,-0.0269920595 10.1465528,-0.0251592417 10.3939193,0.0808549785 C12.6092904,1.03029972 14.174958,1.5 15,1.5 C15.7816628,1.5 16.813017,1.3861127 18.0857666,1.15628831 L18.8038839,1.01941933 C19.4226758,0.895660947 20,1.36895358 20,2 L20,12.5 C20,15.9080228 13.8620342,20 10,20 C6.13796582,20 0,15.9080228 0,12.5 L0,2 C0,1.35209813 0.606689642,0.875240565 1.23625079,1.02830789 C2.76052654,1.39891021 4.00093683,1.5539615 4.94452998,1.50153966 C5.76145382,1.456155 7.11128042,1.07222728 8.94926482,0.346218865 Z M2,12.5 C2,14.5483944 6.90125152,17.8585703 9.81667255,17.9956052 L10,18 L10,10 L18,9.99900001 L18,3.20100001 L17.5803896,3.26864572 C16.701772,3.40330999 15.9344434,3.47944242 15.2756855,3.49637139 L15,3.50000001 C13.9425378,3.50000001 12.4049824,3.07045724 10.3210514,2.21869391 L10,2.08500001 L10,10 L2,9.99900001 Z" id="形状结合" fill="#3165D2" fill-rule="nonzero"></path>
                </g>
            </g>
        </g>
    </g>
</svg>