<?xml version="1.0" encoding="UTF-8"?>
<svg width="20px" height="20px" viewBox="0 0 20 20" version="1.1" xmlns="http://www.w3.org/2000/svg" xmlns:xlink="http://www.w3.org/1999/xlink">
    <title>放款余额</title>
    <g id="工作台首页" stroke="none" stroke-width="1" fill="none" fill-rule="evenodd">
        <g id="放款余额">
            <rect id="矩形" x="0" y="0" width="20" height="20"></rect>
            <path d="M16,3 C16.5522847,3 17,3.44771525 17,4 C17,4.55228475 16.5522847,5 16,5 L16,18 C16,19.1045695 15.1045695,20 14,20 L6,20 C4.8954305,20 4,19.1045695 4,18 L4,5 C3.44771525,5 3,4.55228475 3,4 C3,3.44771525 3.44771525,3 4,3 L16,3 Z M12.8155388,8.14055448 C12.5215429,7.92429031 12.1062778,7.94831966 11.8392307,8.21264254 L9.843,10.187 L7.84800466,8.21264254 C7.55425279,7.92188737 7.08115724,7.92188737 6.78740537,8.21264254 L6.77373398,8.22622994 C6.48234763,8.52061949 6.48478221,8.99548469 6.77917176,9.28687104 L8.001,10.496 L6.7538316,10.4968877 C6.3375019,10.4968877 6,10.8343896 6,11.2507193 C6,11.667049 6.3375019,12.0045509 6.7538316,12.0045509 L9.046,12.004 L9.046,13.009 L6.7538316,13.0096597 C6.3375019,13.0096597 6,13.3471616 6,13.7634913 C6,14.179821 6.3375019,14.5173229 6.7538316,14.5173229 L9.046,14.517 L9.04640414,15.7737089 C9.04640414,16.1900386 9.38390605,16.5275405 9.80023574,16.5275405 L9.81577461,16.5275405 C10.2321043,16.5275405 10.5696062,16.1900386 10.5696062,15.7737089 L10.569,14.517 L12.8621788,14.5173229 C13.2785085,14.5173229 13.6160104,14.179821 13.6160104,13.7634913 C13.6160104,13.3471616 13.2785085,13.0096597 12.8621788,13.0096597 L10.569,13.009 L10.569,12.004 L12.8621788,12.0045509 C13.2785085,12.0045509 13.6160104,11.667049 13.6160104,11.2507193 C13.6160104,10.8343896 13.2785085,10.4968877 12.8621788,10.4968877 L11.685,10.496 L12.9080636,9.28687104 C13.2024531,8.99548469 13.2048877,8.52061949 12.9080636,8.22079216 L12.89983,8.21264254 Z M18,0 C19.1045695,-2.02906125e-16 20,0.8954305 20,2 L20,8 C20,9.1045695 19.1045695,10 18,10 L17,10 L17.0010775,5.73181186 C17.5577563,5.40932745 17.9445763,4.82613645 17.9945143,4.14926234 L18,4 C18,2.8954305 17.1045695,2 16,2 L4,2 C2.8954305,2 2,2.8954305 2,4 C2,4.74025244 2.40216612,5.38657394 2.99992752,5.73239368 L3,10 L2,10 C0.8954305,10 -8.67738547e-17,9.1045695 0,8 L0,2 C-1.3527075e-16,0.8954305 0.8954305,2.02906125e-16 2,0 L18,0 Z" id="形状结合" fill="#3165D2"></path>
        </g>
    </g>
</svg>