<?xml version="1.0" encoding="UTF-8"?>
<svg width="24px" height="24px" viewBox="0 0 24 24" version="1.1" xmlns="http://www.w3.org/2000/svg" xmlns:xlink="http://www.w3.org/1999/xlink">
    <title>1.Bace基础/3.Icon图标/反馈/help-circle</title>
    <g id="页面-1" stroke="none" stroke-width="1" fill="none" fill-rule="evenodd">
        <g id="03" transform="translate(-3364.000000, -1327.000000)">
            <g id="1.Bace基础/3.Icon图标/反馈/help-circle" transform="translate(3364.000000, 1327.000000)">
                <path d="M0,0 L24,0 L24,24 L0,24 L0,0 Z" id="help-circle-(Background)"></path>
                <path d="M11.9998505,16.5 C12.4969075,16.5 12.8998504,16.9029408 12.8998504,17.3999977 C12.8998504,17.8970532 12.4969075,18.2999969 11.9998505,18.2999969 C11.5027943,18.2999969 11.0998507,17.8970532 11.0998507,17.3999977 C11.0998507,16.9029408 11.5027943,16.5 11.9998505,16.5 Z M8.3624239,9.6466527 L9.8624239,9.6466527 C9.8624239,8.46861577 10.8218873,7.50915241 11.9999242,7.50915241 C13.1779604,7.50915241 14.1374245,8.46861577 14.1374245,9.6466527 C14.1374245,10.4532738 13.4706917,11.2621164 12.6004643,11.6156473 L12.596632,11.6172166 C11.802309,11.9450319 11.2499971,12.7261884 11.2499971,13.6387482 L11.2499971,15 L12.7499971,15 L12.7499971,13.6387482 C12.7499971,13.3474145 12.9229631,13.1059692 13.1673317,13.0044115 C14.4083233,12.49933 15.6374245,11.2480416 15.6374245,9.6466527 C15.6374245,7.64018869 14.0063882,6.00915205 11.9999242,6.00915205 C9.99346018,6.00915205 8.3624239,7.64018869 8.3624239,9.6466527 Z M12,1.5 C6.20101368,1.5 1.5,6.20100689 1.5,12 C1.5,17.7989874 6.20100725,22.5 12,22.5 C17.7989874,22.5 22.5,17.7989931 22.5,12 C22.5,6.20101333 17.7989931,1.5 12,1.5 Z M12,3 C7.0294404,3 3,7.02943504 3,12 C3,16.970561 7.02943468,21 12,21 C16.9705596,21 21,16.9705653 21,12 C21,7.02944076 16.9705653,3 12,3 Z" id="Union" fill="#BFBFBF"></path>
            </g>
        </g>
    </g>
</svg>