<?xml version="1.0" encoding="UTF-8"?>
<svg width="20px" height="20px" viewBox="0 0 20 20" version="1.1" xmlns="http://www.w3.org/2000/svg" xmlns:xlink="http://www.w3.org/1999/xlink">
    <title>互助社数量</title>
    <g id="工作台首页" stroke="none" stroke-width="1" fill="none" fill-rule="evenodd">
        <g id="互助社数量" transform="translate(0.000000, 0.000000)">
            <polygon id="路径" fill-opacity="0" fill="#707070" fill-rule="nonzero" points="0 0 20 0 20 20 0 20"></polygon>
            <path d="M14,1 C17.3137085,1 20,3.6862915 20,7 C20,8.83995547 19.1717925,10.4864727 17.8678367,11.5870925 L10,19 L2.09725226,11.5573976 C0.813442862,10.4569724 0,8.82348107 0,7 C0,3.6862915 2.6862915,1 6,1 C7.08659061,1 8.10571917,1.2888394 8.98479433,1.79392686 L5.76776695,5.01040764 C4.40093193,6.37724266 4.40093193,8.59332009 5.76776695,9.96015511 C7.13460197,11.3269901 9.3506794,11.3269901 10.7175144,9.96015511 L14.3388348,6.33883476 C14.7293591,5.94831047 14.7293591,5.31514549 14.3388348,4.9246212 C13.9483105,4.53409691 13.3151455,4.53409691 12.9246212,4.9246212 L9.30330086,8.54594155 C8.71751442,9.13172798 7.76776695,9.13172798 7.18198052,8.54594155 C6.59619408,7.96015511 6.59619408,7.01040764 7.18198052,6.4246212 L12.3867272,1.21942587 C12.9000261,1.07642062 13.4410886,1 14,1 Z" id="形状结合" fill="#3165D2"></path>
        </g>
    </g>
</svg>