<?xml version="1.0" encoding="UTF-8"?>
<svg width="20px" height="20px" viewBox="0 0 20 20" version="1.1" xmlns="http://www.w3.org/2000/svg" xmlns:xlink="http://www.w3.org/1999/xlink">
    <title>跨区域情况</title>
    <g id="工作台首页" stroke="none" stroke-width="1" fill="none" fill-rule="evenodd">
        <g id="跨区域情况">
            <rect id="矩形" x="0" y="0" width="20" height="20"></rect>
            <path d="M17,0 C18.1045695,-2.02906125e-16 19,0.8954305 19,2 L19,18 C19,19.1045695 18.1045695,20 17,20 L3,20 C1.8954305,20 1,19.1045695 1,18 L1,2 C1,0.8954305 1.8954305,-1.91384796e-17 3,0 L17,0 Z M7.88461538,10.3 L6.04166667,10.3 C4.80362835,10.3 3.8,11.3036284 3.8,12.5416667 C3.8,13.779705 4.80362835,14.7833333 6.04166667,14.7833333 L14.0416667,14.7833333 C14.4604826,14.7833333 14.8,15.1228507 14.8,15.5416667 C14.8,15.9604826 14.4604826,16.3 14.0416667,16.3 L12.5384615,16.3 C12.1518622,16.3 11.8384615,16.6134007 11.8384615,17 C11.8384615,17.3865993 12.1518622,17.7 12.5384615,17.7 L14.0416667,17.7 C15.2336813,17.7 16.2,16.7336813 16.2,15.5416667 C16.2,14.3496521 15.2336813,13.3833333 14.0416667,13.3833333 L6.04166667,13.3833333 C5.576827,13.3833333 5.2,13.0065063 5.2,12.5416667 C5.2,12.076827 5.576827,11.7 6.04166667,11.7 L7.88461538,11.7 C8.27121471,11.7 8.58461538,11.3865993 8.58461538,11 C8.58461538,10.6134007 8.27121471,10.3 7.88461538,10.3 Z M13,2 C10.790861,2 9,3.72198173 9,5.84615385 C9,7.26226859 10.3333333,9.31355064 13,12 C15.6666667,9.31355064 17,7.26226859 17,5.84615385 C17,3.72198173 15.209139,2 13,2 Z M13,4 C13.8284271,4 14.5,4.67157288 14.5,5.5 C14.5,6.32842712 13.8284271,7 13,7 C12.1715729,7 11.5,6.32842712 11.5,5.5 C11.5,4.67157288 12.1715729,4 13,4 Z" id="形状结合" fill="#3165D2"></path>
        </g>
    </g>
</svg>