<?xml version="1.0" encoding="UTF-8"?>
<svg width="30px" height="30px" viewBox="0 0 30 30" version="1.1" xmlns="http://www.w3.org/2000/svg" xmlns:xlink="http://www.w3.org/1999/xlink">
    <title>历年累计</title>
    <g id="工作台首页" stroke="none" stroke-width="1" fill="none" fill-rule="evenodd">
        <g id="历年累计">
            <rect id="矩形" x="0" y="0" width="30" height="30"></rect>
            <path d="M27,2 C28.6568542,2 30,3.34314575 30,5 L30,25 C30,26.6568542 28.6568542,28 27,28 L3,28 C1.34314575,28 0,26.6568542 0,25 L0,5 C0,3.34314575 1.34314575,2 3,2 Z M27,4 L3,4 C2.44771525,4 2,4.44771525 2,5 L2,25 C2,25.5522847 2.44771525,26 3,26 L27,26 C27.5522847,26 28,25.5522847 28,25 L28,5 C28,4.44771525 27.5522847,4 27,4 Z M6,19 C6.55228475,19 7,19.4477153 7,20 L7,23 C7,23.5522847 6.55228475,24 6,24 C5.44771525,24 5,23.5522847 5,23 L5,20 C5,19.4477153 5.44771525,19 6,19 Z M12,16 C12.5522847,16 13,16.4477153 13,17 L13,23 C13,23.5522847 12.5522847,24 12,24 C11.4477153,24 11,23.5522847 11,23 L11,17 C11,16.4477153 11.4477153,16 12,16 Z M18,12 C18.5522847,12 19,12.4477153 19,13 L19,23 C19,23.5522847 18.5522847,24 18,24 C17.4477153,24 17,23.5522847 17,23 L17,13 C17,12.4477153 17.4477153,12 18,12 Z M24,9 C24.5522847,9 25,9.44771525 25,10 L25,23 C25,23.5522847 24.5522847,24 24,24 C23.4477153,24 23,23.5522847 23,23 L23,10 C23,9.44771525 23.4477153,9 24,9 Z M6.21,4.8 C6.35666667,4.8 6.475,4.85666667 6.565,4.97 C6.655,5.08333333 6.68333333,5.21 6.65,5.35 L6.56,5.68 L11.27,5.68 C11.3966667,5.68 11.5033333,5.72333333 11.59,5.81 C11.6766667,5.89666667 11.72,6.00333333 11.72,6.13 C11.72,6.25666667 11.6766667,6.36333333 11.59,6.45 C11.5033333,6.53666667 11.3966667,6.58 11.27,6.58 L8.98,6.58 L8.98,7.97 L11.07,7.97 C11.1966667,7.97 11.3033333,8.01333333 11.39,8.1 C11.4766667,8.18666667 11.52,8.29333333 11.52,8.42 C11.52,8.54666667 11.4766667,8.65333333 11.39,8.74 C11.3033333,8.82666667 11.1966667,8.87 11.07,8.87 L8.98,8.87 L8.98,10.53 L11.68,10.53 C11.8066667,10.53 11.9133333,10.5733333 12,10.66 C12.0866667,10.7466667 12.13,10.8533333 12.13,10.98 C12.13,11.1066667 12.0866667,11.2133333 12,11.3 C11.9133333,11.3866667 11.8066667,11.43 11.68,11.43 L8.98,11.43 L8.98,13.75 C8.98,13.8766667 8.93666667,13.9833333 8.85,14.07 C8.76333333,14.1566667 8.65666667,14.2 8.53,14.2 C8.40333333,14.2 8.29666667,14.1566667 8.21,14.07 C8.12333333,13.9833333 8.08,13.8766667 8.08,13.75 L8.08,11.43 L4.32,11.43 C4.19333333,11.43 4.08666667,11.3866667 4,11.3 C3.91333333,11.2133333 3.87,11.1066667 3.87,10.98 C3.87,10.8533333 3.91333333,10.7466667 4,10.66 C4.08666667,10.5733333 4.19333333,10.53 4.32,10.53 L5.37,10.53 L5.37,8.42 C5.37,8.29333333 5.41333333,8.18666667 5.5,8.1 C5.58666667,8.01333333 5.69333333,7.97 5.82,7.97 L8.08,7.97 L8.08,6.58 L6.19,6.58 C5.99,6.98 5.76333333,7.35 5.51,7.69 C5.25666667,8.03 5.01,8.29333333 4.77,8.48 C4.68333333,8.54666667 4.59,8.58 4.49,8.58 C4.36333333,8.58 4.25666667,8.53666667 4.17,8.45 C4.08333333,8.36333333 4.04,8.25666667 4.04,8.13 C4.04,8.05666667 4.055,7.99 4.085,7.93 C4.115,7.87 4.15666667,7.82 4.21,7.78 C4.35666667,7.66 4.51,7.50166667 4.67,7.305 C4.83,7.10833333 4.98166667,6.89166667 5.125,6.655 C5.26833333,6.41833333 5.39666667,6.17 5.51,5.91 C5.62333333,5.65 5.71,5.39666667 5.77,5.15 C5.79666667,5.05 5.85,4.96666667 5.93,4.9 C6.01,4.83333333 6.10333333,4.8 6.21,4.8 Z M8.08,8.87 L6.27,8.87 L6.27,10.53 L8.08,10.53 L8.08,8.87 Z" id="形状结合" fill="#FF921F" fill-rule="nonzero"></path>
        </g>
    </g>
</svg>