<?xml version="1.0" encoding="UTF-8"?>
<svg width="16px" height="16px" viewBox="0 0 16 16" version="1.1" xmlns="http://www.w3.org/2000/svg" xmlns:xlink="http://www.w3.org/1999/xlink">
    <title>消息</title>
    <g id="页面-1" stroke="none" stroke-width="1" fill="none" fill-rule="evenodd">
        <g id="消息" transform="translate(-0.000000, 0.000000)">
            <rect id="矩形" x="0" y="0" width="16" height="16"></rect>
            <path d="M13,1.3 C14.4911688,1.3 15.7,2.50883118 15.7,4 L15.7,11 C15.7,12.4911688 14.4911688,13.7 13,13.7 L8.788,13.7 L6.99497475,15.4949747 C6.74894444,15.7410051 6.36533687,15.7656081 6.09179111,15.5687838 L6.00502525,15.4949747 C5.73165825,15.2216077 5.73165825,14.7783923 6.00502525,14.5050253 L8.00502525,12.5050253 C8.13630072,12.3737498 8.31434846,12.3 8.5,12.3 L13,12.3 C13.7179702,12.3 14.3,11.7179702 14.3,11 L14.3,4 C14.3,3.28202983 13.7179702,2.7 13,2.7 L3,2.7 C2.28202983,2.7 1.7,3.28202983 1.7,4 L1.7,11 C1.7,11.7179702 2.28202983,12.3 3,12.3 L5,12.3 C5.38659932,12.3 5.7,12.6134007 5.7,13 C5.7,13.3865993 5.38659932,13.7 5,13.7 L3,13.7 C1.50883118,13.7 0.3,12.4911688 0.3,11 L0.3,4 C0.3,2.50883118 1.50883118,1.3 3,1.3 L13,1.3 Z M4,6.5 C4.55228475,6.5 5,6.94771525 5,7.5 C5,8.05228475 4.55228475,8.5 4,8.5 C3.44771525,8.5 3,8.05228475 3,7.5 C3,6.94771525 3.44771525,6.5 4,6.5 Z M8,6.5 C8.55228475,6.5 9,6.94771525 9,7.5 C9,8.05228475 8.55228475,8.5 8,8.5 C7.44771525,8.5 7,8.05228475 7,7.5 C7,6.94771525 7.44771525,6.5 8,6.5 Z M12,6.5 C12.5522847,6.5 13,6.94771525 13,7.5 C13,8.05228475 12.5522847,8.5 12,8.5 C11.4477153,8.5 11,8.05228475 11,7.5 C11,6.94771525 11.4477153,6.5 12,6.5 Z" id="形状结合" fill="#313131" fill-rule="nonzero"></path>
        </g>
    </g>
</svg>