<?xml version="1.0" encoding="UTF-8"?>
<svg width="16px" height="16px" viewBox="0 0 16 16" version="1.1" xmlns="http://www.w3.org/2000/svg" xmlns:xlink="http://www.w3.org/1999/xlink">
    <title>办公室</title>
    <g id="页面-1" stroke="none" stroke-width="1" fill="none" fill-rule="evenodd">
        <g id="办公室">
            <rect id="矩形" x="0" y="0" width="16" height="16"></rect>
            <path d="M14,5.3 L2,5.3 C1.06111593,5.3 0.3,6.06111593 0.3,7 L0.3,14 C0.3,14.9388841 1.06111593,15.7 2,15.7 L14,15.7 C14.9388841,15.7 15.7,14.9388841 15.7,14 L15.7,7 C15.7,6.06111593 14.9388841,5.3 14,5.3 Z M14,6.7 C14.1656854,6.7 14.3,6.83431458 14.3,7 L14.3,14 C14.3,14.1656854 14.1656854,14.3 14,14.3 L2,14.3 C1.83431458,14.3 1.7,14.1656854 1.7,14 L1.7,7 C1.7,6.83431458 1.83431458,6.7 2,6.7 L14,6.7 Z M14,2.8 C14.3865993,2.8 14.7,3.11340068 14.7,3.5 C14.7,3.88659932 14.3865993,4.2 14,4.2 L2,4.2 C1.61340068,4.2 1.3,3.88659932 1.3,3.5 C1.3,3.11340068 1.61340068,2.8 2,2.8 L14,2.8 Z M12,0.3 C12.3865993,0.3 12.7,0.613400675 12.7,1 C12.7,1.38659932 12.3865993,1.7 12,1.7 L4,1.7 C3.61340068,1.7 3.3,1.38659932 3.3,1 C3.3,0.613400675 3.61340068,0.3 4,0.3 L12,0.3 Z" id="形状结合" fill="#313131" fill-rule="nonzero"></path>
        </g>
    </g>
</svg>