<?xml version="1.0" encoding="UTF-8"?>
<svg width="20px" height="20px" viewBox="0 0 20 20" version="1.1" xmlns="http://www.w3.org/2000/svg" xmlns:xlink="http://www.w3.org/1999/xlink">
    <title>企业信息</title>
    <g id="工作台首页" stroke="none" stroke-width="1" fill="none" fill-rule="evenodd">
        <g id="企业信息" transform="translate(0.000000, 0.000000)">
            <rect id="矩形" x="0" y="0" width="20" height="20"></rect>
            <path d="M11,2 C12.1045695,2 13,2.8954305 13,4 L13,8 L18,8 C18.5522847,8 19,8.44771525 19,9 L19,17 C19.5522847,17 20,17.4477153 20,18 C20,18.5522847 19.5522847,19 19,19 L1,19 C0.44771525,19 -1.5440923e-16,18.5522847 0,18 C-6.76353751e-17,17.4477153 0.44771525,17 1,17 L1,4 C1,2.8954305 1.8954305,2 3,2 L11,2 Z M10.25,13 L3.75,13 C3.33578644,13 3,13.3357864 3,13.75 C3,14.1642136 3.33578644,14.5 3.75,14.5 L10.25,14.5 C10.6642136,14.5 11,14.1642136 11,13.75 C11,13.3357864 10.6642136,13 10.25,13 Z M17.25,12 L14.75,12 C14.3357864,12 14,12.3357864 14,12.75 C14,13.1642136 14.3357864,13.5 14.75,13.5 L17.25,13.5 C17.6642136,13.5 18,13.1642136 18,12.75 C18,12.3357864 17.6642136,12 17.25,12 Z M10.25,9 L3.75,9 C3.33578644,9 3,9.33578644 3,9.75 C3,10.1642136 3.33578644,10.5 3.75,10.5 L10.25,10.5 C10.6642136,10.5 11,10.1642136 11,9.75 C11,9.33578644 10.6642136,9 10.25,9 Z M10.25,5 L3.75,5 C3.33578644,5 3,5.33578644 3,5.75 C3,6.16421356 3.33578644,6.5 3.75,6.5 L10.25,6.5 C10.6642136,6.5 11,6.16421356 11,5.75 C11,5.33578644 10.6642136,5 10.25,5 Z" id="形状结合" fill="#3165D2"></path>
        </g>
    </g>
</svg>