<?xml version="1.0" encoding="UTF-8"?>
<svg width="21px" height="21px" viewBox="0 0 21 21" version="1.1" xmlns="http://www.w3.org/2000/svg" xmlns:xlink="http://www.w3.org/1999/xlink">
    <title>融资担保放大倍数</title>
    <g id="工作台首页" stroke="none" stroke-width="1" fill="none" fill-rule="evenodd">
        <g id="融资担保放大倍数" transform="translate(0.000000, 0.000000)">
            <rect id="矩形" x="0" y="0" width="20" height="20"></rect>
            <g id="编组-10">
                <path d="M7,0 C10.8659932,0 14,3.13400675 14,7 C14,10.8659932 10.8659932,14 7,14 C3.13400675,14 0,10.8659932 0,7 C0,3.13400675 3.13400675,0 7,0 Z M7,3 C6.44771525,3 6,3.44771525 6,4 L6,6 L4,6 C3.44771525,6 3,6.44771525 3,7 C3,7.55228475 3.44771525,8 4,8 L5.999,8 L6,10 C6,10.5522847 6.44771525,11 7,11 C7.55228475,11 8,10.5522847 8,10 L8,8 L10,8 C10.5522847,8 11,7.55228475 11,7 C11,6.44771525 10.5522847,6 10,6 L8,6 L8,4 C8,3.44771525 7.55228475,3 7,3 Z" id="形状结合" fill="#3165D2"></path>
                <line x1="10.7970831" y1="10.9986418" x2="14" y2="14" id="路径-45" stroke="#3165D2" stroke-width="1.45141972"></line>
                <path d="M16.1319167,13.0151955 C16.927442,13.0069725 17.5790089,13.6452071 17.5872319,14.4407324 C17.587333,14.4505108 17.5873345,14.46029 17.5872364,14.4700684 L17.5421082,18.9696089 L17.5421082,18.9696089 L14.6019805,19 L14.6471088,14.5004595 C14.6552998,13.6837651 15.3152249,13.0236374 16.1319167,13.0151955 Z" id="矩形" stroke="#3165D2" stroke-width="1.4" stroke-linejoin="round" transform="translate(16.101981, 16.000000) rotate(-45.000000) translate(-16.101981, -16.000000) "></path>
            </g>
        </g>
    </g>
</svg>