<?xml version="1.0" encoding="UTF-8"?>
<svg width="16px" height="16px" viewBox="0 0 16 16" version="1.1" xmlns="http://www.w3.org/2000/svg" xmlns:xlink="http://www.w3.org/1999/xlink">
    <title>搜索</title>
    <g id="页面-1" stroke="none" stroke-width="1" fill="none" fill-rule="evenodd">
        <g id="搜索" transform="translate(-0.000000, 0.000000)">
            <rect id="矩形" x="0" y="0" width="16" height="16"></rect>
            <path d="M7.5,0.3 C11.4764502,0.3 14.7,3.5235498 14.7,7.5 C14.7,9.23637393 14.0853473,10.829188 13.0617513,12.0727328 L15.4949747,14.5050253 C15.7683418,14.7783923 15.7683418,15.2216077 15.4949747,15.4949747 C15.2216077,15.7683418 14.7783923,15.7683418 14.5050253,15.4949747 L12.0727328,13.0617513 C10.829188,14.0853473 9.23637393,14.7 7.5,14.7 C3.5235498,14.7 0.3,11.4764502 0.3,7.5 C0.3,3.5235498 3.5235498,0.3 7.5,0.3 Z M7.5,1.7 C4.29674845,1.7 1.7,4.29674845 1.7,7.5 C1.7,10.7032515 4.29674845,13.3 7.5,13.3 C10.7032515,13.3 13.3,10.7032515 13.3,7.5 C13.3,4.29674845 10.7032515,1.7 7.5,1.7 Z M7.25,2.55 C7.63659932,2.55 7.95,2.86340068 7.95,3.25 C7.95,3.63659932 7.63659932,3.95 7.25,3.95 C5.42746033,3.95 3.95,5.42746033 3.95,7.25 C3.95,7.63659932 3.63659932,7.95 3.25,7.95 C2.86340068,7.95 2.55,7.63659932 2.55,7.25 C2.55,4.65426168 4.65426168,2.55 7.25,2.55 Z" id="形状结合" fill="#313131" fill-rule="nonzero"></path>
        </g>
    </g>
</svg>