<?xml version="1.0" encoding="UTF-8"?>
<svg width="20px" height="20px" viewBox="0 0 20 20" version="1.1" xmlns="http://www.w3.org/2000/svg" xmlns:xlink="http://www.w3.org/1999/xlink">
    <title>投放额</title>
    <g id="工作台首页" stroke="none" stroke-width="1" fill="none" fill-rule="evenodd">
        <g id="投放额">
            <rect id="矩形" x="0" y="0" width="20" height="20"></rect>
            <path d="M19.8408787,1.00776845 L17.1155927,18.2679128 C17.0725248,18.540676 16.8164932,18.7268809 16.5437299,18.683813 C16.4803485,18.6738054 16.4194858,18.6516915 16.3644634,18.618678 L12.2981173,16.1788704 C12.1189048,16.0713429 11.8917203,16.0866237 11.7285219,16.2171825 L7.81234752,19.350122 C7.59671656,19.5226268 7.28207037,19.4876661 7.1095656,19.2720351 C7.03864038,19.1833786 7,19.0732233 7,18.9596876 L7,15.191868 C7,15.0683471 7.04572181,14.949198 7.12835293,14.8573856 L16,5 L16,5 L5.22335569,12.8375595 C5.08434976,12.9386547 4.90316151,12.9612646 4.7435745,12.8974298 L0.981833179,11.3927333 C0.72544142,11.2901766 0.600733468,10.9991913 0.703290172,10.7427996 C0.74626601,10.63536 0.825176955,10.5461527 0.926569142,10.490387 L19.1060378,0.491679205 C19.3479982,0.358601017 19.6520269,0.446867443 19.7851051,0.688827785 C19.8385568,0.786012566 19.8581771,0.898211512 19.8408787,1.00776845 Z" id="路径-45" fill="#3165D2"></path>
        </g>
    </g>
</svg>