<?xml version="1.0" encoding="UTF-8"?>
<svg width="20px" height="20px" viewBox="0 0 20 20" version="1.1" xmlns="http://www.w3.org/2000/svg" xmlns:xlink="http://www.w3.org/1999/xlink">
    <title>通知公告未选中</title>
    <g id="页面-1" stroke="none" stroke-width="1" fill="none" fill-rule="evenodd">
        <g id="通知公告未选中">
            <rect id="矩形" x="0" y="0" width="20" height="20"></rect>
            <path d="M10.7071068,0.292893219 L15.7071068,5.29289322 C15.9024951,5.48828158 16.0001262,5.74440857 15.9999999,6.00049629 L18,6 C19.1045695,6 20,6.8954305 20,8 L20,18 C20,19.1045695 19.1045695,20 18,20 L2,20 C0.8954305,20 -3.0881846e-16,19.1045695 0,18 L0,8 C-1.3527075e-16,6.8954305 0.8954305,6 2,6 L4.00000012,6.00049629 C3.99987382,5.74440857 4.09750485,5.48828158 4.29289322,5.29289322 L9.29289322,0.292893219 C9.68341751,-0.0976310729 10.3165825,-0.0976310729 10.7071068,0.292893219 Z M13.5,15 L3,15 C2.44771525,15 2,15.4477153 2,16 C2,16.5522847 2.44771525,17 3,17 L13.5,17 C14.0522847,17 14.5,16.5522847 14.5,16 C14.5,15.4477153 14.0522847,15 13.5,15 Z M16.5,10.5 L3,10.5 C2.44771525,10.5 2,10.9477153 2,11.5 C2,12.0522847 2.44771525,12.5 3,12.5 L16.5,12.5 C17.0522847,12.5 17.5,12.0522847 17.5,11.5 C17.5,10.9477153 17.0522847,10.5 16.5,10.5 Z M10,2.415 L6.414,6 L13.585,6 L10,2.415 Z" id="形状结合" fill="#7E7E7E"></path>
        </g>
    </g>
</svg>