<?xml version="1.0" encoding="UTF-8"?>
<svg width="16px" height="16px" viewBox="0 0 16 16" version="1.1" xmlns="http://www.w3.org/2000/svg" xmlns:xlink="http://www.w3.org/1999/xlink">
    <title>用户</title>
    <g id="页面-1" stroke="none" stroke-width="1" fill="none" fill-rule="evenodd">
        <g id="用户">
            <rect id="矩形" x="0" y="0" width="16" height="16"></rect>
            <path d="M11,8.8 C13.5957383,8.8 15.7,10.9042617 15.7,13.5 L15.7,15 C15.7,15.3865993 15.3865993,15.7 15,15.7 C14.6134007,15.7 14.3,15.3865993 14.3,15 L14.3,13.5 C14.3,11.6774603 12.8225397,10.2 11,10.2 L5,10.2 C3.17746033,10.2 1.7,11.6774603 1.7,13.5 L1.7,15 C1.7,15.3865993 1.38659932,15.7 1,15.7 C0.613400675,15.7 0.3,15.3865993 0.3,15 L0.3,13.5 C0.3,10.9042617 2.40426168,8.8 5,8.8 L11,8.8 Z M8,0.3 C8.54076392,0.3 9.0664077,0.416531917 9.54787991,0.638537414 C9.89895532,0.800417303 10.0523286,1.21624973 9.8904487,1.56732513 C9.72856881,1.91840054 9.31273638,2.07177381 8.96166098,1.90989392 C8.6630776,1.77221796 8.33732205,1.7 8,1.7 C6.72974508,1.7 5.7,2.72974508 5.7,4 C5.7,5.27025492 6.72974508,6.3 8,6.3 C9.12818353,6.3 10.0851309,5.48182303 10.2685407,4.38195716 C10.3321306,4.00062349 10.6928124,3.74304126 11.074146,3.80663113 C11.4554797,3.87022101 11.7130619,4.23090281 11.6494721,4.61223647 C11.3539459,6.38443805 9.81525247,7.7 8,7.7 C5.95654643,7.7 4.3,6.04345357 4.3,4 C4.3,1.95654643 5.95654643,0.3 8,0.3 Z M10.7,2 C11.0865993,2 11.4,2.31340068 11.4,2.7 C11.4,3.08659932 11.0865993,3.4 10.7,3.4 C10.3134007,3.4 10,3.08659932 10,2.7 C10,2.31340068 10.3134007,2 10.7,2 Z" id="形状结合" fill="#313131" fill-rule="nonzero"></path>
        </g>
    </g>
</svg>