<?xml version="1.0" encoding="UTF-8"?>
<svg width="20px" height="20px" viewBox="0 0 20 20" version="1.1" xmlns="http://www.w3.org/2000/svg" xmlns:xlink="http://www.w3.org/1999/xlink">
    <title>新增收购</title>
    <g id="工作台首页" stroke="none" stroke-width="1" fill="none" fill-rule="evenodd">
        <g id="新增收购" transform="translate(0.000000, 0.000000)">
            <rect id="矩形" x="0" y="0.00460088592" width="20" height="20"></rect>
            <path d="M13.2634713,5.93307767 C15.0054684,5.93307767 16.5492932,7.05492229 17.0873327,8.71174674 L19.9001627,17.3735002 C20.243067,18.4294304 19.6650453,19.5634097 18.6091151,19.906314 C18.4085889,19.9714331 18.1990667,20.0046009 17.988232,20.0046009 L2.01084229,20.0046009 C0.900629769,20.0046009 0.000624691652,19.1045958 0.000624691652,17.9943833 C0.000624691652,17.8283941 0.021183665,17.6630439 0.0618321176,17.5021088 L2.21710524,8.96896396 C2.66799348,7.18380988 4.27390989,5.93307767 6.1151256,5.93307767 L13.2634713,5.93307767 Z M10.0006247,9 C7.79148569,9 6.00062469,10.790861 6.00062469,13 C6.00062469,15.209139 7.79148569,17 10.0006247,17 C12.2097637,17 14.0006247,15.209139 14.0006247,13 C14.0006247,10.790861 12.2097637,9 10.0006247,9 Z M7.06779128,0.0464199938 L10.5999096,1.15881086 L13.3102305,0.115549635 C13.8282833,-0.0838601123 14.4099016,0.174451129 14.6093114,0.692503941 C14.6865463,0.893155068 14.6974047,1.11328501 14.6402917,1.32056312 L13.849692,4.18985596 C13.7295492,4.62588573 13.3329731,4.92796886 12.8806941,4.92796886 L7.97179333,4.92796886 C7.56498163,4.92796886 7.19828572,4.68274521 7.04289651,4.30677985 L5.83696887,1.3890288 C5.62493583,0.87601325 5.86893036,0.288245236 6.38194591,0.0762121947 C6.59997958,-0.013902699 6.84276469,-0.0244489581 7.06779128,0.0464199938 Z" id="形状结合" fill="#3165D2"></path>
            <path d="M10,10.0046009 C10.4875472,10.0046009 10.8827822,10.3998359 10.8827822,10.8873831 C10.8827822,10.9239877 10.8805055,10.9605568 10.8759653,10.9968788 L10.5620174,13.5084619 C10.5265876,13.7919004 10.2856442,14.0046009 10,14.0046009 C9.71435578,14.0046009 9.47341244,13.7919004 9.43798263,13.5084619 L9.12403473,10.9968788 C9.06356195,10.5130965 9.40672208,10.0718906 9.89050434,10.0114178 C9.92682626,10.0068776 9.96339541,10.0046009 10,10.0046009 Z" id="路径-61" fill="#3165D2"></path>
            <circle id="椭圆形" fill="#3165D2" cx="10" cy="15.2546009" r="1"></circle>
        </g>
    </g>
</svg>