<?xml version="1.0" encoding="UTF-8"?>
<svg width="20px" height="20px" viewBox="0 0 20 20" version="1.1" xmlns="http://www.w3.org/2000/svg" xmlns:xlink="http://www.w3.org/1999/xlink">
    <title>新增担保额</title>
    <g id="工作台首页" stroke="none" stroke-width="1" fill="none" fill-rule="evenodd">
        <g id="新增担保额" transform="translate(0.000000, 0.000000)">
            <rect id="矩形" x="0" y="0" width="20" height="20"></rect>
            <g id="编组-15" transform="translate(1.000000, 1.000000)" fill="#7E7E7E">
                <path d="M13.5,8.5 C16.2614237,8.5 18.5,10.7385763 18.5,13.5 C18.5,16.2614237 16.2614237,18.5 13.5,18.5 C10.7385763,18.5 8.5,16.2614237 8.5,13.5 C8.5,10.7385763 10.7385763,8.5 13.5,8.5 Z M14.4,0 C15.2836556,-1.623249e-16 16,0.7163444 16,1.6 L16.0010289,8.48815262 C15.2482641,8.11177524 14.3988634,7.9 13.5,7.9 C10.4072054,7.9 7.9,10.4072054 7.9,13.5 C7.9,15.3440358 8.79130522,16.9798961 10.166609,18.0002743 L1.6,18 C0.7163444,18 -3.3587261e-16,17.2836556 0,16.4 L0,1.6 C-1.082166e-16,0.7163444 0.7163444,3.84369505e-16 1.6,0 L14.4,0 Z M13.5,10.3 C13.1134007,10.3 12.8,10.6134007 12.8,11 L12.799,13 L11,13 C10.6134007,13 10.3,13.3134007 10.3,13.7 C10.3,14.0865993 10.6134007,14.4 11,14.4 L12.799,14.4 L12.8,16 C12.8,16.3865993 13.1134007,16.7 13.5,16.7 C13.8865993,16.7 14.2,16.3865993 14.2,16 L14.199,14.4 L16,14.4 C16.3865993,14.4 16.7,14.0865993 16.7,13.7 C16.7,13.3134007 16.3865993,13 16,13 L14.199,13 L14.2,11 C14.2,10.6134007 13.8865993,10.3 13.5,10.3 Z M7.83431458,1.83431458 L5.50602358,4.16520255 C5.36250103,4.03774217 5.19561035,3.89086513 5.00511851,3.72435737 L2.85555396,1.86852038 C2.56202587,1.61692487 2.12011588,1.65091795 1.86852038,1.94444604 C1.61692487,2.23797413 1.65091795,2.67988412 1.94444604,2.93147962 C2.67363649,3.55650001 3.28162041,4.08061303 3.76554173,4.50119529 L2.4,4.5 C2.01340068,4.5 1.7,4.81340068 1.7,5.2 C1.7,5.58659932 2.01340068,5.9 2.4,5.9 L4.9,5.9 L4.9,7.699 L2.4,7.7 C2.04561729,7.7 1.75274177,7.96334362 1.70639017,8.30501415 L1.7,8.4 C1.7,8.78659932 2.01340068,9.1 2.4,9.1 L4.9,9.099 L4.9,12 C4.9,12.3543827 5.16334362,12.6472582 5.50501415,12.6936098 L5.6,12.7 C5.98659932,12.7 6.3,12.3865993 6.3,12 L6.3,9.099 L8.8,9.1 C9.15438271,9.1 9.44725823,8.83665638 9.49360983,8.49498585 L9.5,8.4 C9.5,8.01340068 9.18659932,7.7 8.8,7.7 L6.3,7.699 L6.3,5.9 L8.8,5.9 C9.15438271,5.9 9.44725823,5.63665638 9.49360983,5.29498585 L9.5,5.2 C9.5,4.81340068 9.18659932,4.5 8.8,4.5 L7.43,4.5 L8.96568542,2.96568542 C9.24970309,2.68166776 9.27552288,2.2372265 9.04314479,1.9240409 L8.96568542,1.83431458 C8.65326599,1.52189514 8.14673401,1.52189514 7.83431458,1.83431458 Z" id="形状结合"></path>
            </g>
        </g>
    </g>
</svg>