<?xml version="1.0" encoding="UTF-8"?>
<svg width="20px" height="20px" viewBox="0 0 20 20" version="1.1" xmlns="http://www.w3.org/2000/svg" xmlns:xlink="http://www.w3.org/1999/xlink">
    <title>需求情况</title>
    <g id="页面-1" stroke="none" stroke-width="1" fill="none" fill-rule="evenodd">
        <g id="1-2信息中心技术员首页备份" transform="translate(-1128.000000, -1588.000000)">
            <g id="编组-15" transform="translate(1098.000000, 1568.000000)">
                <g id="需求情况" transform="translate(30.000000, 20.000000)">
                    <rect id="矩形" x="0" y="0" width="20" height="20"></rect>
                    <path d="M14,0 C15.1045695,-2.02906125e-16 16,0.8954305 16,2 L16,18 C16,19.1045695 15.1045695,20 14,20 L2,20 C0.8954305,20 1.3527075e-16,19.1045695 0,18 L0,2 C-1.3527075e-16,0.8954305 0.8954305,-2.41183085e-16 2,0 L14,0 Z M12,13 L4,13 C3.44771525,13 3,13.4477153 3,14 C3,14.5522847 3.44771525,15 4,15 L12,15 C12.5522847,15 13,14.5522847 13,14 C13,13.4477153 12.5522847,13 12,13 Z M12,9 L4,9 C3.44771525,9 3,9.44771525 3,10 C3,10.5522847 3.44771525,11 4,11 L12,11 C12.5522847,11 13,10.5522847 13,10 C13,9.44771525 12.5522847,9 12,9 Z M12,5 L4,5 C3.44771525,5 3,5.44771525 3,6 C3,6.55228475 3.44771525,7 4,7 L12,7 C12.5522847,7 13,6.55228475 13,6 C13,5.44771525 12.5522847,5 12,5 Z M18,9 L19,9 C19.5522847,9 20,9.44771525 20,10 L20,19 C20,19.5522847 19.5522847,20 19,20 L18,20 C17.4477153,20 17,19.5522847 17,19 L17,10 C17,9.44771525 17.4477153,9 18,9 Z" id="形状结合" fill="#3165D2"></path>
                </g>
            </g>
        </g>
    </g>
</svg>