<?xml version="1.0" encoding="UTF-8"?>
<svg width="20px" height="20px" viewBox="0 0 20 20" version="1.1" xmlns="http://www.w3.org/2000/svg" xmlns:xlink="http://www.w3.org/1999/xlink">
    <title>舆情报告</title>
    <g id="页面-1" stroke="none" stroke-width="1" fill="none" fill-rule="evenodd">
        <g id="1-2信息中心首页" transform="translate(-1128.000000, -636.000000)">
            <g id="编组-18" transform="translate(1098.000000, 616.000000)">
                <g id="舆情报告" transform="translate(30.000000, 20.000000)">
                    <rect id="矩形" x="0" y="0" width="20" height="20"></rect>
                    <path d="M5,1 C5,2.1045695 5.8954305,3 7,3 L13,3 C14.1045695,3 15,2.1045695 15,1 L17,1 C18.1045695,1 19,1.8954305 19,3 L19,18 C19,19.1045695 18.1045695,20 17,20 L3,20 C1.8954305,20 1,19.1045695 1,18 L1,3 C1,1.8954305 1.8954305,1 3,1 L5,1 Z M14,14 L6,14 C5.44771525,14 5,14.4477153 5,15 C5,15.5522847 5.44771525,16 6,16 L14,16 C14.5522847,16 15,15.5522847 15,15 C15,14.4477153 14.5522847,14 14,14 Z M14,10 L6,10 C5.44771525,10 5,10.4477153 5,11 C5,11.5522847 5.44771525,12 6,12 L14,12 C14.5522847,12 15,11.5522847 15,11 C15,10.4477153 14.5522847,10 14,10 Z M14,6 L6,6 C5.44771525,6 5,6.44771525 5,7 C5,7.55228475 5.44771525,8 6,8 L14,8 C14.5522847,8 15,7.55228475 15,7 C15,6.44771525 14.5522847,6 14,6 Z M13,0 C13.5522847,-1.01453063e-16 14,0.44771525 14,1 C14,1.55228475 13.5522847,2 13,2 L7,2 C6.44771525,2 6,1.55228475 6,1 C6,0.44771525 6.44771525,1.01453063e-16 7,0 L13,0 Z" id="形状结合" fill="#3165D2"></path>
                </g>
            </g>
        </g>
    </g>
</svg>