<?xml version="1.0" encoding="UTF-8"?>
<svg width="20px" height="20px" viewBox="0 0 20 20" version="1.1" xmlns="http://www.w3.org/2000/svg" xmlns:xlink="http://www.w3.org/1999/xlink">
    <title>业务规模</title>
    <g id="页面-1" stroke="none" stroke-width="1" fill="none" fill-rule="evenodd">
        <g id="业务规模">
            <rect id="矩形" x="0" y="0" width="20" height="20"></rect>
            <path d="M4,11.399 L4,11.8 C4,12.3522847 4.44771525,12.8 5,12.8 C5.55228475,12.8 6,12.3522847 6,11.8 L6,11.399 L14,11.399 L14,11.8 C14,12.3128358 14.3860402,12.7355072 14.8833789,12.7932723 L15,12.8 C15.5522847,12.8 16,12.3522847 16,11.8 L16,11.399 L20,11.4 L20,17 C20,18.1045695 19.1045695,19 18,19 L2,19 C0.8954305,19 -3.0881846e-16,18.1045695 0,17 L0,11.4 L4,11.399 Z M13,1 C14.1045695,1 15,1.8954305 15,3 L15,5 L18,5 C19.1045695,5 20,5.8954305 20,7 L20,10 L16,9.999 L16,9.8 C16,9.28716416 15.6139598,8.86449284 15.1166211,8.80672773 L15,8.8 C14.4477153,8.8 14,9.24771525 14,9.8 L14,9.999 L6,9.999 L6,9.8 C6,9.28716416 5.61395981,8.86449284 5.11662113,8.80672773 L5,8.8 C4.44771525,8.8 4,9.24771525 4,9.8 L4,9.999 L0,10 L0,7 C-1.3527075e-16,5.8954305 0.8954305,5 2,5 L5,5 L5,3 C5,1.8954305 5.8954305,1 7,1 L13,1 Z" id="形状结合" fill="#3165D2"></path>
        </g>
    </g>
</svg>