<?xml version="1.0" encoding="UTF-8"?>
<svg width="20px" height="20px" viewBox="0 0 20 20" version="1.1" xmlns="http://www.w3.org/2000/svg" xmlns:xlink="http://www.w3.org/1999/xlink">
    <title>预警提示</title>
    <g id="工作台首页" stroke="none" stroke-width="1" fill="none" fill-rule="evenodd">
        <g id="预警提示">
            <rect id="矩形" x="0" y="0" width="20" height="20"></rect>
            <path d="M10,4 C13.8659932,4 17,7.13400675 17,11 L17,18 L19,18 C19.5522847,18 20,18.4477153 20,19 C20,19.5522847 19.5522847,20 19,20 L1,20 C0.44771525,20 -1.5440923e-16,19.5522847 0,19 C-6.76353751e-17,18.4477153 0.44771525,18 1,18 L3,18 L3,11 C3,7.13400675 6.13400675,4 10,4 Z M10.5,7 L7,12.5 L10,12.5 L9,17 L13,11 L10,11 L10.5,7 Z M19.7658652,4.69763159 C20.1134293,5.12683746 20.0472455,5.75653389 19.6180397,6.10409795 L18.0637478,7.36273873 L16.805107,5.8084468 L18.3593989,4.54980602 C18.7886048,4.20224197 19.4183012,4.26842573 19.7658652,4.69763159 Z M1.6406011,4.54980602 L3.19489303,5.8084468 L1.93625224,7.36273873 L0.381960321,6.10409795 C-0.0472455418,5.75653389 -0.113429304,5.12683746 0.234134751,4.69763159 C0.581698805,4.26842573 1.21139524,4.20224197 1.6406011,4.54980602 Z M15.4302779,1.24115138 C15.9266681,1.48325708 16.1328064,2.08192633 15.8907007,2.57831658 L15.0139585,4.37590467 L13.2163704,3.49916238 L14.0931127,1.70157428 C14.3352184,1.20518404 14.9338876,0.999045684 15.4302779,1.24115138 Z M5.90688734,1.70157428 L6.78362964,3.49916238 L4.98604154,4.37590467 L4.10929925,2.57831658 C3.86719355,2.08192633 4.0733319,1.48325708 4.56972215,1.24115138 C5.06611239,0.999045684 5.66478164,1.20518404 5.90688734,1.70157428 Z M10,0 C10.5522847,-1.01453063e-16 11,0.44771525 11,1 L11,3 L9,3 L9,1 C9,0.44771525 9.44771525,-2.31613845e-16 10,0 Z" id="形状结合" fill="#3165D2"></path>
        </g>
    </g>
</svg>