<?xml version="1.0" encoding="UTF-8"?>
<svg width="20px" height="20px" viewBox="0 0 20 20" version="1.1" xmlns="http://www.w3.org/2000/svg" xmlns:xlink="http://www.w3.org/1999/xlink">
    <title>预警有效率</title>
    <g id="工作台首页" stroke="none" stroke-width="1" fill="none" fill-rule="evenodd">
        <g id="预警有效率">
            <rect id="矩形" x="0" y="0" width="20" height="20"></rect>
            <path d="M15,6 C17.7614237,6 20,8.23857625 20,11 C20,13.7614237 17.7614237,16 15,16 C12.2385763,16 10,13.7614237 10,11 C10,8.23857625 12.2385763,6 15,6 Z M17,1 C18.1045695,1 19,1.8954305 19,3 L19.0008689,6.52856479 C17.939252,5.57802245 16.5371282,5 15,5 C11.6862915,5 9,7.6862915 9,11 C9,12.5371282 9.57802245,13.939252 10.5285648,15.0008689 L2,15 C0.8954305,15 1.3527075e-16,14.1045695 0,13 L0,3 C-1.3527075e-16,1.8954305 0.8954305,1 2,1 L17,1 Z M15.25,8.5 L13.5,11.25 L15,11.25 L14.5,13.5 L16.5,10.5 L15,10.5 L15.25,8.5 Z M11.8123475,2.1095656 C11.5967166,1.93706082 11.2820704,1.97202151 11.1095656,2.18765248 L7.486,6.716 L4.8796283,3.67460431 C4.66834577,3.42810802 4.28183503,3.44519844 4.09313326,3.7093809 L1.59313326,7.2093809 C1.43262877,7.4340872 1.48467461,7.74636224 1.7093809,7.90686674 L1.78719798,7.95255072 C2.00160794,8.05367388 2.26419607,7.99035802 2.40686674,7.7906191 L4.535,4.809 L7.1203717,7.82539569 C7.32438988,8.0634169 7.69459722,8.057144 7.8904344,7.81234752 L11.8904344,2.81234752 C12.0629392,2.59671656 12.0279785,2.28207037 11.8123475,2.1095656 Z M3,17 L15,17 C15.5522847,17 16,17.4477153 16,18 C16,18.5522847 15.5522847,19 15,19 L3,19 C2.44771525,19 2,18.5522847 2,18 C2,17.4477153 2.44771525,17 3,17 Z" id="形状结合" fill="#3165D2"></path>
        </g>
    </g>
</svg>