<?xml version="1.0" encoding="UTF-8"?>
<svg width="20px" height="20px" viewBox="0 0 20 20" version="1.1" xmlns="http://www.w3.org/2000/svg" xmlns:xlink="http://www.w3.org/1999/xlink">
    <title>预警方式</title>
    <g id="工作台首页" stroke="none" stroke-width="1" fill="none" fill-rule="evenodd">
        <g id="预警方式">
            <rect id="矩形" x="0" y="0" width="20" height="20"></rect>
            <path d="M8,10 C8.55228475,10 9,10.4477153 9,11 L9,18 C9,18.5522847 8.55228475,19 8,19 L1,19 C0.44771525,19 9.0245691e-13,18.5522847 9.02389274e-13,18 L9.02389274e-13,11 C9.02321639e-13,10.4477153 0.44771525,10 1,10 L8,10 Z M14.964007,9.76930839 C15.1442571,9.8637251 15.2914148,10.0108828 15.3858315,10.1911329 L19.2331392,17.535993 C19.4894032,18.0252243 19.3005459,18.6295675 18.8113147,18.8858315 C18.6681444,18.9608255 18.5089301,19 18.3473077,19 L10.6526923,19 C10.1004076,19 9.65269234,18.5522847 9.65269234,18 C9.65269234,17.8383775 9.69186685,17.6791633 9.76686081,17.535993 L13.6141685,10.1911329 C13.8704325,9.70190168 14.4747757,9.5130444 14.964007,9.76930839 Z M14.5,17 C14.2238576,17 14,17.2238576 14,17.5 C14,17.7761424 14.2238576,18 14.5,18 C14.7761424,18 15,17.7761424 15,17.5 C15,17.2238576 14.7761424,17 14.5,17 Z M14.5,12.5 C14.4633954,12.5 14.4268263,12.5022767 14.3905043,12.506817 C13.9067221,12.5672897 13.563562,13.0084956 13.6240347,13.4922779 L13.9379826,16.0038611 C13.9734124,16.2872995 14.2143558,16.5 14.5,16.5 C14.7856442,16.5 15.0265876,16.2872995 15.0620174,16.0038611 L15.3759653,13.4922779 C15.3805055,13.455956 15.3827822,13.4193868 15.3827822,13.3827822 C15.3827822,12.8952351 14.9875472,12.5 14.5,12.5 Z M8,0 C8.55228475,-1.01453063e-16 9,0.44771525 9,1 L9,8 C9,8.55228475 8.55228475,9 8,9 L1,9 C0.44771525,9 9.0245691e-13,8.55228475 9.02389274e-13,8 L9.02389274e-13,1 C9.02321639e-13,0.44771525 0.44771525,1.01453063e-16 1,0 L8,0 Z M18,0 C18.5522847,-1.01453063e-16 19,0.44771525 19,1 L19,8 C19,8.55228475 18.5522847,9 18,9 L11,9 C10.4477153,9 10,8.55228475 10,8 L10,1 C10,0.44771525 10.4477153,1.01453063e-16 11,0 L18,0 Z" id="形状结合" fill="#3165D2"></path>
        </g>
    </g>
</svg>