<?xml version="1.0" encoding="UTF-8"?>
<svg width="20px" height="20px" viewBox="0 0 20 20" version="1.1" xmlns="http://www.w3.org/2000/svg" xmlns:xlink="http://www.w3.org/1999/xlink">
    <title>重大事件</title>
    <g id="页面-1" stroke="none" stroke-width="1" fill="none" fill-rule="evenodd">
        <g id="重大事件">
            <rect id="矩形" x="0" y="0" width="20" height="20"></rect>
            <path d="M18.7049254,9.28615172 L18.7049254,0 L1.43882329,0 L1.43882329,9.28604037 L0,9.28604037 L0,18.7153849 C0,19.4292332 0.575551584,20 1.15121452,20 L18.8486741,20 C19.5680858,20 20,19.4292332 20,18.8585776 L20,9.28604037 L18.7049254,9.28604037 L18.7049254,9.28615172 M2.87764657,2.5716799 L17.2663248,2.5716799 L17.2663248,9.28615172 L2.87764657,9.28615172 L2.87764657,2.5716799 L2.87764657,2.5716799 M4.02886109,4.00071262 L15.9711389,4.00071262 L15.9711389,5.28655257 L4.02886109,5.28655257 L4.02886109,4.00071262 L4.02886109,4.00071262 M4.02886109,6.71447182 L15.9711389,6.71447182 L15.9711389,8.0013139 L4.02886109,8.0013139 L4.02886109,6.71447182 L4.02886109,6.71447182" id="形状" fill="#3165D2" fill-rule="nonzero"></path>
        </g>
    </g>
</svg>