<?xml version="1.0" encoding="UTF-8"?>
<svg width="20px" height="20px" viewBox="0 0 20 20" version="1.1" xmlns="http://www.w3.org/2000/svg" xmlns:xlink="http://www.w3.org/1999/xlink">
    <title>资产质量</title>
    <g id="页面-1" stroke="none" stroke-width="1" fill="none" fill-rule="evenodd">
        <g id="资产质量">
            <rect id="矩形" x="0" y="0" width="20" height="20"></rect>
            <path d="M13.2634713,5.92847678 C15.0054684,5.92847678 16.5492932,7.0503214 17.0873327,8.70714586 L19.9001627,17.3688993 C20.243067,18.4248295 19.6650453,19.5588089 18.6091151,19.9017131 C18.4085889,19.9668323 18.1990667,20 17.988232,20 L2.01084229,20 C0.900629769,20 0.000624691652,19.0999949 0.000624691652,17.9897824 C0.000624691652,17.8237932 0.021183665,17.6584431 0.0618321176,17.4975079 L2.21710524,8.96436307 C2.66799348,7.179209 4.27390989,5.92847678 6.1151256,5.92847678 L13.2634713,5.92847678 Z M12.8458421,9.60279641 C12.5518463,9.38653223 12.1365812,9.41056159 11.8695341,9.67488447 L9.87330337,11.6492419 L7.87830803,9.67488447 C7.58455616,9.3841293 7.11146061,9.3841293 6.81770874,9.67488447 L6.80403735,9.68847186 C6.512651,9.98286142 6.51508558,10.4577266 6.80947513,10.749113 L8.03130337,11.9582419 L6.78413497,11.9591296 C6.36780527,11.9591296 6.03030337,12.2966315 6.03030337,12.7129612 C6.03030337,13.1292909 6.36780527,13.4667928 6.78413497,13.4667928 L9.07630337,13.4662419 L9.07630337,14.4712419 L6.78413497,14.4719016 C6.36780527,14.4719016 6.03030337,14.8094035 6.03030337,15.2257332 C6.03030337,15.6420629 6.36780527,15.9795648 6.78413497,15.9795648 L9.07630337,15.9792419 L9.07670751,17.2359508 C9.07670751,17.6522805 9.41420942,17.9897824 9.83053911,17.9897824 L9.84607798,17.9897824 C10.2624077,17.9897824 10.5999096,17.6522805 10.5999096,17.2359508 L10.5993034,15.9792419 L12.8924821,15.9795648 C13.3088118,15.9795648 13.6463137,15.6420629 13.6463137,15.2257332 C13.6463137,14.8094035 13.3088118,14.4719016 12.8924821,14.4719016 L10.5993034,14.4712419 L10.5993034,13.4662419 L12.8924821,13.4667928 C13.3088118,13.4667928 13.6463137,13.1292909 13.6463137,12.7129612 C13.6463137,12.2966315 13.3088118,11.9591296 12.8924821,11.9591296 L11.7153034,11.9582419 L12.938367,10.749113 C13.2327565,10.4577266 13.2351911,9.98286142 12.938367,9.68303409 L12.9301333,9.67488447 Z M7.06779128,0.0418191079 L10.5999096,1.15420997 L13.3102305,0.110948749 C13.8282833,-0.0884609982 14.4099016,0.169850243 14.6093114,0.687903055 C14.6865463,0.888554182 14.6974047,1.10868412 14.6402917,1.31596224 L13.849692,4.18525507 C13.7295492,4.62128485 13.3329731,4.92336798 12.8806941,4.92336798 L7.97179333,4.92336798 C7.56498163,4.92336798 7.19828572,4.67814432 7.04289651,4.30217896 L5.83696887,1.38442791 C5.62493583,0.871412364 5.86893036,0.28364435 6.38194591,0.0716113088 C6.59997958,-0.018503585 6.84276469,-0.0290498441 7.06779128,0.0418191079 Z" id="形状结合" fill="#3165D2"></path>
        </g>
    </g>
</svg>