<?xml version="1.0" encoding="UTF-8"?>
<svg width="20px" height="20px" viewBox="0 0 20 20" version="1.1" xmlns="http://www.w3.org/2000/svg" xmlns:xlink="http://www.w3.org/1999/xlink">
    <title>转让平台</title>
    <g id="工作台首页" stroke="none" stroke-width="1" fill="none" fill-rule="evenodd">
        <g id="转让平台" transform="translate(0.000000, 0.000000)">
            <rect id="矩形" x="0" y="0" width="20" height="20"></rect>
            <path d="M17,0 C18.6568542,-3.04359188e-16 20,1.34314575 20,3 L20,17 C20,18.6568542 18.6568542,20 17,20 L3,20 C1.34314575,20 6.46995335e-16,18.6568542 0,17 L0,3 C-2.02906125e-16,1.34314575 1.34314575,7.48448398e-16 3,0 L17,0 Z M16,11.25 L4,11.25 C3.27924078,11.25 2.97339262,12.1675445 3.55,12.6 L7.55,15.6 C7.88137085,15.8485281 8.35147186,15.7813708 8.6,15.45 L8.65999216,15.3564572 C8.83413414,15.0349874 8.75124623,14.6259347 8.45,14.4 L6.25,12.75 L16,12.75 C16.4142136,12.75 16.75,12.4142136 16.75,12 C16.75,11.5857864 16.4142136,11.25 16,11.25 Z M12.45,4.4 C12.1186292,4.15147186 11.6485281,4.21862915 11.4,4.55 L11.3400078,4.64354276 C11.1658659,4.96501258 11.2487538,5.37406533 11.55,5.6 L13.75,7.25 L4,7.25 C3.58578644,7.25 3.25,7.58578644 3.25,8 C3.25,8.41421356 3.58578644,8.75 4,8.75 L16,8.75 C16.7207592,8.75 17.0266074,7.83245553 16.45,7.4 Z" id="形状结合" fill="#3165D2"></path>
        </g>
    </g>
</svg>