<?xml version="1.0" encoding="UTF-8"?>
<svg width="20px" height="20px" viewBox="0 0 20 20" version="1.1" xmlns="http://www.w3.org/2000/svg" xmlns:xlink="http://www.w3.org/1999/xlink">
    <title>综合费率备份</title>
    <g id="工作台首页" stroke="none" stroke-width="1" fill="none" fill-rule="evenodd">
        <g id="综合费率备份" transform="translate(0.000000, 0.000000)">
            <rect id="矩形" x="0" y="0" width="20" height="20"></rect>
            <path d="M13,1 C14.1045695,1 15,1.8954305 15,3 L15,19 L2,19 C0.8954305,19 -3.0881846e-16,18.1045695 0,17 L0,3 C-1.3527075e-16,1.8954305 0.8954305,1 2,1 L13,1 Z M19,10 L19,16 C19,17.5976809 17.75108,18.9036609 16.1762728,18.9949073 L16,19 L16,10 L19,10 Z M12.5,13.5 C11.3954305,13.5 10.5,14.3954305 10.5,15.5 C10.5,16.6045695 11.3954305,17.5 12.5,17.5 C13.6045695,17.5 14.5,16.6045695 14.5,15.5 C14.5,14.3954305 13.6045695,13.5 12.5,13.5 Z M12.8048554,10.103688 C12.5859783,9.93532103 12.272055,9.97626755 12.103688,10.1951446 L7.10368801,16.6951446 C6.93532103,16.9140217 6.97626755,17.227945 7.19514462,17.396312 C7.41402169,17.564679 7.72794502,17.5237325 7.89631199,17.3048554 L12.896312,10.8048554 C13.064679,10.5859783 13.0237325,10.272055 12.8048554,10.103688 Z M12.5,14.5 C13.0522847,14.5 13.5,14.9477153 13.5,15.5 C13.5,16.0522847 13.0522847,16.5 12.5,16.5 C11.9477153,16.5 11.5,16.0522847 11.5,15.5 C11.5,14.9477153 11.9477153,14.5 12.5,14.5 Z M7.5,9.5 C6.3954305,9.5 5.5,10.3954305 5.5,11.5 C5.5,12.6045695 6.3954305,13.5 7.5,13.5 C8.6045695,13.5 9.5,12.6045695 9.5,11.5 C9.5,10.3954305 8.6045695,9.5 7.5,9.5 Z M7.5,10.5 C8.05228475,10.5 8.5,10.9477153 8.5,11.5 C8.5,12.0522847 8.05228475,12.5 7.5,12.5 C6.94771525,12.5 6.5,12.0522847 6.5,11.5 C6.5,10.9477153 6.94771525,10.5 7.5,10.5 Z M7.3,6 L2.7,6 C2.31340068,6 2,6.31340068 2,6.7 C2,7.08659932 2.31340068,7.4 2.7,7.4 L7.3,7.4 C7.68659932,7.4 8,7.08659932 8,6.7 C8,6.31340068 7.68659932,6 7.3,6 Z M12.3,3 L2.7,3 C2.31340068,3 2,3.31340068 2,3.7 C2,4.08659932 2.31340068,4.4 2.7,4.4 L12.3,4.4 C12.6865993,4.4 13,4.08659932 13,3.7 C13,3.31340068 12.6865993,3 12.3,3 Z" id="形状结合" fill="#3165D2"></path>
        </g>
    </g>
</svg>