<?xml version="1.0" encoding="UTF-8"?>
<svg width="20px" height="20px" viewBox="0 0 20 20" version="1.1" xmlns="http://www.w3.org/2000/svg" xmlns:xlink="http://www.w3.org/1999/xlink">
    <title>最近使用</title>
    <g id="页面-1" stroke="none" stroke-width="1" fill="none" fill-rule="evenodd">
        <g id="最近使用">
            <rect id="矩形" x="0" y="0" width="20" height="20"></rect>
            <path d="M3,1 L7,1 C8.1045695,1 9,1.8954305 9,3 L9,7 C9,8.1045695 8.1045695,9 7,9 L3,9 C1.8954305,9 1,8.1045695 1,7 L1,3 C1,1.8954305 1.8954305,1 3,1 Z M3,11 L7,11 C8.1045695,11 9,11.8954305 9,13 L9,17 C9,18.1045695 8.1045695,19 7,19 L3,19 C1.8954305,19 1,18.1045695 1,17 L1,13 C1,11.8954305 1.8954305,11 3,11 Z M17,1 C18.1045695,1 19,1.8954305 19,3 L19,7 C19,8.1045695 18.1045695,9 17,9 L13,9 C11.8954305,9 11,8.1045695 11,7 L11,3 C11,1.8954305 11.8954305,1 13,1 L17,1 Z M17,2.4 L13,2.4 C12.6686292,2.4 12.4,2.66862915 12.4,3 L12.4,7 C12.4,7.33137085 12.6686292,7.6 13,7.6 L17,7.6 C17.3313708,7.6 17.6,7.33137085 17.6,7 L17.6,3 C17.6,2.66862915 17.3313708,2.4 17,2.4 Z M13,11 L17,11 C18.1045695,11 19,11.8954305 19,13 L19,17 C19,18.1045695 18.1045695,19 17,19 L13,19 C11.8954305,19 11,18.1045695 11,17 L11,13 C11,11.8954305 11.8954305,11 13,11 Z" id="形状结合" fill="#3165D2"></path>
        </g>
    </g>
</svg>