<?xml version="1.0" encoding="UTF-8"?>
<svg width="20px" height="20px" viewBox="0 0 20 20" version="1.1" xmlns="http://www.w3.org/2000/svg" xmlns:xlink="http://www.w3.org/1999/xlink">
    <title>资产质量</title>
    <g id="工作台首页" stroke="none" stroke-width="1" fill="none" fill-rule="evenodd">
        <g id="资产质量">
            <rect id="矩形" x="0" y="0" width="20" height="20"></rect>
            <path d="M11,0 C11.5522847,-1.01453063e-16 12,0.44771525 12,1 L12,9 L17,9 C17.5522847,9 18,9.44771525 18,10 L18,18 L19,18 C19.5522847,18 20,18.4477153 20,19 C20,19.5522847 19.5522847,20 19,20 L1,20 C0.44771525,20 -1.5440923e-16,19.5522847 0,19 C-6.76353751e-17,18.4477153 0.44771525,18 1,18 L2,18 L2,1 C2,0.44771525 2.44771525,-9.5692398e-18 3,0 L11,0 Z M9.25,13 L4.75,13 C4.33578644,13 4,13.3357864 4,13.75 C4,14.1642136 4.33578644,14.5 4.75,14.5 L9.25,14.5 C9.66421356,14.5 10,14.1642136 10,13.75 C10,13.3357864 9.66421356,13 9.25,13 Z M16.25,13 L13.75,13 C13.3357864,13 13,13.3357864 13,13.75 C13,14.1642136 13.3357864,14.5 13.75,14.5 L16.25,14.5 C16.6642136,14.5 17,14.1642136 17,13.75 C17,13.3357864 16.6642136,13 16.25,13 Z M9.25,8 L4.75,8 C4.33578644,8 4,8.33578644 4,8.75 C4,9.16421356 4.33578644,9.5 4.75,9.5 L9.25,9.5 C9.66421356,9.5 10,9.16421356 10,8.75 C10,8.33578644 9.66421356,8 9.25,8 Z M9.25,3 L4.75,3 C4.33578644,3 4,3.33578644 4,3.75 C4,4.16421356 4.33578644,4.5 4.75,4.5 L9.25,4.5 C9.66421356,4.5 10,4.16421356 10,3.75 C10,3.33578644 9.66421356,3 9.25,3 Z" id="形状结合" fill="#7E7E7E"></path>
        </g>
    </g>
</svg>