<?xml version="1.0" encoding="UTF-8"?>
<svg width="30px" height="30px" viewBox="0 0 30 30" version="1.1" xmlns="http://www.w3.org/2000/svg" xmlns:xlink="http://www.w3.org/1999/xlink">
    <title>khxx_def</title>
    <g id="页面-1" stroke="none" stroke-width="1" fill="none" fill-rule="evenodd">
        <g id="svg切图-最新" transform="translate(-23.000000, -49.000000)" fill="#979797" fill-rule="nonzero">
            <g id="khxx_def" transform="translate(23.000000, 49.000000)">
                <path d="M23.3076923,3 C25.3468975,3 27,4.65310246 27,6.69230769 L27,19.6153846 C27,21.6545898 25.3468975,23.3076923 23.3076923,23.3076923 L15.923,23.307 L15.9230769,25.1538462 L23.3076923,25.1538462 L23.3076923,27 L6.69230769,27 L6.69230769,25.1538462 L14.0769231,25.1538462 L14.076,23.307 L6.69230769,23.3076923 C4.65310246,23.3076923 3,21.6545898 3,19.6153846 L3,6.69230769 C3,4.65310246 4.65310246,3 6.69230769,3 L23.3076923,3 Z M23.3076923,4.84615385 L6.69230769,4.84615385 C5.72125758,4.84615385 4.92531077,5.59586018 4.85170824,6.54803186 L4.84615385,6.69230769 L4.84615385,19.6153846 C4.84615385,20.5864347 5.59586018,21.3823815 6.54803186,21.4559841 L6.69230769,21.4615385 L8.604,21.461 L8.6043956,20.5384615 C8.6043956,17.9735459 10.1142684,15.76128 12.2936923,14.7419854 C11.6819411,14.0838927 11.3076923,13.2010362 11.3076923,12.2307692 C11.3076923,10.191564 12.9607948,8.53846154 15,8.53846154 C17.0392052,8.53846154 18.6923077,10.191564 18.6923077,12.2307692 C18.6923077,13.2010362 18.3180589,14.0838927 17.7060408,14.7428592 C19.8204854,15.730765 21.3046011,17.8421562 21.3915673,20.3090717 L21.3956044,20.5384615 L21.395,21.461 L23.3076923,21.4615385 C24.2787424,21.4615385 25.0746892,20.7118321 25.1482918,19.7596605 L25.1538462,19.6153846 L25.1538462,6.69230769 C25.1538462,5.72125758 24.4041398,4.92531077 23.4519681,4.85170824 L23.3076923,4.84615385 Z M15.5144894,15.885092 L15.3895234,15.9027749 C15.2615162,15.9161962 15.1315616,15.9230769 15,15.9230769 C14.8257325,15.9230769 14.6542848,15.911004 14.4864476,15.8876491 C12.2122835,16.1332716 10.4277605,18.0099576 10.3234985,20.3241774 L10.3186813,20.5384615 L10.318,21.461 L19.681,21.461 L19.6813187,20.5384615 C19.6813187,18.126914 17.8578461,16.1412612 15.5144894,15.885092 Z M15,10.2527473 C13.9075686,10.2527473 13.021978,11.1383379 13.021978,12.2307692 C13.021978,13.169555 13.6759778,13.9555908 14.5532261,14.1581255 C14.7008272,14.1480342 14.849809,14.1428571 15,14.1428571 C15.150191,14.1428571 15.2991728,14.1480342 15.4467768,14.1582196 C16.3240222,13.9555908 16.978022,13.169555 16.978022,12.2307692 C16.978022,11.1383379 16.0924314,10.2527473 15,10.2527473 Z" id="形状结合"></path>
            </g>
        </g>
    </g>
</svg>