<?xml version="1.0" encoding="UTF-8"?>
<svg width="30px" height="30px" viewBox="0 0 30 30" version="1.1" xmlns="http://www.w3.org/2000/svg" xmlns:xlink="http://www.w3.org/1999/xlink">
    <title>khxx_pre</title>
    <g id="页面-1" stroke="none" stroke-width="1" fill="none" fill-rule="evenodd">
        <g id="svg切图-最新" transform="translate(-63.000000, -49.000000)" fill="#979797">
            <g id="khxx_pre" transform="translate(63.000000, 49.000000)">
                <path d="M15.5159244,15.8852491 C17.7896885,16.1345183 19.5736496,18.0121171 19.6766216,20.3268593 L19.6813187,20.5384615 L19.6809231,23.3076923 L15.9230769,23.3076923 L15.9230769,25.1538462 L23.3076923,25.1538462 L23.3076923,27 L6.69230769,27 L6.69230769,25.1538462 L14.0769231,25.1538462 L14.0769231,23.3076923 L10.3181538,23.3076923 L10.3186813,20.5384615 L10.3230064,20.3353957 C10.4219662,18.0167346 12.2075171,16.1348246 14.4837841,15.8872774 C14.6524708,15.910876 14.8248105,15.9230769 15,15.9230769 C15.1751895,15.9230769 15.3475292,15.910876 15.5159244,15.8852491 Z M23.3076923,3 C25.3468975,3 27,4.65310246 27,6.69230769 L27,19.6153846 C27,21.6545898 25.3468975,23.3076923 23.3076923,23.3076923 L21.3950769,23.3076923 L21.3956044,20.5384615 L21.3918958,20.31859 C21.3084142,17.8475102 19.8231103,15.731903 17.706144,14.7427481 C18.318101,14.0837935 18.6923077,13.2009817 18.6923077,12.2307692 C18.6923077,10.191564 17.0392052,8.53846154 15,8.53846154 C12.9607948,8.53846154 11.3076923,10.191564 11.3076923,12.2307692 C11.3076923,13.2009817 11.681899,14.0837935 12.2938926,14.7418917 C10.1870119,15.7271694 8.70580392,17.8273048 8.6093977,20.2831688 L8.6043956,20.5384615 L8.604,23.3076923 L6.69230769,23.3076923 C4.65310246,23.3076923 3,21.6545898 3,19.6153846 L3,6.69230769 C3,4.65310246 4.65310246,3 6.69230769,3 L23.3076923,3 Z M15,10.2527473 C16.0924314,10.2527473 16.978022,11.1383379 16.978022,12.2307692 C16.978022,13.1707451 16.3223628,13.9575837 15.4434468,14.1579906 C15.2969322,14.1479566 15.1490616,14.1428571 15,14.1428571 C14.8509384,14.1428571 14.7030678,14.1479566 14.5565637,14.158893 C13.6776372,13.9575837 13.021978,13.1707451 13.021978,12.2307692 C13.021978,11.1383379 13.9075686,10.2527473 15,10.2527473 Z" id="形状"></path>
            </g>
        </g>
    </g>
</svg>