<?xml version="1.0" encoding="UTF-8"?>
<svg width="18px" height="18px" viewBox="0 0 18 18" version="1.1" xmlns="http://www.w3.org/2000/svg" xmlns:xlink="http://www.w3.org/1999/xlink">
    <title>more expand</title>
    <g id="页面-1" stroke="none" stroke-width="1" fill="none" fill-rule="evenodd">
        <g id="svg切图-最新" transform="translate(-85.000000, -131.000000)">
            <g id="more-expand" transform="translate(85.000000, 131.000000)">
                <rect id="矩形" x="0" y="0" width="18" height="18"></rect>
                <path d="M13.5,4.3 C13.9418278,4.3 14.3,4.6581722 14.3,5.1 L14.2991401,12.625 L15.4395089,11.4490351 C15.7469839,11.1317483 16.2534534,11.1237942 16.5707403,11.4312692 C16.8591829,11.7107919 16.8919785,12.1547729 16.664547,12.4715689 L16.5885062,12.5625005 L14.0744986,15.1567327 C13.7855193,15.4549337 13.3226296,15.4788576 13.0057251,15.2291796 L12.9231564,15.1543026 L10.4302975,12.5600705 C10.1241646,12.2414885 10.1342565,11.7350571 10.4528385,11.4289242 C10.7424584,11.1506216 11.1873259,11.1336618 11.4958195,11.3722335 L11.5839847,11.4514652 L12.6991401,12.613 L12.7,5.1 C12.7,4.6581722 13.0581722,4.3 13.5,4.3 Z M9.2,13 C9.6418278,13 10,13.3581722 10,13.8 C10,14.2418278 9.6418278,14.6 9.2,14.6 L1.8,14.6 C1.3581722,14.6 1,14.2418278 1,13.8 C1,13.3581722 1.3581722,13 1.8,13 L9.2,13 Z M9.2,9 C9.6418278,9 10,9.3581722 10,9.8 C10,10.2418278 9.6418278,10.6 9.2,10.6 L1.8,10.6 C1.3581722,10.6 1,10.2418278 1,9.8 C1,9.3581722 1.3581722,9 1.8,9 L9.2,9 Z M9.2,5 C9.6418278,5 10,5.3581722 10,5.8 C10,6.2418278 9.6418278,6.6 9.2,6.6 L1.8,6.6 C1.3581722,6.6 1,6.2418278 1,5.8 C1,5.3581722 1.3581722,5 1.8,5 L9.2,5 Z M16.2,2 C16.6418278,2 17,2.3581722 17,2.8 C17,3.2418278 16.6418278,3.6 16.2,3.6 L1.8,3.6 C1.3581722,3.6 1,3.2418278 1,2.8 C1,2.3581722 1.3581722,2 1.8,2 L16.2,2 Z" id="形状结合" fill="#979797"></path>
            </g>
        </g>
    </g>
</svg>