<?xml version="1.0" encoding="UTF-8"?>
<svg width="16px" height="14px" viewBox="0 0 16 14" version="1.1" xmlns="http://www.w3.org/2000/svg" xmlns:xlink="http://www.w3.org/1999/xlink">
    <title>更多收起</title>
    <g id="页面-1" stroke="none" stroke-width="1" fill="none" fill-rule="evenodd">
        <g id="三级菜单-收起1（区别看头部）" transform="translate(-1804.000000, -158.000000)" fill="#0091FF">
            <g id="更多收起" transform="translate(1803.000000, 156.000000)">
                <path d="M13.0057251,4.47082037 C13.3226296,4.22114244 13.7855193,4.24506635 14.0744986,4.5432673 L14.0744986,4.5432673 L16.5885062,7.13749948 L16.664547,7.22843109 C16.8919785,7.5452271 16.8591829,7.98920811 16.5707403,8.26873083 C16.2534534,8.57620582 15.7469839,8.56825174 15.4395089,8.2509649 L15.4395089,8.2509649 L14.2991401,7.07500001 L14.3,14.6 C14.3,15.0418278 13.9418278,15.4 13.5,15.4 C13.0581722,15.4 12.7,15.0418278 12.7,14.6 L12.7,14.6 L12.6991401,7.08700001 L11.5839847,8.24853484 L11.4958195,8.3277665 C11.1873259,8.56633825 10.7424584,8.54937846 10.4528385,8.27107582 C10.1342565,7.96494292 10.1241646,7.45851148 10.4302975,7.13992954 L10.4302975,7.13992954 L12.9231564,4.54569736 Z M9.2,13 C9.6418278,13 10,13.3581722 10,13.8 C10,14.2418278 9.6418278,14.6 9.2,14.6 L1.8,14.6 C1.3581722,14.6 1,14.2418278 1,13.8 C1,13.3581722 1.3581722,13 1.8,13 L9.2,13 Z M9.2,9 C9.6418278,9 10,9.3581722 10,9.8 C10,10.2418278 9.6418278,10.6 9.2,10.6 L1.8,10.6 C1.3581722,10.6 1,10.2418278 1,9.8 C1,9.3581722 1.3581722,9 1.8,9 L9.2,9 Z M9.2,5 C9.6418278,5 10,5.3581722 10,5.8 C10,6.2418278 9.6418278,6.6 9.2,6.6 L1.8,6.6 C1.3581722,6.6 1,6.2418278 1,5.8 C1,5.3581722 1.3581722,5 1.8,5 L9.2,5 Z M16.2,2 C16.6418278,2 17,2.3581722 17,2.8 C17,3.2418278 16.6418278,3.6 16.2,3.6 L1.8,3.6 C1.3581722,3.6 1,3.2418278 1,2.8 C1,2.3581722 1.3581722,2 1.8,2 L16.2,2 Z"></path>
            </g>
        </g>
    </g>
</svg>