<?xml version="1.0" encoding="UTF-8"?>
<svg width="30px" height="30px" viewBox="0 0 30 30" version="1.1" xmlns="http://www.w3.org/2000/svg" xmlns:xlink="http://www.w3.org/1999/xlink">
    <title>report_pre</title>
    <g id="页面-1" stroke="none" stroke-width="1" fill="none" fill-rule="evenodd">
        <g id="svg切图-最新" transform="translate(-303.000000, -51.000000)" fill="#979797" fill-rule="nonzero">
            <g id="report_pre" transform="translate(303.000000, 51.000000)">
                <path d="M4,5.38839286 C4,4.07142857 5.0774136,3 6.40173447,3 L23.5982655,3 C24.9225864,3 26,4.07142857 26,5.38839286 L26,20.9436384 C25.9971942,22.2606027 24.9197806,23.3320312 23.5954598,23.3320312 L6.40173447,23.3320312 C6.14864204,23.3320312 5.90456751,23.292899 5.67530786,23.2203992 L5.67504145,24.6116071 C5.67504145,25.0106027 6.00051014,25.3342634 6.40173447,25.3342634 L24.3782681,25.3342634 L24.3782681,27 L6.40173447,27 C5.0774136,27 4,25.9285714 4,24.6116071 L4,5.38839286 Z M16.6175233,4.60993304 L8.6884326,4.60993304 L8.6884326,14.0546875 L12.6529779,11.0970982 L16.6175233,14.0546875 L16.6175233,4.60993304 Z" id="形状结合"></path>
            </g>
        </g>
    </g>
</svg>