<?xml version="1.0" encoding="UTF-8"?>
<svg width="19px" height="19px" viewBox="0 0 19 19" version="1.1" xmlns="http://www.w3.org/2000/svg" xmlns:xlink="http://www.w3.org/1999/xlink">
    <title>表格,4宫格</title>
    <g id="页面-1" stroke="none" stroke-width="1" fill="none" fill-rule="evenodd">
        <g id="1．账户管理-机构管理-排序-增加排序规则" transform="translate(-1830.000000, -175.000000)">
            <g id="表格,4宫格" transform="translate(1830.000000, 175.000000)">
                <rect id="矩形" fill="#000000" fill-rule="nonzero" opacity="0" x="0" y="0" width="9" height="19"></rect>
                <path d="M6.93333333,1.484375 L6.93333333,7.421875 C6.93333333,7.58515625 6.81333333,7.71875 6.66666667,7.71875 L1.33333333,7.71875 C1.18666667,7.71875 1.06666667,7.58515625 1.06666667,7.421875 L1.06666667,1.484375 C1.06666667,1.32109375 1.18666667,1.1875 1.33333333,1.1875 L6.66666667,1.1875 C6.81333333,1.1875 6.93333333,1.32109375 6.93333333,1.484375 Z M0,1.1875 L0,7.71875 C0,8.37373047 0.478333333,8.90625 1.06666667,8.90625 L6.93333333,8.90625 C7.52166667,8.90625 8,8.37373047 8,7.71875 L8,1.1875 C8,0.532519531 7.52166667,0 6.93333333,0 L1.06666667,0 C0.478333333,0 0,0.532519531 0,1.1875 Z M7.06666667,11.4114305 L7.06666667,17.5076872 C7.06666667,17.6753342 6.94393939,17.8125 6.79393939,17.8125 L1.33939394,17.8125 C1.18939394,17.8125 1.06666667,17.6753342 1.06666667,17.5076872 L1.06666667,11.4114305 C1.06666667,11.2437834 1.18939394,11.1066176 1.33939394,11.1066176 L6.79393939,11.1066176 C6.94393939,11.1066176 7.06666667,11.2437834 7.06666667,11.4114305 Z M0,11.28125 L0,17.8125 C0,18.4674805 0.478333333,19 1.06666667,19 L6.93333333,19 C7.52166667,19 8,18.4674805 8,17.8125 L8,11.28125 C8,10.6262695 7.52166667,10.09375 6.93333333,10.09375 L1.06666667,10.09375 C0.478333333,10.09375 0,10.6262695 0,11.28125 Z" id="形状" fill="#989898" fill-rule="nonzero"></path>
                <polygon id="路径" fill="#989898" points="9 1.11764706 19 1.11764706 19 2.90588235 9 2.90588235"></polygon>
                <polygon id="路径" fill="#989898" points="9 6.70588235 19 6.70588235 19 8.49411765 9 8.49411765"></polygon>
                <polygon id="路径" fill="#989898" points="9 16.7647059 19 16.7647059 19 18.5529412 9 18.5529412"></polygon>
                <polygon id="路径" fill="#989898" points="9 11.1764706 19 11.1764706 19 12.9647059 9 12.9647059"></polygon>
            </g>
        </g>
    </g>
</svg>