<?xml version="1.0" encoding="UTF-8"?>
<svg width="30px" height="30px" viewBox="0 0 30 30" version="1.1" xmlns="http://www.w3.org/2000/svg" xmlns:xlink="http://www.w3.org/1999/xlink">
    <title>sjbs_def</title>
    <g id="页面-1" stroke="none" stroke-width="1" fill="none" fill-rule="evenodd">
        <g id="svg切图-最新" transform="translate(-103.000000, -51.000000)" fill="#979797" fill-rule="nonzero">
            <g id="sjbs_def" transform="translate(103.000000, 51.000000)">
                <path d="M21,25 C21.5522847,25 22,25.4477153 22,26 C22,26.5522847 21.5522847,27 21,27 L9,27 C8.44771525,27 8,26.5522847 8,26 C8,25.4477153 8.44771525,25 9,25 L21,25 Z M23.9375,3 C24.7595823,3 25.544913,3.34067218 26.1191492,3.94205416 C26.6847124,4.53435305 27,5.33150724 27,6.15999999 L27,6.15999999 L27,19.84 C27,20.6684928 26.6847124,21.4656469 26.1191492,22.0579458 C25.544913,22.6593278 24.7595823,23 23.9375,23 L23.9375,23 L6.0625,23 C4.360532,23 3,21.5751519 3,19.84 L3,19.84 L3,6.15999999 C3,4.42484805 4.360532,3 6.0625,3 L6.0625,3 Z M23.9375,5 L6.0625,5 C5.48629341,5 5,5.50928182 5,6.15999999 L5,6.15999999 L5,19.84 C5,20.4907182 5.48629341,21 6.0625,21 L6.0625,21 L23.9375,21 C24.2094357,21 24.4733149,20.8855306 24.6726662,20.6767555 C24.8806906,20.4588972 25,20.1572425 25,19.84 L25,19.84 L25,6.15999999 C25,5.84275751 24.8806906,5.5411028 24.6726662,5.32324454 C24.4733149,5.11446937 24.2094357,5 23.9375,5 L23.9375,5 Z M20.8244629,8.18961737 C21.3372987,8.18961737 21.7599701,8.57565756 21.8177352,9.07299624 L21.8244629,9.18961737 L21.8244629,13 C21.8244629,13.5522847 21.3767476,14 20.8244629,14 C20.3116271,14 19.8889557,13.6139598 19.8311906,13.1166211 L19.8244629,13 L19.824,12.039 L16.1229499,15.7100744 C15.756622,16.0733338 15.1811026,16.0943522 14.790522,15.7781158 L14.6969578,15.6920334 L12.958,13.878 L8.45071207,18.2421675 C8.08444853,18.5967777 7.51684337,18.6153352 7.12953367,18.3040094 L7.03668326,18.2193089 C6.68207305,17.8530454 6.66351556,17.2854402 6.97484138,16.8981305 L7.05954184,16.8052801 L12.288912,11.7422918 C12.6564534,11.3864444 13.2264279,11.3691646 13.6136006,11.6832747 L13.7063625,11.7687021 L15.436,13.573 L18.849,10.189 L16.7429199,10.1896174 C16.2300841,10.1896174 15.8074128,9.80357718 15.7496477,9.30623849 L15.7429199,9.18961737 C15.7429199,8.67678153 16.1289601,8.25411021 16.6262988,8.1963451 L16.7429199,8.18961737 L20.8244629,8.18961737 Z" id="形状结合"></path>
            </g>
        </g>
    </g>
</svg>