<?xml version="1.0" encoding="UTF-8"?>
<svg width="30px" height="30px" viewBox="0 0 30 30" version="1.1" xmlns="http://www.w3.org/2000/svg" xmlns:xlink="http://www.w3.org/1999/xlink">
    <title>sjbs_pre</title>
    <g id="页面-1" stroke="none" stroke-width="1" fill="none" fill-rule="evenodd">
        <g id="svg切图" transform="translate(-143.000000, -51.000000)" fill="#979797" fill-rule="nonzero">
            <g id="sjbs_pre" transform="translate(143.000000, 51.000000)">
                <path d="M21,25 C21.5522847,25 22,25.4477153 22,26 C22,26.5522847 21.5522847,27 21,27 L9,27 C8.44771525,27 8,26.5522847 8,26 C8,25.4477153 8.44771525,25 9,25 L21,25 Z M23.9375,3 C24.7595823,3 25.544913,3.34067218 26.1191492,3.94205416 C26.6375822,4.48499481 26.945714,5.20007082 26.9934691,5.95363011 L27,6.15999999 L27,19.84 C27,20.6684928 26.6847124,21.4656469 26.1191492,22.0579458 C25.592766,22.6092127 24.8890048,22.9414108 24.142154,22.9929489 L23.9375,23 L6.0625,23 C4.41922055,23 3.09423578,21.6717231 3.00481148,20.0183459 L3,19.84 L3,6.15999999 C3,4.48468088 4.26831996,3.09863435 5.88769409,3.00503699 L6.0625,3 L23.9375,3 Z M20.8244629,8.18961737 L16.7429199,8.18961737 L16.6262988,8.1963451 C16.1289601,8.25411021 15.7429199,8.67678153 15.7429199,9.18961737 L15.7429199,9.18961737 L15.7496477,9.30623849 C15.8074128,9.80357718 16.2300841,10.1896174 16.7429199,10.1896174 L16.7429199,10.1896174 L18.849,10.189 L15.436,13.573 L13.7063625,11.7687021 L13.6136006,11.6832747 C13.2264279,11.3691646 12.6564534,11.3864444 12.288912,11.7422918 L12.288912,11.7422918 L7.05954184,16.8052801 L6.97484138,16.8981305 C6.66351556,17.2854402 6.68207305,17.8530454 7.03668326,18.2193089 L7.03668326,18.2193089 L7.12953367,18.3040094 C7.51684337,18.6153352 8.08444853,18.5967777 8.45071207,18.2421675 L8.45071207,18.2421675 L12.958,13.878 L14.6969578,15.6920334 L14.790522,15.7781158 C15.1811026,16.0943522 15.756622,16.0733338 16.1229499,15.7100744 L16.1229499,15.7100744 L19.824,12.039 L19.8244629,13 L19.8311906,13.1166211 C19.8889557,13.6139598 20.3116271,14 20.8244629,14 C21.3767476,14 21.8244629,13.5522847 21.8244629,13 L21.8244629,13 L21.8244629,9.18961737 L21.8177352,9.07299624 C21.7599701,8.57565756 21.3372987,8.18961737 20.8244629,8.18961737 L20.8244629,8.18961737 Z" id="形状结合"></path>
            </g>
        </g>
    </g>
</svg>