<?xml version="1.0" encoding="UTF-8"?>
<svg width="30px" height="30px" viewBox="0 0 30 30" version="1.1" xmlns="http://www.w3.org/2000/svg" xmlns:xlink="http://www.w3.org/1999/xlink">
    <title>sjdj_pre</title>
    <g id="页面-1" stroke="none" stroke-width="1" fill="none" fill-rule="evenodd">
        <g id="svg切图-最新" transform="translate(-143.000000, -9.000000)" fill-rule="nonzero">
            <g id="sjdj_pre" transform="translate(143.000000, 9.000000)">
                <rect id="矩形" fill="#000000" opacity="0" x="0" y="0" width="30" height="30"></rect>
                <path d="M25.6017578,12.6207031 C26.1348307,12.6207031 26.6681351,12.8014902 27.1014652,13.1630642 L27.259082,13.3071289 L28.3776367,14.4256836 C29.2512695,15.2995961 29.2909801,16.6913732 28.4967685,17.6121094 L28.3776367,17.740332 L19.5296875,26.5885742 C19.4195312,26.6990234 19.2701172,26.7602539 19.1154297,26.7602539 L19.0729492,26.7587891 L15.0912109,27.1358398 C14.833138,27.1170898 14.6222873,26.9325991 14.5638029,26.6881289 L14.5492187,26.5938477 L14.9262695,22.6121094 C14.9164258,22.4764063 14.954207,22.3425781 15.0313633,22.232825 L15.0964844,22.1553711 L23.9444336,13.3071289 C24.4020508,12.8495117 25.0020508,12.6207031 25.6017578,12.6207031 Z M21.7128906,2.875 C23.4598734,2.875 24.8922307,4.24711653 24.9889367,5.97032371 L24.9941963,6.15625 L24.9941963,12.1859725 C24.535697,12.2858342 24.1051764,12.4986152 23.7421938,12.8127665 L23.5908802,12.9535755 L14.7429251,21.8018236 L14.6486564,21.9110557 L14.5719587,22.0311757 C14.4807443,22.1923039 14.4333896,22.3571178 14.425841,22.5233649 L14.4275798,22.6482838 L14.0514456,26.546711 L14.0550955,26.6702823 L14.0696797,26.7645636 L14.1046889,26.885631 L14.1557016,27.010495 C14.1746275,27.0502497 14.1955541,27.0884735 14.2183332,27.1250592 L7.24082031,27.1250592 C5.43144531,27.1250592 3.95957031,25.653125 3.95957031,23.84375 L3.95957031,6.15625 C3.95957031,4.346875 5.43144531,2.875 7.24082031,2.875 L21.7128906,2.875 Z M22.9702187,16.9327031 L16.759375,23.1438477 L16.5730469,25.1117188 L18.540918,24.9253906 L24.7512187,18.7137031 L22.9702187,16.9327031 Z M11.8328125,15.9335938 L9.17412109,15.9335938 C8.65644531,15.9335938 8.23662109,16.353418 8.23662109,16.8710938 C8.23662109,17.3887695 8.65644531,17.8085938 9.17412109,17.8085938 L11.8328125,17.8085938 C12.3504883,17.8085938 12.7703125,17.3887695 12.7703125,16.8710938 C12.7703125,16.353418 12.3504883,15.9335938 11.8328125,15.9335938 Z M25.6017578,14.4957031 C25.5309766,14.4957031 25.4339453,14.5108906 25.3399141,14.5750156 L25.2704102,14.6328125 L24.2962187,15.6067031 L26.0772187,17.3877031 L27.0516602,16.4143555 C27.165332,16.3009766 27.1890625,16.1714844 27.1890625,16.0830078 C27.1890625,16.0122266 27.1736875,15.9151953 27.1094875,15.8211641 L27.0516602,15.7516602 L25.9331055,14.6331055 C25.8197266,14.5194336 25.6902344,14.4957031 25.6017578,14.4957031 Z M16.9014648,11.7407227 L9.17412109,11.7407227 C8.65644531,11.7407227 8.23662109,12.1605469 8.23662109,12.6782227 C8.23662109,13.1958984 8.65644531,13.6157227 9.17412109,13.6157227 L16.9014648,13.6157227 C17.4191406,13.6157227 17.8389648,13.1958984 17.8389648,12.6782227 C17.8389648,12.1605469 17.4191406,11.7407227 16.9014648,11.7407227 Z M19.7795898,7.54785156 L9.17412109,7.54785156 C8.65644531,7.54785156 8.23662109,7.96767578 8.23662109,8.48535156 C8.23662109,9.00302734 8.65644531,9.42285156 9.17412109,9.42285156 L19.7795898,9.42285156 C20.2972656,9.42285156 20.7170898,9.00302734 20.7170898,8.48535156 C20.7170898,7.96767578 20.2972656,7.54785156 19.7795898,7.54785156 Z" id="形状结合" fill="#979797"></path>
            </g>
        </g>
    </g>
</svg>