<?xml version="1.0" encoding="UTF-8"?>
<svg width="30px" height="30px" viewBox="0 0 30 30" version="1.1" xmlns="http://www.w3.org/2000/svg" xmlns:xlink="http://www.w3.org/1999/xlink">
    <title>sjdj_def</title>
    <g id="页面-1" stroke="none" stroke-width="1" fill="none" fill-rule="evenodd">
        <g id="svg切图" transform="translate(-103.000000, -9.000000)" fill-rule="nonzero">
            <g id="sjdj_def" transform="translate(103.000000, 9.000000)">
                <rect id="矩形" fill="#000000" opacity="0" x="0" y="0" width="30" height="30"></rect>
                <path d="M19.7795898,7.54785156 L9.17412109,7.54785156 C8.65644531,7.54785156 8.23662109,7.96767578 8.23662109,8.48535156 C8.23662109,9.00302734 8.65644531,9.42285156 9.17412109,9.42285156 L19.7795898,9.42285156 C20.2972656,9.42285156 20.7170898,9.00302734 20.7170898,8.48535156 C20.7170898,7.96767578 20.2972656,7.54785156 19.7795898,7.54785156 Z M16.9014648,11.7407227 L9.17412109,11.7407227 C8.65644531,11.7407227 8.23662109,12.1605469 8.23662109,12.6782227 C8.23662109,13.1958984 8.65644531,13.6157227 9.17412109,13.6157227 L16.9014648,13.6157227 C17.4191406,13.6157227 17.8389648,13.1958984 17.8389648,12.6782227 C17.8389648,12.1605469 17.4191406,11.7407227 16.9014648,11.7407227 Z M11.8328125,15.9335938 L9.17412109,15.9335938 C8.65644531,15.9335938 8.23662109,16.353418 8.23662109,16.8710938 C8.23662109,17.3887695 8.65644531,17.8085938 9.17412109,17.8085938 L11.8328125,17.8085938 C12.3504883,17.8085938 12.7703125,17.3887695 12.7703125,16.8710938 C12.7703125,16.353418 12.3504883,15.9335938 11.8328125,15.9335938 Z M13.0533203,27.125 L7.24082031,27.125 C5.43144531,27.125 3.95957031,25.653125 3.95957031,23.84375 L3.95957031,6.15625 C3.95957031,4.346875 5.43144531,2.875 7.24082031,2.875 L21.7128906,2.875 C23.5222656,2.875 24.9941406,4.346875 24.9941406,6.15625 L24.9941406,11.2522461 C24.9941406,11.7699219 24.5743164,12.1897461 24.0566406,12.1897461 C23.5389648,12.1897461 23.1191406,11.7699219 23.1191406,11.2522461 L23.1191406,6.15625 C23.1191406,5.38076172 22.4883789,4.75 21.7128906,4.75 L7.24082031,4.75 C6.46533203,4.75 5.83457031,5.38076172 5.83457031,6.15625 L5.83457031,23.84375 C5.83457031,24.6192383 6.46533203,25.25 7.24082031,25.25 L13.0533203,25.25 C13.5709961,25.25 13.9908203,25.6698242 13.9908203,26.1875 C13.9908203,26.7051758 13.5709961,27.125 13.0533203,27.125 Z M25.9331055,14.6331055 L27.0516602,15.7516602 C27.1650391,15.8650391 27.1890625,15.9945313 27.1890625,16.0830078 C27.1890625,16.1714844 27.165332,16.3009766 27.0516602,16.4143555 L18.540918,24.9253906 L16.5730469,25.1117188 L16.759375,23.1438477 L25.2704102,14.6328125 C25.3837891,14.5194336 25.5132813,14.4957031 25.6017578,14.4957031 C25.6902344,14.4957031 25.8197266,14.5194336 25.9331055,14.6331055 Z M23.9444336,13.3071289 L15.0964844,22.1553711 C14.9760742,22.2757813 14.9139648,22.4424805 14.9262695,22.6121094 L14.5492187,26.5938477 C14.5703125,26.8838867 14.8008789,27.1147461 15.0912109,27.1358398 L19.0729492,26.7587891 C19.0873047,26.7599609 19.1013672,26.7602539 19.1154297,26.7602539 C19.2701172,26.7602539 19.4195312,26.6990234 19.5296875,26.5885742 L28.3776367,17.740332 C29.2928711,16.8250977 29.2928711,15.3412109 28.3776367,14.4256836 L27.259082,13.3071289 C26.8014648,12.8495117 26.2014648,12.6207031 25.6017578,12.6207031 C25.0020508,12.6207031 24.4020508,12.8495117 23.9444336,13.3071289 Z M23.3851563,14.6952148 L22.0591797,16.0208984 L25.7880859,19.7498047 L27.1140625,18.4241211 L23.3851563,14.6952148 Z" id="形状" fill="#979797"></path>
            </g>
        </g>
    </g>
</svg>