<?xml version="1.0" encoding="UTF-8"?>
<svg width="30px" height="30px" viewBox="0 0 30 30" version="1.1" xmlns="http://www.w3.org/2000/svg" xmlns:xlink="http://www.w3.org/1999/xlink">
    <title>sjgl_def</title>
    <g id="页面-1" stroke="none" stroke-width="1" fill="none" fill-rule="evenodd">
        <g id="svg切图" transform="translate(-183.000000, -9.000000)">
            <g id="sjgl_def" transform="translate(183.000000, 9.000000)">
                <g id="编组-15" transform="translate(3.000000, 4.000000)">
                    <path d="M4.61538462,12.8547717 C5.54015034,12.8547717 6.51948281,14.3682341 7.77553779,16.5447895 L7.77553779,16.5447895 L16.2244622,16.5447895 C17.4805172,14.3682341 18.4598497,12.8547717 19.3846154,12.8547717 L19.3846154,12.8547717 L21.2307692,12.8547717 C21.7401534,12.8547717 22.2013401,13.0610687 22.5351638,13.3946854 C22.8687798,13.7280945 23.0751748,14.1886812 23.0751748,14.6974599 L23.0751748,14.6974599 L23.0751748,20.2324866 C23.0751748,20.7412653 22.8687798,21.2018521 22.5351638,21.5352611 C22.2013401,21.8688778 21.7401534,22.0751748 21.2307692,22.0751748 L21.2307692,22.0751748 L2.76923077,22.0751748 C2.25984657,22.0751748 1.79865987,21.8688778 1.46483619,21.5352611 C1.13122022,21.2018521 0.924825175,20.7412653 0.924825175,20.2324866 L0.924825175,20.2324866 L0.924825175,14.6974599 C0.924825175,14.1886812 1.13122022,13.7280945 1.46483619,13.3946854 C1.79865987,13.0610687 2.25984657,12.8547717 2.76923077,12.8547717 L2.76923077,12.8547717 Z" id="路径" stroke="#979797" stroke-width="1.84965035"></path>
                    <rect id="矩形" fill="#979797" x="7.38461538" y="3.62740644" width="9.23076923" height="1.84500891"></rect>
                    <rect id="矩形" fill="#979797" x="9.23076923" y="8.23992871" width="5.53846154" height="1.84500891"></rect>
                    <path d="M2.76923077,12.9150624 L2.76923077,12.9150624 L2.76923077,2.57137766 C2.76923077,1.15124499 3.89634608,0 5.28671329,0 L18.7132867,0 C20.1036539,0 21.2307692,1.15124499 21.2307692,2.57137766 C21.2307692,6.01927257 21.2307692,9.46716747 21.2307692,12.9150624" id="路径" stroke="#979797" stroke-width="1.84965035"></path>
                </g>
            </g>
        </g>
    </g>
</svg>