<?xml version="1.0" encoding="UTF-8"?>
<svg width="30px" height="30px" viewBox="0 0 30 30" version="1.1" xmlns="http://www.w3.org/2000/svg" xmlns:xlink="http://www.w3.org/1999/xlink">
    <title>sjgl_pre</title>
    <g id="页面-1" stroke="none" stroke-width="1" fill="none" fill-rule="evenodd">
        <g id="svg切图" transform="translate(-223.000000, -9.000000)" fill="#979797" fill-rule="nonzero">
            <g id="sjgl_pre" transform="translate(223.000000, 9.000000)">
                <path d="M9.5183381,17.4796993 L9.74270648,17.7069109 L9.81308269,17.7838834 C9.87497202,17.8527398 9.93730055,17.925115 10.0002049,18.0011609 L10.2465816,18.3138666 C10.3059708,18.3927377 10.3660534,18.4750184 10.426629,18.5604429 C10.5325763,18.7098277 10.6402618,18.8692007 10.7495387,19.0383552 L10.9258086,19.3174649 C11.1494948,19.6794774 11.3793535,20.0808391 11.6153846,20.52155 L18.3846154,20.52155 C18.5616388,20.1910169 18.7351901,19.8826176 18.9052694,19.5963523 L19.0853706,19.2993971 C19.2516182,19.0310708 19.41445,18.7845201 19.5738661,18.5597448 L19.8117418,18.2372045 L20.0000846,18.000811 L20.0937559,17.8898014 L20.2990985,17.6624531 L20.4811406,17.4801942 L20.5848419,17.3849058 L20.7818802,17.2218207 L20.8799156,17.1498616 L21.0153666,17.0609741 L21.158042,16.9811855 L21.3026829,16.9155638 L21.4018799,16.8798908 L21.4804192,16.8572618 L21.6155268,16.8304573 C21.6673476,16.8232036 21.7185735,16.8195786 21.7692308,16.8195786 L23.4615385,16.8195786 C23.5153635,16.8195786 23.5687972,16.8214109 23.6217904,16.8250216 L23.4615385,16.8195786 L23.5834193,16.8227227 L23.7459389,16.8368089 L23.9060637,16.8620069 L24.030464,16.8895811 L24.1741657,16.9304784 L24.2527871,16.9571183 L24.3649748,17.0005676 L24.5090109,17.0662324 L24.6735999,17.1559218 L24.8496322,17.2710774 L25.0285614,17.4115994 L25.083635,17.460296 C25.6439359,17.9704335 26,18.7377648 26,19.5960572 L26,24.2235214 C26,25.7569282 24.8634921,27 23.4615385,27 L6.53846154,27 C5.13650794,27 4,25.7569282 4,24.2235214 L4,19.5960572 C4,18.8037873 4.3033919,18.0890227 4.79003325,17.5831707 L4.92469084,17.4527554 C5.00582969,17.3795852 5.09119481,17.3118202 5.18032554,17.2499643 L5.24574684,17.206065 L5.35256231,17.1405589 L5.51554037,17.0542235 L5.67603985,16.9839232 L5.83917125,16.9262636 L6.03256022,16.8747213 L6.17357223,16.8480493 L6.33682902,16.8282088 L6.45796081,16.8209504 L8.23076923,16.8195786 C8.28142651,16.8195786 8.33265242,16.8232036 8.38444697,16.8304537 L8.51956751,16.8572635 L8.69727184,16.9155458 L8.8419293,16.9811727 L9.02402764,17.0855343 C9.08747881,17.1259311 9.15221285,17.1713644 9.21768226,17.2214857 L9.3135362,17.2977839 C9.38067786,17.3532254 9.44912347,17.4140112 9.5183381,17.4796993 Z M21.6666667,3 C23.4971506,3 24.9845543,4.47389609 25.078611,6.3194472 L25.0833333,6.50520034 L25.0833333,15.9060003 C24.5926814,15.6611585 24.0437567,15.5238886 23.4615385,15.5238886 L21.7692308,15.5238886 L21.610058,15.5288817 C20.2369044,15.615391 19.025332,16.8250659 17.7140395,19.0822202 L17.6308333,19.2257407 L12.36825,19.2257407 L12.2859605,19.0822202 C10.9242337,16.7382523 9.67004528,15.5238886 8.23076923,15.5238886 L6.53846154,15.5238886 C5.95577582,15.5238886 5.40643713,15.6613791 4.91565537,15.9065903 L4.91666667,6.50520034 C4.91666667,4.63609694 6.3450225,3.10190719 8.15146744,3.00487216 L8.33333333,3 L21.6666667,3 Z M17.75,12.1921143 L12.25,12.1921143 L12.25,14.0431 L17.75,14.0431 L17.75,12.1921143 Z M19.5833333,7.56465006 L10.4166667,7.56465006 L10.4166667,9.41563577 L19.5833333,9.41563577 L19.5833333,7.56465006 Z" id="形状"></path>
            </g>
        </g>
    </g>
</svg>