<?xml version="1.0" encoding="UTF-8"?>
<svg width="30px" height="30px" viewBox="0 0 30 30" version="1.1" xmlns="http://www.w3.org/2000/svg" xmlns:xlink="http://www.w3.org/1999/xlink">
    <title>sjgl_def</title>
    <g id="页面-1" stroke="none" stroke-width="1" fill="none" fill-rule="evenodd">
        <g id="svg切图-最新" transform="translate(-183.000000, -9.000000)" fill="#979797" fill-rule="nonzero">
            <g id="sjgl_def" transform="translate(183.000000, 9.000000)">
                <path d="M21.7132867,3.07517483 C23.5553378,3.07517483 25.0527354,4.54191306 25.1505152,6.37995572 L25.1555944,6.57137766 L25.1555976,16.0880426 C26.2302448,16.4684573 27,17.4931214 27,18.6974599 L27,24.2324866 C27,25.7609421 25.7601732,27 24.2307692,27 L5.76923077,27 C4.23982685,27 3,25.7609421 3,24.2324866 L3,18.6974599 C3,17.4931214 3.7697552,16.4684573 4.8444024,16.0880426 L4.84440559,6.57137766 C4.84440559,4.70903033 6.28040153,3.18021386 8.09742898,3.08036203 L8.28671329,3.07517483 L21.7132867,3.07517483 Z M22.472,17.779 C22.3539512,17.8456325 22.1954391,17.9697674 22.0043311,18.1607569 C21.5168736,18.647912 20.9358802,19.4500492 20.2880369,20.555301 C19.9837333,21.0744575 19.4480841,21.4101046 18.8552706,21.4624405 L18.6923077,21.4696147 L11.3076923,21.4696147 C10.6512186,21.4696147 10.0439306,21.1216536 9.71196306,20.555301 C9.06411979,19.4500492 8.48312636,18.647912 7.99566895,18.1607569 C7.8427825,18.0079653 7.71075746,17.8979606 7.60595927,17.8283122 L7.527,17.779 L5.76923077,17.7795969 C5.29739854,17.7795969 4.90892264,18.1341505 4.85583339,18.5904652 L4.84965035,18.6974599 L4.84965035,24.2324866 C4.84965035,24.7029611 5.20442394,25.09112 5.66194082,25.1441709 L5.76923077,25.1503497 L24.2307692,25.1503497 C24.7026015,25.1503497 25.0910774,24.7957961 25.1441666,24.3394814 L25.1503497,24.2324866 L25.1503497,18.6974599 C25.1503497,18.2269855 24.7955761,17.8388266 24.3380592,17.7857757 L24.2307692,17.7795969 L22.472,17.779 Z M21.7132867,4.92482517 L8.28671329,4.92482517 C7.46016919,4.92482517 6.77426403,5.57851227 6.70060341,6.42086362 L6.69405594,6.57137766 L6.694,15.9291748 L7.61538462,15.9299465 C8.63498723,15.9299465 9.86575646,17.1599525 11.3076923,19.6199644 L18.6923077,19.6199644 C20.1342435,17.1599525 21.3650128,15.9299465 22.3846154,15.9299465 L23.305,15.9291748 L23.3059441,6.57137766 C23.3059441,5.70843959 22.665958,5.00681149 21.8575915,4.9315162 L21.7132867,4.92482517 Z M17.7692308,12.2399287 L17.7692308,14.0849376 L12.2307692,14.0849376 L12.2307692,12.2399287 L17.7692308,12.2399287 Z M19.6153846,7.62740644 L19.6153846,9.47241535 L10.3846154,9.47241535 L10.3846154,7.62740644 L19.6153846,7.62740644 Z" id="形状结合"></path>
            </g>
        </g>
    </g>
</svg>