<?xml version="1.0" encoding="UTF-8"?>
<svg width="30px" height="30px" viewBox="0 0 30 30" version="1.1" xmlns="http://www.w3.org/2000/svg" xmlns:xlink="http://www.w3.org/1999/xlink">
    <title>sjsh_def</title>
    <g id="页面-1" stroke="none" stroke-width="1" fill="none" fill-rule="evenodd">
        <g id="svg切图-最新" transform="translate(-183.000000, -51.000000)" fill="#979797" fill-rule="nonzero">
            <g id="sjsh_def" transform="translate(183.000000, 51.000000)">
                <path d="M7.0419804,27 C4.87531286,27 3.106816,25.3188096 3.00466105,23.2070582 L3,23.0139295 C3,22.9579857 3.00119426,22.9020481 3.00358199,22.8461538 C3.04626638,21.8469574 3.4294158,20.9384823 4.03990017,20.2276927 L4.64212305,5.65673011 C4.70332409,4.17231633 5.94139944,3 7.44787774,3 L22.7079913,3 C24.2228592,3 25.464669,4.18495726 25.514542,5.67806119 L26.0013254,20.2685677 C26.5902089,20.9733924 26.9577286,21.8664106 26.99686,22.8461538 L27,23.0034481 C27,25.1457641 25.290746,26.8943845 23.1437438,26.9953913 L22.9473912,27 L7.0419804,27 Z M22.6155779,20.5384615 L18.66063,20.5386585 L18.6446512,20.5415845 L18.6403483,20.5394791 L18.456,25.153 L22.9040714,25.1543545 L23.0569865,25.1512771 C24.1795178,25.0984671 25.0696032,24.2306142 25.1485206,23.1900519 L25.1542139,23.0402947 L25.1521769,22.9198314 C25.1014817,21.6505618 24.0755487,20.6270022 22.7853104,20.5439092 L22.6155779,20.5384615 Z M22.7079913,4.84615385 L7.44787774,4.84615385 C6.98158684,4.84615385 6.59243896,5.1830951 6.52289325,5.6273623 L6.51262801,5.73168619 L5.97842931,18.6923077 L5.96534862,18.9274776 C6.41454473,18.7749869 6.89625648,18.6923077 7.39687438,18.6923077 L11.3275585,18.6923077 C12.3308143,18.6923077 13.1557206,19.4722544 13.1979481,20.460756 L13.398,25.153 L16.608,25.153 L16.7956652,20.4658015 C16.8333449,19.5224053 17.5841601,18.7673431 18.523944,18.6975716 L18.6662633,18.6923077 L22.6155779,18.6923077 C23.1300278,18.6923077 23.6244119,18.7798561 24.0839046,18.9408969 L24.075523,18.6923077 L23.6435082,5.73884091 C23.6280713,5.27668969 23.270054,4.90310444 22.8146914,4.85209303 L22.7079913,4.84615385 Z M11.3275585,20.5384615 L7.39687438,20.5384615 C6.0811437,20.5384615 4.99850095,21.5102632 4.86062157,22.7603688 L4.84561642,22.9693866 L4.84865859,23.1178557 C4.90087868,24.1973516 5.77789966,25.0710987 6.88267106,25.1482999 L7.0419804,25.1538462 L11.55,25.153 L11.3534765,20.5395495 L11.3275585,20.5384615 Z M20.4876217,8.28243807 C20.8149566,8.61596148 20.8376357,9.13484229 20.5588901,9.49405852 L20.4753977,9.58780874 L14.7968656,15.1609758 C14.4754094,15.4764674 13.9790498,15.5104387 13.6199179,15.2577845 L13.5256096,15.1817686 L9.85052597,11.8036135 C9.47519872,11.4586109 9.45061579,10.8746681 9.79561844,10.4993409 C10.1140824,10.152885 10.6361404,10.1052881 11.0097776,10.3713695 L11.0998911,10.4444333 L14.129,13.229 L19.182251,8.2702141 C19.5460947,7.9131215 20.1305291,7.91859436 20.4876217,8.28243807 Z" id="形状结合"></path>
            </g>
        </g>
    </g>
</svg>