<?xml version="1.0" encoding="UTF-8"?>
<svg width="30px" height="30px" viewBox="0 0 30 30" version="1.1" xmlns="http://www.w3.org/2000/svg" xmlns:xlink="http://www.w3.org/1999/xlink">
    <title>sjsh_def</title>
    <g id="页面-1" stroke="none" stroke-width="1" fill="none" fill-rule="evenodd">
        <g id="svg切图" transform="translate(-183.000000, -51.000000)">
            <g id="sjsh_def" transform="translate(183.000000, 51.000000)">
                <g id="编组-16" transform="translate(3.000000, 3.000000)">
                    <path d="M19.7079913,0 C21.2228592,0 22.464669,1.18495726 22.514542,2.67806119 L23.0105208,17.5384615 L21.1275719,17.358821 L21.075523,15.6923077 L20.6435082,2.73884091 C20.6280713,2.27668969 20.270054,1.90310444 19.8146914,1.85209303 L19.7079913,1.84615385 L4.44787774,1.84615385 C3.98158684,1.84615385 3.59243896,2.1830951 3.52289325,2.6273623 L3.51262801,2.73168619 L2.97842931,15.6923077 L2.89063764,17.3129319 L1.02892622,17.5384615 L1.64212305,2.65673011 C1.70332409,1.17231633 2.94139944,0 4.44787774,0 L19.7079913,0 Z" id="路径" fill="#979797" fill-rule="nonzero"></path>
                    <polyline id="路径-5" stroke="#979797" stroke-width="1.84615385" stroke-linecap="round" stroke-linejoin="round" points="7.47520854 8.12402344 11.1502922 11.5021785 16.8288244 5.92901142"></polyline>
                    <path d="M8.32755851,16.6153846 C8.58338468,16.6153846 8.81696397,16.713959 8.98895938,16.8765802 C9.15638542,17.034881 9.26520722,17.2542406 9.27571227,17.5001528 L9.27571227,17.5001528 L9.51394476,23.0769231 L4.0419804,23.0769231 C3.20658585,23.0769231 2.4472535,22.7545121 1.88647261,22.2276751 C1.33646042,21.7109549 0.97738171,20.9973585 0.928757936,20.2006319 C0.975917681,19.1513063 1.36168381,18.2588974 1.97787519,17.625515 C2.60185643,16.9841255 3.45760947,16.6153846 4.39687438,16.6153846 L4.39687438,16.6153846 Z M19.6155779,16.6153846 C20.5465103,16.6153846 21.3948498,16.977039 22.0192937,17.5690675 C22.6351497,18.1529539 23.0329541,18.961283 23.0737643,19.8654362 C23.0706466,20.7454393 22.7511353,21.5240189 22.2213655,22.0945028 C21.689011,22.66777 20.9471213,23.0282644 20.1203714,23.0723305 L20.1203714,23.0723305 L14.4953939,23.0762529 L14.7180067,17.5026403 C14.7273355,17.2690735 14.8253618,17.0591774 14.9782573,16.9027476 C15.1300431,16.747453 15.3355053,16.6442282 15.5643116,16.6205974 L15.5643116,16.6205974 Z" id="形状" stroke="#979797" stroke-width="1.84615385"></path>
                    <rect id="矩形" stroke="#979797" stroke-width="0.923076923" fill="#979797" x="9.82178141" y="22.6153846" width="4.69306884" height="1"></rect>
                </g>
            </g>
        </g>
    </g>
</svg>