<?xml version="1.0" encoding="UTF-8"?>
<svg width="19px" height="19px" viewBox="0 0 19 19" version="1.1" xmlns="http://www.w3.org/2000/svg" xmlns:xlink="http://www.w3.org/1999/xlink">
    <title>排序题</title>
    <g id="页面-1" stroke="none" stroke-width="1" fill="none" fill-rule="evenodd">
        <g id="1．账户管理-机构管理-查询筛选-弹窗" transform="translate(-1793.000000, -175.000000)" fill="#989898" fill-rule="nonzero">
            <g id="排序题" transform="translate(1793.000000, 175.000000)">
                <path d="M5.89107255,14.3516576 L4.30211165,15.9462862 L4.30211165,11.0946286 L2.71315074,11.0946286 L2.71315074,15.9462862 L1.12418984,14.3516576 L0,15.4798573 L3.50763119,19 L7.01526239,15.4798573 L5.89107255,14.3516576 Z M3.50763119,0 L0,3.52014268 L1.12418984,4.64834243 L2.71315074,3.05371381 L2.71315074,7.90537138 L4.30211165,7.90537138 L4.30211165,3.05371381 L5.89107255,4.64834243 L7.01526239,3.52014268 L3.50763119,0 Z M8.67175413,1.5268569 L19,1.5268569 L19,3.12148552 L8.67175413,3.12148552 L8.67175413,1.5268569 Z M8.67175413,6.31074276 L19,6.31074276 L19,7.90537138 L8.67175413,7.90537138 L8.67175413,6.31074276 Z M8.67175413,11.0946286 L19,11.0946286 L19,12.6892572 L8.67175413,12.6892572 L8.67175413,11.0946286 Z M8.67175413,15.8785145 L19,15.8785145 L19,17.4731431 L8.67175413,17.4731431 L8.67175413,15.8785145 Z" id="形状"></path>
            </g>
        </g>
    </g>
</svg>