<?xml version="1.0" encoding="UTF-8"?>
<svg width="18px" height="18px" viewBox="0 0 18 18" version="1.1" xmlns="http://www.w3.org/2000/svg" xmlns:xlink="http://www.w3.org/1999/xlink">
    <title>二级图标</title>
    <g id="页面-1" stroke="none" stroke-width="1" fill="none" fill-rule="evenodd">
        <g id="三级菜单-2" transform="translate(-44.000000, -219.000000)">
            <g id="二级图标" transform="translate(44.000000, 219.000000)">
                <rect id="矩形" x="0" y="0" width="18" height="18"></rect>
                <path d="M5,6 C6.65685425,6 8,7.34314575 8,9 C8,10.6568542 6.65685425,12 5,12 C3.34314575,12 2,10.6568542 2,9 C2,7.34314575 3.34314575,6 5,6 Z M13,6 C14.6568542,6 16,7.34314575 16,9 C16,10.6568542 14.6568542,12 13,12 C11.3431458,12 10,10.6568542 10,9 C10,7.34314575 11.3431458,6 13,6 Z M5,7 C3.8954305,7 3,7.8954305 3,9 C3,10.1045695 3.8954305,11 5,11 C6.1045695,11 7,10.1045695 7,9 C7,7.8954305 6.1045695,7 5,7 Z" id="形状" fill="#979797" fill-rule="nonzero"></path>
            </g>
        </g>
    </g>
</svg>