<?xml version="1.0" encoding="UTF-8"?>
<svg width="30px" height="30px" viewBox="0 0 30 30" version="1.1" xmlns="http://www.w3.org/2000/svg" xmlns:xlink="http://www.w3.org/1999/xlink">
    <title>数据审核-选中</title>
    <g id="页面-1" stroke="none" stroke-width="1" fill="none" fill-rule="evenodd">
        <g id="svg切图" transform="translate(-223.000000, -51.000000)">
            <g id="数据审核-选中" transform="translate(223.000000, 51.000000)">
                <rect id="矩形" x="0" y="0" width="30" height="30"></rect>
                <path d="M22.6235644,3 C24.135056,3 25.3740982,4.20345358 25.4238601,5.71986379 L25.9114335,21.4778888 L26,21.5895732 C25.2431914,20.6028336 24.0788448,19.9503455 22.7647568,19.8808923 L22.5313569,19.8747387 L18.5908442,19.8747387 L18.448842,19.8800848 C17.5605047,19.9472159 16.8413901,20.6390007 16.7361881,21.5262962 L16.7244151,21.6759155 L16.4434965,27 L13.3929207,27 L13.1347162,21.6707913 C13.0945892,20.7146661 12.3461315,19.9506591 11.4102223,19.8800646 L11.2684952,19.8747387 L7.34657137,19.8747387 C6.00877771,19.8747387 4.80629648,20.4770576 4,21.4306317 L4.59795957,5.69819974 C4.65902421,4.19061534 5.89434026,3 7.39746107,3 L22.6235644,3 Z M11.2684952,21.1872184 L11.3568045,21.1941734 C11.5870604,21.2308025 11.7715722,21.4083768 11.817722,21.6377607 L11.8283615,21.7260342 L12.0495166,26.9996284 L6.99246835,26.9996284 L6.83181251,26.9949424 C5.50474244,26.9173241 4.4261276,25.8844061 4.28312746,24.563929 L4.27017515,24.39742 L4.26663959,24.232589 L4.26942506,24.1486663 C4.33650177,22.5504 5.6039611,21.2777096 7.17691264,21.1918383 L7.34657137,21.1872184 L11.2684952,21.1872184 Z M18.6398486,21.1862963 L22.5313569,21.1872184 L22.7006577,21.191837 C24.2141911,21.274618 25.4431405,22.4606021 25.5851132,23.975449 L25.5963741,24.1450793 L25.5987473,24.2790059 L25.5940337,24.4381342 C25.5161912,25.7532836 24.4831695,26.8393216 23.1625661,26.9833881 L22.9960411,26.9964387 L22.8313199,27 L17.8231224,26.9996284 L18.0309155,21.7275714 L18.042308,21.6345304 C18.0862563,21.4231105 18.2482954,21.254924 18.4555963,21.2035246 L18.5469983,21.1888609 L18.6398486,21.1862963 Z M19.1801772,8.27929155 L19.0920072,8.35706746 L14.0630873,13.3798393 L11.0548367,10.5650574 L10.9641784,10.4902194 C10.5880232,10.2173563 10.0595009,10.2620134 9.73486359,10.611623 C9.41022625,10.9612326 9.40295101,11.4935884 9.70051767,11.8510853 L9.78125296,11.9366097 L13.448146,15.3674953 L13.5363629,15.4405444 C13.8717613,15.6854317 14.3307211,15.6778917 14.6579565,15.4221184 L14.7437449,15.3462107 L20.4096212,9.68605053 L20.4875252,9.59791996 C20.7732782,9.23084006 20.7486521,8.69900831 20.4127914,8.36024966 C20.0769307,8.021491 19.5472357,7.99421868 19.1801772,8.27929155 Z" id="形状" fill="#979797" fill-rule="nonzero"></path>
            </g>
        </g>
    </g>
</svg>