<?xml version="1.0" encoding="UTF-8"?>
<svg width="30px" height="30px" viewBox="0 0 30 30" version="1.1" xmlns="http://www.w3.org/2000/svg" xmlns:xlink="http://www.w3.org/1999/xlink">
    <title>数据查询1-选中</title>
    <g id="页面-1" stroke="none" stroke-width="1" fill="none" fill-rule="evenodd">
        <g id="svg切图" transform="translate(-303.000000, -9.000000)" fill-rule="nonzero">
            <g id="数据查询1-选中" transform="translate(303.000000, 9.000000)">
                <rect id="矩形" fill="#000000" opacity="0" x="0" y="0" width="30" height="30"></rect>
                <path d="M21.7128906,2.875 C23.4598734,2.875 24.8922307,4.24711653 24.9889367,5.97032371 L24.9941406,6.15625 L24.995787,16.9200289 C23.8275073,15.1033328 21.7881591,13.9 19.4677121,13.9 C15.8404152,13.9 12.9,16.8404152 12.9,20.4677121 C12.9,24.095009 15.8404152,27.0354242 19.4677121,27.0354242 L19.739792,27.0298938 L19.739792,27.125 L7.24082031,27.125 C5.43144531,27.125 3.95957031,25.653125 3.95957031,23.84375 L3.95957031,6.15625 C3.95957031,4.346875 5.43144531,2.875 7.24082031,2.875 L21.7128906,2.875 Z M11.8328125,15.9335938 L9.17412109,15.9335938 C8.65644531,15.9335938 8.23662109,16.353418 8.23662109,16.8710938 C8.23662109,17.3887695 8.65644531,17.8085938 9.17412109,17.8085938 L11.8328125,17.8085938 C12.3504883,17.8085938 12.7703125,17.3887695 12.7703125,16.8710938 C12.7703125,16.353418 12.3504883,15.9335938 11.8328125,15.9335938 Z M16.9014648,11.7407227 L9.17412109,11.7407227 C8.65644531,11.7407227 8.23662109,12.1605469 8.23662109,12.6782227 C8.23662109,13.1958984 8.65644531,13.6157227 9.17412109,13.6157227 L16.9014648,13.6157227 C17.4191406,13.6157227 17.8389648,13.1958984 17.8389648,12.6782227 C17.8389648,12.1605469 17.4191406,11.7407227 16.9014648,11.7407227 Z M19.7795898,7.54785156 L9.17412109,7.54785156 C8.65644531,7.54785156 8.23662109,7.96767578 8.23662109,8.48535156 C8.23662109,9.00302734 8.65644531,9.42285156 9.17412109,9.42285156 L19.7795898,9.42285156 C20.2972656,9.42285156 20.7170898,9.00302734 20.7170898,8.48535156 C20.7170898,7.96767578 20.2972656,7.54785156 19.7795898,7.54785156 Z" id="形状" fill="#979797"></path>
                <path d="M19.4677121,14.9 C22.5427242,14.9 25.0354242,17.3926999 25.0354242,20.4677121 C25.0354242,21.5683963 24.7144608,22.6291764 24.1134965,23.5372708 L23.983,23.724 L25.9307234,25.67219 C26.0794897,25.8210013 26.1315501,26.0331473 26.0793208,26.2291872 L26.0444802,26.3254972 L25.9920472,26.4169162 L25.9306949,26.4897437 L25.4897153,26.9307234 C25.3161022,27.104284 25.0562834,27.1462174 24.8364081,27.0444802 L24.7449891,26.9920472 L24.6721616,26.9306949 L22.724,24.983 L22.5080649,25.1327822 C21.9176183,25.5185708 21.2596544,25.7875675 20.5694059,25.9264594 L20.2717112,25.97798 L19.9706796,26.0133366 L19.7186485,26.0301173 L19.4677121,26.0354242 C16.3926999,26.0354242 13.9,23.5427242 13.9,20.4677121 C13.9,17.3926999 16.3926999,14.9 19.4677121,14.9 Z M19.4677121,16.6800233 C17.3757363,16.6800233 15.6800233,18.3757363 15.6800233,20.4677121 C15.6800233,22.5596879 17.3757363,24.2554009 19.4677121,24.2554009 C21.5596879,24.2554009 23.2554009,22.5596879 23.2554009,20.4677121 C23.2554009,18.3757363 21.5596879,16.6800233 19.4677121,16.6800233 Z" id="形状" fill="#979797"></path>
            </g>
        </g>
    </g>
</svg>