<?xml version="1.0" encoding="UTF-8"?>
<svg width="30px" height="30px" viewBox="0 0 30 30" version="1.1" xmlns="http://www.w3.org/2000/svg" xmlns:xlink="http://www.w3.org/1999/xlink">
    <title>报告-正常</title>
    <g id="页面-1" stroke="none" stroke-width="1" fill="none" fill-rule="evenodd">
        <g id="svg切图" transform="translate(-263.000000, -51.000000)" fill="#979797" fill-rule="nonzero">
            <g id="报告-正常" transform="translate(263.000000, 51.000000)">
                <path d="M23.5954598,23.3320312 L6.40173447,23.3320312 C5.0774136,23.3320312 4,22.2606027 4,20.9436384 L4,5.38839286 C4,4.07142857 5.0774136,3 6.40173447,3 L23.5982655,3 C24.9225864,3 26,4.07142857 26,5.38839286 L26,20.9436384 C25.9971942,22.2606027 24.9197806,23.3320312 23.5954598,23.3320312 Z M6.40173447,4.66573661 C6.00051014,4.66573661 5.67504145,4.98939732 5.67504145,5.38839286 L5.67504145,20.9436384 C5.67504145,21.3426339 6.00051014,21.6662946 6.40173447,21.6662946 L23.5982655,21.6662946 C23.9994899,21.6662946 24.3249586,21.3426339 24.3249586,20.9436384 L24.3249586,5.38839286 C24.3249586,4.98939732 23.9994899,4.66573661 23.5982655,4.66573661 L6.40173447,4.66573661 Z" id="形状"></path>
                <path d="M24.3782681,27 L6.40173447,27 C5.0774136,27 4,25.9285714 4,24.6116071 L4,13.2779018 L5.67504145,13.2779018 L5.67504145,24.6116071 C5.67504145,25.0106027 6.00051014,25.3342634 6.40173447,25.3342634 L24.3782681,25.3342634 L24.3782681,27 Z" id="路径"></path>
                <polygon id="路径" points="16.6175233 14.0546875 12.6529779 11.0970982 8.6884326 14.0546875 8.6884326 4.60993304 10.363474 4.60993304 10.363474 10.7232143 12.6529779 9.01283482 14.9424818 10.7232143 14.9424818 4.60993304 16.6175233 4.60993304"></polygon>
            </g>
        </g>
    </g>
</svg>