<?xml version="1.0" encoding="UTF-8"?>
<svg width="30px" height="30px" viewBox="0 0 30 30" version="1.1" xmlns="http://www.w3.org/2000/svg" xmlns:xlink="http://www.w3.org/1999/xlink">
    <title>提醒消息</title>
    <g id="页面-1" stroke="none" stroke-width="1" fill="none" fill-rule="evenodd">
        <g id="svg切图" transform="translate(-355.000000, -9.000000)" fill-rule="nonzero">
            <g id="提醒消息" transform="translate(355.000000, 9.000000)">
                <rect id="矩形" fill="#000000" opacity="0" x="0" y="0" width="30" height="30"></rect>
                <path d="M17.078125,24.78125 C17.078125,26.225 15.94375,27.359375 14.5,27.359375 C13.1117788,27.359375 12.0095923,26.3105815 11.9268623,24.9464166 L11.921875,24.78125 L17.078125,24.78125 Z M14.5,3.2328125 C16.0093631,3.2328125 17.2756137,4.33395512 17.4677134,5.77565985 L17.475,5.856 L17.6484708,5.9269232 C20.458529,7.13519699 22.4056492,9.85384085 22.622093,12.876006 L22.6372878,13.1601864 L22.6421875,13.4375 L22.6294252,18.3785165 L24.1732266,21.8782305 C24.4007547,22.3332868 24.351641,22.9553938 24.0631372,23.4169998 C23.8016362,23.8354015 23.352756,24.1053147 22.8505613,24.150932 L22.6984375,24.1578125 L6.3015625,24.1578125 C5.73889381,24.1578125 5.22451387,23.8772416 4.93686275,23.4169998 C4.67629705,23.0000947 4.61290406,22.4979217 4.76499635,22.0367854 L4.82369983,21.8847665 L6.3578125,18.4390625 L6.3578125,13.4375 C6.3578125,10.1686852 8.34359366,7.19850215 11.3501867,5.92577667 L11.526,5.854 L11.538819,5.76882271 C11.7584864,4.43427478 12.8138029,3.41228166 14.1398485,3.25412449 L14.3222979,3.23796374 L14.5,3.2328125 Z M14.5,5.0796875 C13.9035699,5.0796875 13.428226,5.51526937 13.3674976,6.09290387 L13.3609375,6.21875 L13.3591933,6.35062892 L13.4623183,7.02094142 L13.3614967,7.18605249 L12.7386632,7.39359916 C10.1440103,8.1768906 8.31805878,10.5258081 8.20977766,13.1871246 L8.2046875,13.4375 L8.19175923,18.8093583 L6.598,22.362 L22.365,22.362 L20.7953125,18.8 L20.7953125,13.4890625 C20.7953125,10.8094449 19.0479868,8.40306299 16.4985811,7.52196146 L16.2572533,7.44386499 L15.6385033,7.23761499 L15.5376817,7.07250392 L15.6390625,6.425 L15.6390625,6.21875 C15.6390625,5.57971771 15.1390323,5.0796875 14.5,5.0796875 Z" id="形状" fill="#979797"></path>
            </g>
        </g>
    </g>
</svg>