<?xml version="1.0" encoding="UTF-8"?>
<svg width="30px" height="30px" viewBox="0 0 30 30" version="1.1" xmlns="http://www.w3.org/2000/svg" xmlns:xlink="http://www.w3.org/1999/xlink">
    <title>系统管理-正常</title>
    <g id="页面-1" stroke="none" stroke-width="1" fill="none" fill-rule="evenodd" stroke-linejoin="round">
        <g id="svg切图" transform="translate(-23.000000, -89.000000)" fill="#979797" fill-rule="nonzero" stroke="#979797" stroke-width="0.4">
            <g id="系统管理-正常" transform="translate(23.000000, 89.000000)">
                <g id="系统管理" transform="translate(3.000000, 3.014631)">
                    <path d="M14.6762486,9.5944833 C14.8909648,9.59470047 15.0972651,9.67054604 15.260061,9.80642 L15.4883812,10.0312215 C15.7898724,10.3183562 16.355555,10.7736158 16.8351907,10.7736158 C17.3912383,10.7736158 18.0890564,10.1495103 18.3071095,9.90677594 C18.483714,9.72246701 18.7278214,9.61809617 18.9830983,9.61774935 C19.0629682,9.61746435 19.1423368,9.62784477 19.2191295,9.64847856 L19.3321273,9.68706777 L21.1749043,10.7736158 C21.4596688,10.9920767 21.5940413,11.388307 21.4988039,11.7435629 L21.4008582,12.0213932 C21.3537415,12.168945 21.2948455,12.3963862 21.2948455,12.6113932 C21.2948455,13.6462008 22.0463684,14.5028297 23.012923,14.5820669 L23.1594519,14.5880472 L23.2249398,14.5880472 C23.489842,14.5774695 23.719575,14.8011977 23.8188324,15.1660339 L23.8490216,15.3118303 L23.8490216,15.3118303 L23.9178403,15.8142814 L23.9178403,15.8142814 L23.947393,16.0791887 L23.947393,16.0791887 L23.9719859,16.3648291 C23.9822157,16.5100348 23.9887255,16.6567203 23.9887255,16.7954427 C23.9887255,16.8862454 23.9858323,16.980827 23.9808409,17.0763562 L23.9603676,17.3629548 L23.9603676,17.3629548 L23.9320769,17.6382502 L23.9320769,17.6382502 L23.8711272,18.0869769 L23.8711272,18.0869769 L23.8361603,18.286628 L23.8361603,18.286628 C23.7675059,18.6715251 23.5663357,18.9441263 23.3041732,18.9864046 L23.2146248,18.9918049 L23.1491369,18.9918049 C22.1241192,18.9918049 21.2845306,19.8703977 21.2845306,20.9684589 C21.2845306,21.1535079 21.3254305,21.3442534 21.3663305,21.4887368 L21.4127928,21.6365855 L21.4127928,21.6365855 L21.4481304,21.7314411 L21.4481304,21.7314411 C21.5953703,22.085037 21.5129419,22.4856494 21.2564552,22.7391893 L21.1645894,22.8179892 L19.2891883,23.9160504 C19.1802817,23.9623426 19.0711351,23.9853688 18.9511939,23.9853688 C18.6894821,23.9738557 18.4385651,23.869998 18.2752051,23.673316 C18.0461174,23.4075555 17.3372647,22.7371577 16.7593879,22.7371577 C16.2704152,22.7371577 15.6799381,23.2171466 15.3842636,23.5118903 L15.2546052,23.6502898 L15.2546052,23.6502898 C15.0818163,23.8414034 14.8362759,23.9505689 14.5786165,23.9508295 C14.4986784,23.9518383 14.4191901,23.9416799 14.3424201,23.9208048 L14.2295875,23.8815111 L12.4412638,22.8297422 L12.4194345,22.8182291 C12.1249548,22.5894063 12.0072924,22.2012712 12.0979248,21.8479128 L12.2041161,21.5267458 C12.2489995,21.3775942 12.2994933,21.1677793 12.2994933,20.9686988 C12.2994932,19.9338911 11.5477528,19.0772622 10.5813847,18.998025 L10.4348869,18.9920448 L10.3583644,18.9920448 C10.0934622,18.9920448 9.8726672,18.7672589 9.77554719,18.410535 L9.74364506,18.2679054 L9.74364506,18.2679054 L9.71289666,18.0892726 L9.71289666,18.0892726 L9.65194692,17.6434242 L9.65194692,17.6434242 L9.62365618,17.3683345 L9.62365618,17.3683345 L9.60318295,17.0802967 C9.59819157,16.9839451 9.5952983,16.8881642 9.5952983,16.7956826 C9.5952983,16.7048799 9.59819157,16.6102983 9.60318225,16.5147692 L9.62365059,16.2281705 L9.62365059,16.2281705 L9.65192805,15.9528752 L9.65192805,15.9528752 L9.71280924,15.5041485 L9.71280924,15.5041485 L9.74762367,15.3044973 L9.74762367,15.3044973 C9.81627801,14.9196002 10.0174482,14.646999 10.2796107,14.6047208 L10.3691591,14.5993204 L10.434647,14.5993204 C11.4596648,14.5993204 12.2992534,13.7209674 12.2992534,12.6226664 C12.2992534,12.4007515 12.2403574,12.1705473 12.1932407,12.0218902 L12.1356535,11.859924 L12.1356535,11.859924 C11.9886296,11.5063282 12.0708853,11.1057158 12.3273352,10.8521759 L12.4191946,10.773376 L12.4520585,10.7618629 L14.3382543,9.66380172 C14.4363662,9.6175095 14.5563074,9.5944833 14.6762486,9.5944833 Z M8.87565094,22.5318409 C9.13278711,22.5317945 9.37041059,22.6689333 9.49899208,22.8915875 C9.62757356,23.1142418 9.62757356,23.3885765 9.49899208,23.6112308 C9.38877938,23.8020773 9.19845419,23.9300961 8.98439648,23.9627489 L8.87565094,23.9709774 L3.11847195,23.9709774 C2.86133577,23.9710238 2.62371229,23.833885 2.4951308,23.6112308 C2.36654932,23.3885765 2.36654932,23.1142418 2.4951308,22.8915875 C2.60534351,22.700741 2.79566869,22.5727222 3.0097264,22.5400695 L3.11847195,22.5318409 L8.87565094,22.5318409 Z M14.883747,11.0504097 L13.3026817,11.975055 L13.3619425,12.1457179 C13.4244868,12.3391109 13.5099401,12.6570618 13.5099401,12.9807715 C13.5099401,14.3680991 12.4741277,15.5239656 11.1655689,15.593284 L11.1139193,15.9291516 L11.1139193,15.9291516 L11.0815601,16.1983431 C11.0613256,16.3899516 11.0456276,16.5989526 11.0456276,16.7839296 L11.0479291,16.9135518 L11.0479291,16.9135518 L11.0639827,17.1845762 L11.0639827,17.1845762 L11.1048972,17.5744211 L11.1048972,17.5744211 L11.1578551,17.9338585 C11.1609695,17.9513905 11.1635844,17.9651336 11.1655689,17.9745752 C12.4849224,18.0441335 13.5099401,19.1884869 13.5099401,20.5870877 C13.5099401,20.818309 13.4663415,21.046592 13.4186349,21.2286428 L13.3619425,21.4221414 L13.3619425,21.4221414 L13.3026817,21.5928043 L14.7964297,22.4829103 L14.8508831,22.4713972 L14.8508831,22.4713972 C15.0295506,22.2795531 15.2227491,22.1017723 15.4287599,21.9396362 C15.9082849,21.558265 16.3556657,21.373336 16.7807374,21.373336 C17.206049,21.373336 17.6639846,21.5697781 18.1437496,21.9511493 C18.2528161,22.0359784 18.3497553,22.1207809 18.4317418,22.1974371 L18.630018,22.3948475 L18.630018,22.3948475 L18.7216264,22.4946632 L18.7216264,22.4946632 L18.7760797,22.5061763 L20.324521,21.5930442 L20.2652602,21.4223359 C20.2027159,21.2288875 20.1172625,20.9108695 20.1172625,20.5873276 C20.1172625,19.2 21.153075,18.0443734 22.4616338,17.9748151 L22.491095,17.7874976 L22.491095,17.7874976 L22.5312812,17.4509034 L22.5312812,17.4509034 L22.5547882,17.1846199 C22.5647297,17.0482312 22.5712601,16.9100503 22.5712601,16.7839296 L22.5625782,16.5197333 L22.5625782,16.5197333 L22.5407253,16.2480331 L22.5407253,16.2480331 L22.4970079,15.8802456 L22.4970079,15.8802456 L22.4513189,15.593284 L22.4513189,15.593284 C21.1317255,15.5239656 20.1069476,14.3678593 20.1069476,12.9807715 C20.1069476,12.7495503 20.1505462,12.5212672 20.1982229,12.3392165 L20.254863,12.1457178 L20.254863,12.1457178 L20.3139662,11.975055 L18.7873542,11.0734359 L18.7763196,11.0734359 C18.7544903,11.0734359 18.7436956,11.0734359 18.7218663,11.084949 C18.5472319,11.258365 18.3618027,11.4315411 18.1547842,11.5819308 C17.6858139,11.9402758 17.2389129,12.1136918 16.8354306,12.1136918 C16.4321882,12.1136918 15.9742526,11.9287627 15.5052824,11.5704178 C15.298024,11.4202678 15.1125948,11.2468519 14.9382003,11.0619229 L14.9151116,11.0518489 L14.9151116,11.0518489 L14.883747,11.0504097 Z M16.8136013,13.8020388 C18.351008,13.8020388 19.6267029,15.1428343 19.6267029,16.7844093 C19.6267029,18.4259844 18.3618027,19.7667799 16.8136013,19.7667799 C15.2541255,19.755027 14.0002599,18.4259844 14.0002599,16.7844093 C14.0002599,15.1428343 15.2651601,13.8020388 16.8136013,13.8020388 Z M21.5894212,0 C22.8590891,0 23.898314,0.98643399 23.9827118,2.23436401 L23.9882458,2.39856087 L23.9882458,8.8746752 C23.9882458,9.13178311 23.8511383,9.36938046 23.6284596,9.49794781 C23.4057808,9.62651516 23.1314159,9.62651516 22.9087372,9.49794781 C22.7178697,9.38774723 22.5898368,9.19744296 22.5571805,8.98340879 L22.548951,8.8746752 L22.548951,2.39856087 C22.548951,1.9072328 22.1778847,1.50111239 21.7011835,1.44560196 L21.5894212,1.43913651 L2.39882459,1.43913651 C2.14434145,1.43913651 1.90028127,1.54021843 1.72033452,1.7201454 C1.57037889,1.87008454 1.47518279,2.064542 1.4476162,2.27245032 L1.43929474,2.39856087 L1.43929474,16.789926 C1.43929474,17.0443812 1.54038777,17.2884145 1.72033452,17.4683415 C1.87029015,17.6182807 2.06476898,17.7134663 2.27270016,17.7410299 L2.39882459,17.7493504 L6.47682635,17.7493504 C6.73396253,17.749304 6.97158601,17.8864428 7.10016749,18.109097 C7.22874898,18.3317513 7.22874898,18.606086 7.10016749,18.8287403 C6.98995479,19.0195868 6.7996296,19.1475715 6.5855719,19.1802437 L6.47682635,19.1884869 L2.39882459,19.1884869 C1.12915671,19.1884869 0.0899317664,18.2022732 0.00553397236,16.9541504 L0,16.789926 L0,2.39856087 C0,1.12903258 0.986322136,0.0899218798 2.23458213,0.00553336399 L2.39882459,0 L21.5894212,0 Z M16.8136013,15.269958 C16.028466,15.269958 15.3851013,15.9518689 15.3851013,16.7841695 C15.3851013,17.6164701 16.0284661,18.298381 16.8136013,18.298381 C17.587702,18.298381 18.2310668,17.6164701 18.2418615,16.7841695 C18.2418615,15.9518689 17.5984967,15.269958 16.8136013,15.269958 Z" id="形状"></path>
                </g>
            </g>
        </g>
    </g>
</svg>