<?xml version="1.0" encoding="UTF-8"?>
<svg width="20px" height="20px" viewBox="0 0 20 20" version="1.1" xmlns="http://www.w3.org/2000/svg" xmlns:xlink="http://www.w3.org/1999/xlink">
    <title>tj</title>
    <g id="页面-1" stroke="none" stroke-width="1" fill="none" fill-rule="evenodd">
        <g id="svg切图-最新" transform="translate(-451.000000, -57.000000)" fill-rule="nonzero">
            <g id="tj" transform="translate(451.000000, 57.000000)">
                <rect id="矩形" fill="#000000" opacity="0" x="0" y="0" width="20" height="20"></rect>
                <path d="M11.8421206,11.9488644 L11.8421206,18.3238637 C11.8417399,18.697118 11.5533052,18.9996007 11.1973857,19 L8.80265611,19 C8.44673669,18.9996007 8.15830196,18.697118 8.15792122,18.3238637 L8.15792122,11.9488644 C8.15830196,11.5756102 8.44673669,11.2731274 8.80265611,11.2727281 L11.1973857,11.2727281 C11.5533052,11.2731274 11.8417399,11.5756102 11.8421206,11.9488644 Z M16.3552649,8.18181937 L13.9605353,8.18181937 C13.6046159,8.18221863 13.3161811,8.4847014 13.3158004,8.85795565 L13.3158004,18.3238637 C13.3161811,18.697118 13.6046159,18.9996007 13.9605353,19 L16.3552649,19 C16.7111843,18.9996007 16.9996191,18.697118 16.9999998,18.3238637 L16.9999998,8.85795565 C16.9996191,8.4847014 16.7111843,8.18221863 16.3552649,8.18181937 L16.3552649,8.18181937 Z M6.03950656,13.5909097 L3.64477695,13.5909097 C3.28885752,13.591309 3.00042279,13.8937917 3.00004206,14.267046 L3.00004206,18.3238637 C3.00042279,18.697118 3.28885752,18.9996007 3.64477695,19 L6.03950656,19 C6.39542599,18.9996007 6.68386072,18.697118 6.68424145,18.3238637 L6.68424145,14.267046 C6.68386072,13.8937917 6.39542599,13.591309 6.03950656,13.5909097 L6.03950656,13.5909097 Z M16.9719078,2.2379777 C16.9536232,2.19201909 16.9270391,2.15020075 16.8936185,2.1148243 L16.8928126,2.11397912 C16.8238029,2.04083295 16.7296983,1.99977458 16.6315798,2.00000093 L14.4210602,2.00000093 C14.2175875,2.00000093 14.0526403,2.17298274 14.0526403,2.38636546 C14.0526403,2.59974818 14.2175875,2.77272905 14.4210602,2.77272905 L15.7421911,2.77272905 L11.4737007,7.24911351 L9.52372301,5.20404271 C9.45462845,5.1315664 9.36090665,5.09084824 9.26318104,5.09084824 C9.16545542,5.09084824 9.07173362,5.1315664 9.00263906,5.20404271 L3.10792003,11.3858602 C2.96402666,11.5367618 2.96402666,11.7814216 3.10792002,11.9323232 C3.25181338,12.0832248 3.48511061,12.0832248 3.62900397,11.9323232 L9.26318105,6.02361647 L11.2131587,8.06868727 C11.2822533,8.14116358 11.3759751,8.18188174 11.4737007,8.18188174 C11.5714263,8.18188174 11.6651481,8.14116358 11.7342427,8.06868727 L16.2631599,3.31907132 L16.2631599,4.70454702 C16.2631599,4.91792975 16.4281071,5.09091062 16.6315798,5.09091062 C16.8350526,5.09091062 17,4.91792975 17,4.70454702 L17,2.38636546 C17,2.3354448 16.9905045,2.28501565 16.9719078,2.2379777 L16.9719078,2.2379777 Z" id="形状" fill="#979797"></path>
            </g>
        </g>
    </g>
</svg>