<?xml version="1.0" encoding="UTF-8"?>
<svg width="20px" height="20px" viewBox="0 0 20 20" version="1.1" xmlns="http://www.w3.org/2000/svg" xmlns:xlink="http://www.w3.org/1999/xlink">
    <title>warning</title>
    <g id="页面-1" stroke="none" stroke-width="1" fill="none" fill-rule="evenodd">
        <g id="svg切图-最新" transform="translate(-355.000000, -57.000000)" fill-rule="nonzero">
            <g id="warning" transform="translate(355.000000, 57.000000)">
                <rect id="矩形" fill="#000000" opacity="0" x="0" y="0" width="20" height="20"></rect>
                <path d="M16.8180486,17.4545454 L19.0907758,17.4545454 C19.5928008,17.454619 19.9997335,17.8616113 19.9997335,18.3636364 C19.9997335,18.8656614 19.5928008,19.2727273 19.0907758,19.2727273 L0.908957668,19.2727273 C0.406932659,19.2727273 0,18.8656614 0,18.3636364 C0,17.8616113 0.406932659,17.454619 0.908957668,17.4545454 L3.18168493,17.4545454 L3.18168493,8.81818182 C3.18168493,5.05272727 6.2344122,2 9.99986675,2 C13.7653213,2 16.8180486,5.05272727 16.8180486,8.81818182 L16.8180486,17.4545454 Z M14.9998667,17.4545454 L14.9998667,8.81818182 C14.9998667,6.05681818 12.7612304,3.81818182 9.99986675,3.81818182 C7.23850312,3.81818182 4.99986675,6.05681818 4.99986675,8.81818182 L4.99986675,17.4545454 L14.9998667,17.4545454 Z M7.32895767,11.9872727 L9.14850312,7.13545453 L10.8512304,7.77363635 L9.94350312,10.1945454 L12.6739577,10.2209091 L10.8503213,15.0481818 L9.1494122,14.4059091 L10.0530486,12.0136363 L7.32895767,11.9872727 Z" id="形状" fill="#979797"></path>
            </g>
        </g>
    </g>
</svg>