<?xml version="1.0" encoding="UTF-8"?>
<svg width="30px" height="30px" viewBox="0 0 30 30" version="1.1" xmlns="http://www.w3.org/2000/svg" xmlns:xlink="http://www.w3.org/1999/xlink">
    <title>xdhy_pre</title>
    <g id="页面-1" stroke="none" stroke-width="1" fill="none" fill-rule="evenodd">
        <g id="svg切图-最新" transform="translate(-106.000000, -168.000000)" fill="#979797" fill-rule="nonzero">
            <g id="xdhy_pre" transform="translate(106.000000, 168.000000)">
                <path d="M15.5,2.11304348 C16.3873754,2.11304348 16.9238975,2.38460727 17.4157149,2.96150949 L17.5668865,3.14980623 L17.792,3.439 L17.8553586,3.40275965 C17.9233737,3.35776409 17.9968143,3.29882259 18.0699351,3.23103529 L18.1786582,3.12335751 L18.2825924,3.00623616 C18.7206767,2.47859206 19.5871986,2.20635635 20.3082399,2.38453991 C21.29624,2.62869431 21.7760586,3.56178904 21.5729296,4.80942206 C21.3702039,6.05457866 20.8365074,7.21309271 20.1390501,7.97359907 L20.2485679,8.06984337 L20.9073061,8.71661276 L21.44679,9.25963838 C22.1817314,10.019227 22.88083,10.8194819 23.5405672,11.6886434 C25.6314068,14.4431905 26.8869565,17.2936633 26.8869565,20.1777716 C26.8869565,24.601422 22.9982769,27.7634408 19.3870723,27.883421 L19.175,27.8869565 L11.825,27.8869565 C8.15571538,27.8869565 4.11304348,24.6881602 4.11304348,20.1777716 C4.11304348,17.2936633 5.36859324,14.4431905 7.45943284,11.6886434 C8.11917002,10.8194819 8.81826857,10.019227 9.55321,9.25963838 L9.7859407,9.02271461 L10.6624001,8.15645227 C10.7273541,8.08928273 10.7947647,8.02534226 10.8644094,7.96473634 C10.1603832,7.19209051 9.62308219,6.01005152 9.42621635,4.75252047 C9.23021094,3.50048558 9.71093374,2.57189608 10.708236,2.3534093 C11.4132268,2.19896147 12.2512003,2.48137852 12.6976956,2.98330142 C12.8638706,3.17010524 13.0360746,3.32494636 13.1771459,3.41475237 L13.21,3.433 L13.4621587,3.10873625 C13.9888002,2.43074096 14.5391335,2.11304348 15.5,2.11304348 Z M18.8107169,12.8490086 L15.938,15.714 L13.0674596,12.8722932 C12.7402661,12.5496786 12.2133089,12.5496786 11.8864919,12.8719213 C11.7374886,12.9892871 11.6389133,13.1937187 11.6389133,13.4099606 L11.6469987,13.5168322 C11.6683873,13.6573082 11.7315189,13.788292 11.8281212,13.8928113 L13.894,15.855 L12.6125,15.8556426 C12.1499548,15.8556427 11.7741305,16.2284182 11.7741305,16.6893273 L11.7806703,16.7939969 C11.8324627,17.2053808 12.1855352,17.523012 12.6125,17.523012 L15.025,17.523 L15.025,18.719 L12.6125,18.7197184 C12.1499548,18.7197184 11.7741305,19.0924939 11.7741305,19.5534031 L11.7806703,19.6580727 C11.8324627,20.0694565 12.1855352,20.3870878 12.6125,20.3870878 L15.025,20.387 L15.0254554,22.6294204 C15.0254554,23.0903296 15.4012798,23.4631051 15.863825,23.4631051 L15.9688952,23.4566174 C16.3819655,23.4052335 16.7021946,23.054875 16.7021946,22.6294204 L16.702,20.387 L19.5425,20.3870878 C20.0050452,20.3870878 20.3808696,20.0143122 20.3808696,19.5534031 L20.3743297,19.4487335 C20.3225373,19.0373496 19.9694648,18.7197184 19.5425,18.7197184 L16.702,18.719 L16.702,17.523 L19.5425,17.523012 C20.0050452,17.523012 20.3808696,17.1502365 20.3808696,16.6893273 C20.3808696,16.2284182 20.0050452,15.8556427 19.5425,15.8556426 L19.2816304,15.8556426 L19.281,15.884 L17.983,15.884 L19.9878506,13.9799875 C20.1451565,13.8389765 20.2381831,13.6310744 20.2381831,13.4128247 C20.2381831,13.2309499 20.1735813,13.056261 20.0578451,12.9185537 L19.9913081,12.8490086 L19.9056659,12.7751614 C19.5780548,12.5290038 19.1102991,12.5536195 18.8107169,12.8490086 Z" id="形状结合"></path>
            </g>
        </g>
    </g>
</svg>