<?xml version="1.0" encoding="UTF-8"?>
<svg width="30px" height="30px" viewBox="0 0 30 30" version="1.1" xmlns="http://www.w3.org/2000/svg" xmlns:xlink="http://www.w3.org/1999/xlink">
    <title>xdhy_def</title>
    <g id="页面-1" stroke="none" stroke-width="1" fill="none" fill-rule="evenodd">
        <g id="svg切图-最新" transform="translate(-144.000000, -168.000000)" fill="#979797" fill-rule="nonzero">
            <g id="xdhy_def" transform="translate(144.000000, 168.000000)">
                <path d="M15.5,2.11304348 C16.3873754,2.11304348 16.9238975,2.38460727 17.4157149,2.96150949 L17.5668865,3.14980623 L17.792,3.439 L17.8553586,3.40275965 C17.9233737,3.35776409 17.9968143,3.29882259 18.0699351,3.23103529 L18.1786582,3.12335751 L18.2825924,3.00623616 C18.7206767,2.47859206 19.5871986,2.20635635 20.3082399,2.38453991 C21.29624,2.62869431 21.7760586,3.56178904 21.5729296,4.80942206 C21.3702039,6.05457866 20.8365074,7.21309271 20.1390501,7.97359907 L20.2485679,8.06984337 L20.9073061,8.71661276 L21.44679,9.25963838 C22.1817314,10.019227 22.88083,10.8194819 23.5405672,11.6886434 C25.6314068,14.4431905 26.8869565,17.2936633 26.8869565,20.1777716 C26.8869565,24.601422 22.9982769,27.7634408 19.3870723,27.883421 L19.175,27.8869565 L11.825,27.8869565 C8.15571538,27.8869565 4.11304348,24.6881602 4.11304348,20.1777716 C4.11304348,17.2936633 5.36859324,14.4431905 7.45943284,11.6886434 C8.11917002,10.8194819 8.81826857,10.019227 9.55321,9.25963838 L9.7859407,9.02271461 L10.6624001,8.15645227 C10.7273541,8.08928273 10.7947647,8.02534226 10.8644094,7.96473634 C10.1603832,7.19209051 9.62308219,6.01005152 9.42621635,4.75252047 C9.23021094,3.50048558 9.71093374,2.57189608 10.708236,2.3534093 C11.4132268,2.19896147 12.2512003,2.48137852 12.6976956,2.98330142 C12.8638706,3.17010524 13.0360746,3.32494636 13.1771459,3.41475237 L13.21,3.433 L13.4621587,3.10873625 C13.9888002,2.43074096 14.5391335,2.11304348 15.5,2.11304348 Z M18.125,8.97828551 L12.8717894,8.97828551 C12.5305056,8.97707341 12.1968823,9.12146563 11.9538695,9.37231038 L10.9042252,10.4149887 L10.8280688,10.4931304 C10.1392959,11.2050022 9.48573396,11.9531315 8.8724016,12.7611576 C6.99417151,15.2356054 5.88695652,17.7493139 5.88695652,20.1777716 C5.88695652,23.5273915 8.91385856,25.9985796 11.6356449,26.1091761 L11.825,26.1130435 L19.175,26.1130435 C21.9437182,26.1130435 25.1130435,23.6052897 25.1130435,20.1777716 C25.1130435,17.7493139 24.0058285,15.2356054 22.1275984,12.7611576 C21.6369325,12.1147367 21.1205197,11.5066498 20.5809295,10.9247935 L20.1064448,10.4258778 L19.0624001,9.3895917 C18.8401581,9.15976935 18.5632982,9.02085351 18.2717898,8.98663516 L18.125,8.97828551 Z M18.8107169,12.8490086 C19.1102991,12.5536195 19.5780548,12.5290038 19.9056659,12.7751614 L19.9056659,12.7751614 L19.9913081,12.8490086 L20.0578451,12.9185537 C20.1735813,13.056261 20.2381831,13.2309499 20.2381831,13.4128247 C20.2381831,13.6310744 20.1451565,13.8389765 19.9878506,13.9799875 L19.9878506,13.9799875 L17.983,15.884 L19.281,15.884 L19.2816304,15.8556426 L19.5425,15.8556426 C20.0050452,15.8556427 20.3808696,16.2284182 20.3808696,16.6893273 C20.3808696,17.1502365 20.0050452,17.523012 19.5425,17.523012 L19.5425,17.523012 L16.702,17.523 L16.702,18.719 L19.5425,18.7197184 C19.9694648,18.7197184 20.3225373,19.0373496 20.3743297,19.4487335 L20.3743297,19.4487335 L20.3808696,19.5534031 C20.3808696,20.0143122 20.0050452,20.3870878 19.5425,20.3870878 L19.5425,20.3870878 L16.702,20.387 L16.7021946,22.6294204 C16.7021946,23.054875 16.3819655,23.4052335 15.9688952,23.4566174 L15.9688952,23.4566174 L15.863825,23.4631051 C15.4012798,23.4631051 15.0254554,23.0903296 15.0254554,22.6294204 L15.0254554,22.6294204 L15.025,20.387 L12.6125,20.3870878 C12.1855352,20.3870878 11.8324627,20.0694565 11.7806703,19.6580727 L11.7806703,19.6580727 L11.7741305,19.5534031 C11.7741305,19.0924939 12.1499548,18.7197184 12.6125,18.7197184 L12.6125,18.7197184 L15.025,18.719 L15.025,17.523 L12.6125,17.523012 C12.1855352,17.523012 11.8324627,17.2053808 11.7806703,16.7939969 L11.7806703,16.7939969 L11.7741305,16.6893273 C11.7741305,16.2284182 12.1499548,15.8556427 12.6125,15.8556426 L12.6125,15.8556426 L13.894,15.855 L11.8281212,13.8928113 C11.7315189,13.788292 11.6683873,13.6573082 11.6469987,13.5168322 L11.6469987,13.5168322 L11.6389133,13.4099606 C11.6389133,13.1937187 11.7374886,12.9892871 11.8864919,12.8719213 C12.2133089,12.5496786 12.7402661,12.5496786 13.0674596,12.8722932 L13.0674596,12.8722932 L15.938,15.714 Z M15.5,3.88695652 C15.1776111,3.88695652 15.0938761,3.91461641 14.9292432,4.1138789 L14.6783051,4.43836693 L14.507099,4.64846425 C14.4788726,4.68122655 14.4503978,4.71327831 14.421071,4.74524415 C13.4522442,5.80125224 12.3472253,5.25827587 11.3723044,4.16232886 C11.3610652,4.14969442 11.316696,4.12987532 11.2648298,4.11331143 L11.2114141,4.09821927 L11.158,4.088 L11.1545047,4.13408121 C11.1521762,4.17361798 11.1523279,4.22183394 11.1560207,4.2790672 L11.1643485,4.37172233 L11.1787837,4.47815697 C11.3906124,5.8312674 12.1661357,6.99236212 12.556891,7.09987429 L12.6125,7.10799155 L18.3875,7.10799155 C18.7596962,7.10799155 19.5917668,5.93890336 19.8220703,4.52436211 L19.8820201,4.12001708 L19.8826726,4.10664908 C19.8548921,4.09978398 19.8113008,4.10412336 19.7691492,4.11161277 L19.6474076,4.13939412 C18.7494016,5.22098408 17.558142,5.8009911 16.5822046,4.74879508 C16.521765,4.68363282 16.4649427,4.61809183 16.4068193,4.54715636 L16.129791,4.19104893 C15.919113,3.92093289 15.8599169,3.88695652 15.5,3.88695652 Z" id="形状结合"></path>
            </g>
        </g>
    </g>
</svg>