<?xml version="1.0" encoding="UTF-8"?>
<svg width="30px" height="30px" viewBox="0 0 30 30" version="1.1" xmlns="http://www.w3.org/2000/svg" xmlns:xlink="http://www.w3.org/1999/xlink">
    <title>xdhy_def</title>
    <g id="页面-1" stroke="none" stroke-width="1" fill="none" fill-rule="evenodd">
        <g id="svg切图" transform="translate(-144.000000, -168.000000)" fill-rule="nonzero" stroke="#979797">
            <g id="xdhy_def" transform="translate(144.000000, 168.000000)">
                <g id="编组" transform="translate(5.000000, 3.000000)">
                    <path d="M7.61249999,4.99494807 L13.3875,4.99494807 C14.282625,4.99494807 15.3972,3.51135685 15.6975,1.66689208 C15.9978,-0.177572687 14.36925,0.0859222722 13.965,0.572815139 C13.56075,1.05970801 12.7638,1.71844544 12.2325,1.14563028 C11.7012,0.572815112 11.5857,0 10.5,0 C9.41429999,0 9.29302499,0.572815139 8.7675,1.14563028 C8.24197501,1.71844542 7.468125,1.05970801 7.035,0.572815139 C6.601875,0.0859222722 5.01375,-0.229126077 5.3025,1.61533872 C5.59125001,3.45980351 6.71159999,4.99494807 7.61249999,4.99494807 Z M14.7,5.77302198 C14.2748302,5.33335031 13.7107908,5.08923762 13.125,5.0913581 L7.87499999,5.0913581 C7.28920925,5.08923762 6.72516981,5.33335031 6.3,5.77302198 C5.81699999,6.30001193 0,11.3522415 0,17.1777716 C0,21.8576713 4.5045,24 6.82500001,24 L14.175,24 C16.4955,24 21,21.8576713 21,17.1777716 C21,11.3522415 15.183,6.30001193 14.7,5.77302198 Z" id="形状" stroke-width="1.77391304"></path>
                    <path d="M14.5425,13.1165122 C14.8614444,13.1165122 15.12,13.3729703 15.12,13.6893273 C15.12,14.0056844 14.8614444,14.2621425 14.5425,14.2621425 L11.441325,14.2621425 L11.441325,15.9805879 L14.5425,15.9805879 C14.8614444,15.9805879 15.12,16.237046 15.12,16.5534031 C15.12,16.8697601 14.8614444,17.1262182 14.5425,17.1262182 L11.441325,17.1262182 L11.441325,19.6294204 C11.441325,19.9457775 11.1827694,20.2022356 10.863825,20.2022356 C10.5448806,20.2022356 10.286325,19.9457775 10.286325,19.6294204 L10.286325,17.1262182 L7.61249999,17.1262182 C7.29355556,17.1262182 7.03500002,16.8697601 7.03500002,16.5534031 C7.03500002,16.237046 7.29355556,15.9805879 7.61249999,15.9805879 L10.286325,15.9805879 L10.286325,14.2621425 L7.61249999,14.2621425 C7.29355557,14.2621425 7.03500004,14.0056844 7.03500004,13.6893273 C7.03500004,13.3729703 7.29355557,13.1165122 7.61249999,13.1165122 L9.547125,13.1165122 L7.06965,10.7622419 C6.96223219,10.6763365 6.8997829,10.5468251 6.8997829,10.4099606 C6.8997829,10.2730961 6.96223219,10.1435848 7.06965,10.0576793 C7.29489663,9.83558535 7.65867837,9.83558535 7.883925,10.0576793 L10.9389,13.0821433 L13.993875,10.0347667 C14.2191216,9.81267273 14.5829034,9.81267273 14.80815,10.0347667 C14.9158598,10.131417 14.9773135,10.268758 14.9773135,10.4128247 C14.9773135,10.5568914 14.9158598,10.6942323 14.80815,10.7908827 L12.330675,13.1451529 L14.5425,13.1451529 L14.5425,13.1165122 Z" id="路径" stroke-width="0.52173913" fill="#979797"></path>
                </g>
            </g>
        </g>
    </g>
</svg>