<?xml version="1.0" encoding="UTF-8"?>
<svg width="30px" height="30px" viewBox="0 0 30 30" version="1.1" xmlns="http://www.w3.org/2000/svg" xmlns:xlink="http://www.w3.org/1999/xlink">
    <title>xxgl_def</title>
    <g id="页面-1" stroke="none" stroke-width="1" fill="none" fill-rule="evenodd">
        <g id="svg切图-最新" transform="translate(-23.000000, -89.000000)" fill="#979797" fill-rule="nonzero">
            <g id="xxgl_def" transform="translate(23.000000, 89.000000)">
                <path d="M17.6764509,12.4091146 C17.893609,12.4093343 18.1046481,12.473055 18.2913934,12.5969816 L18.40038,12.678536 L18.6263123,12.9010252 C19.0471898,13.3018612 19.5045094,13.5882471 19.8351907,13.5882471 C20.2119402,13.5882471 20.8058178,13.1801611 21.1627021,12.7830362 C21.3769647,12.5594264 21.6731209,12.4328015 21.9823846,12.4323818 C22.0473921,12.4321499 22.1122015,12.4376955 22.1798303,12.4500574 L22.2837652,12.4738422 L22.4337092,12.5294169 L24.2966402,13.6295639 C24.6117919,13.8713367 24.7736882,14.2841994 24.7151828,14.6899486 L24.6874258,14.8246905 L24.5913804,15.0968627 C24.5323271,15.2817953 24.4948455,15.467589 24.4948455,15.6260244 C24.4948455,16.5053473 25.0944715,17.2406757 25.8805143,17.3787842 L26.0210788,17.3968645 L26.1594519,17.4026784 L26.2169601,17.4028376 C26.5546197,17.3893548 26.8349499,17.631122 26.9764683,18.0193568 L27.0146779,18.1401125 L27.0471717,18.2993218 L27.1166072,18.8067384 L27.1466558,19.0766639 L27.1714914,19.3654051 L27.1867558,19.6696681 C27.1880598,19.7178135 27.1887255,19.7646357 27.1887255,19.810074 L27.1866286,19.9519961 L27.1803325,20.1052381 L27.1593199,20.3980314 L27.1302571,20.6797999 L27.0681286,21.1361109 L27.0330526,21.3363791 C26.9585922,21.7538266 26.7431169,22.0714781 26.4257294,22.1744557 L26.3162127,22.2006731 L26.2146248,22.2064361 L26.1491369,22.2064361 C25.2333421,22.2064361 24.4845306,22.997075 24.4845306,23.9830901 C24.4845306,24.0769925 24.496848,24.1796704 24.5183592,24.28476 L24.5571309,24.4434078 L24.6002098,24.5813963 L24.6327628,24.6691901 C24.7919256,25.0514188 24.7308631,25.4851632 24.4780153,25.803876 L24.3866685,25.9056247 L24.2656434,26.0052127 L22.3674263,27.1147436 C22.2328337,27.171954 22.0970323,27.2 21.9424041,27.1998107 C21.6161182,27.185453 21.3169297,27.0512046 21.1237186,26.8185299 C20.7493424,26.3842229 20.1505319,25.9517889 19.7593879,25.9517889 C19.458335,25.9517889 19.0368964,26.1994573 18.6664229,26.534033 L18.530219,26.6632586 L18.40296,26.799051 C18.1922997,27.0320524 17.8929459,27.1651429 17.5811402,27.1654448 C17.5155572,27.1662724 17.4501387,27.1610039 17.3817789,27.1485402 L17.2766449,27.1243107 L17.1281968,27.068537 L15.2967189,25.9907871 C14.9787986,25.7437501 14.8246049,25.3404325 14.881272,24.9348321 L14.9080354,24.7997587 L15.0125997,24.4837451 C15.0667696,24.3037334 15.0994933,24.1314764 15.0994933,23.98333 C15.0994932,23.1040871 14.4997447,22.3686919 13.7137764,22.2305716 L13.5732272,22.2124898 L13.4348869,22.206676 L13.3583644,22.206676 C13.0286668,22.206676 12.7605588,21.9707525 12.6217556,21.5980033 L12.5803698,21.4688218 L12.5465437,21.3164641 L12.5147397,21.1309929 L12.4529963,20.6785159 L12.4241595,20.3971456 L12.4034508,20.1052748 C12.3980904,20.0017999 12.3952983,19.9032564 12.3952983,19.8103138 L12.397395,19.6683956 L12.4036904,19.515153 L12.4246974,19.2223659 L12.4537438,18.9406176 L12.5157823,18.4844229 L12.5507313,18.2840087 C12.6251917,17.8665612 12.8406671,17.5489096 13.1580546,17.4459321 L13.2675713,17.4197147 L13.3691591,17.4139516 L13.434647,17.4139516 C14.3505245,17.4139516 15.0992534,16.6234664 15.0992534,15.6372976 C15.0992534,15.5138144 15.0781391,15.3765482 15.0435691,15.2397023 L15.0047974,15.1035225 L14.9509812,14.9513414 C14.7920328,14.5690671 14.8530585,14.1353774 15.1058056,13.816733 L15.1971166,13.7150075 L15.3530697,13.5992547 L17.2529109,12.4975559 C17.345981,12.4536425 17.4526252,12.4258509 17.5638416,12.4146997 L17.6764509,12.4091146 Z M11.8756149,25.3464721 C12.2042075,25.3464128 12.5078682,25.5216634 12.6721864,25.8062001 C12.8365088,26.090744 12.8365088,26.4413367 12.6721864,26.7258807 C12.5522185,26.9336194 12.3570419,27.0844106 12.1208453,27.1507848 L11.999487,27.17681 L11.8756509,27.1856087 L6.11850802,27.1856087 C5.78991535,27.1856679 5.48625471,27.0104173 5.3219365,26.7258807 C5.15761409,26.4413367 5.15761409,26.090744 5.3219365,25.8062001 C5.44190436,25.5984614 5.63708095,25.4476702 5.87327754,25.381296 L5.99463589,25.3552708 L6.11847195,25.3464721 L11.8756149,25.3464721 Z M17.888,14.293 L16.545,15.079 L16.5522383,15.0988064 C16.6246865,15.3228233 16.6771697,15.548585 16.6988833,15.7723888 L16.7099401,15.9954028 C16.7099401,17.3679136 15.7644796,18.5317559 14.5099966,18.767627 L14.339,18.793 L14.3124898,18.9676528 L14.2804542,19.2339782 C14.2637218,19.3924232 14.2524981,19.5403892 14.2479187,19.6707634 L14.2455961,19.7950103 L14.2475792,19.9163571 L14.2628903,20.1783319 L14.3027611,20.5598998 L14.338,20.803 C15.6342402,20.9572036 16.6244029,22.060775 16.7046796,23.4226721 L16.7099401,23.601719 C16.7099401,23.7696669 16.6896421,23.9425325 16.6527934,24.1202184 L16.6105667,24.2995074 L16.544,24.518 L17.791,25.261 L17.8951383,25.1553095 C17.9602902,25.0921852 18.0270242,25.0307691 18.0952445,24.9711455 L18.304269,24.7977362 C18.8141216,24.3922452 19.3034121,24.1879672 19.7807374,24.1879672 C20.254637,24.1879672 20.7535134,24.4000863 21.2665373,24.8079098 L21.4216368,24.9346728 L21.5728534,25.0703379 L21.785,25.283 L23.081,24.518 L23.0749592,24.4984939 C23.0025163,24.2744293 22.9500334,24.048647 22.9283196,23.8248951 L22.9172625,23.6019588 C22.9172625,22.2295281 23.8626486,21.0658423 25.1171598,20.8297914 L25.288,20.803 L25.332056,20.4479474 L25.3553174,20.1847115 L25.364066,20.0467754 L25.371368,19.8051296 L25.363222,19.5503988 L25.3421234,19.2862713 L25.2994957,18.9263241 L25.278,18.793 C23.9869689,18.6432367 22.9895557,17.5283169 22.9118282,16.166822 L22.9069476,15.9954028 C22.9069476,15.827483 22.9272355,15.6546613 22.9640681,15.4769723 L23.0062771,15.2976621 L23.071,15.078 L21.783,14.318 L21.7351991,14.3659028 C21.6118928,14.483647 21.5001574,14.5823478 21.3884036,14.6705121 L21.2762144,14.7554793 C20.7816674,15.1333678 20.2933637,15.328323 19.8354306,15.328323 C19.3814718,15.328323 18.8828556,15.1252599 18.3879465,14.7470128 C18.2352906,14.6364201 18.0892187,14.5109879 17.9690447,14.3852148 L17.888,14.293 Z M19.8136013,16.61667 C21.4678282,16.61667 22.8267029,18.0534354 22.8267029,19.7990406 C22.8267029,21.5484719 21.4750249,22.9814055 19.8120941,22.9814055 C18.1403727,22.9688066 16.8002599,21.5482297 16.8002599,19.7990406 C16.8002599,18.0495674 18.1519779,16.61667 19.8136013,16.61667 Z M24.5894212,2.81463122 C25.9014102,2.81463122 26.9956242,3.79005978 27.1657118,5.07320185 L27.1825983,5.2422584 L27.1882458,5.41319209 L27.1882458,11.8893064 C27.1882458,12.2178875 27.0130013,12.5214991 26.7284617,12.6857829 C26.4439017,12.8500784 26.0932951,12.8500784 25.808735,12.6857829 C25.6009748,12.565829 25.4501641,12.3706693 25.3837801,12.1344859 L25.3577509,12.0131338 L25.348951,11.8893064 L25.348951,5.4131921 C25.348951,5.0625675 25.1085446,4.76262368 24.7880301,4.67849754 L24.6896328,4.65989936 L24.5894212,4.65376773 L5.39882458,4.65376773 C5.19738011,4.65376773 5.00418763,4.73378188 4.8617481,4.87620575 C4.76717133,4.97077212 4.69978334,5.08807117 4.66606072,5.20908768 L4.64718221,5.30024998 L4.63929474,5.41319209 L4.63929474,19.8045573 C4.63929474,20.0059645 4.7193128,20.199124 4.8617481,20.3415436 C4.9563273,20.4361124 5.07364493,20.503496 5.19468492,20.5372171 L5.28586573,20.5560949 L5.39882459,20.5639816 L9.47679026,20.5639816 C9.80538293,20.5639223 10.1090436,20.7391729 10.2733618,21.0237096 C10.4376842,21.3082535 10.4376842,21.6588462 10.2733618,21.9433902 C10.1534022,22.1511146 9.95823753,22.3018841 9.72204565,22.3682693 L9.60068901,22.3943028 L9.47682635,22.4031181 L5.39882459,22.4031181 C4.08676477,22.4031181 2.99260991,21.427823 2.82253284,20.1445874 L2.80564743,19.9755174 L2.8,19.8045573 L2.8,5.41319209 C2.8,4.10125571 3.77540389,3.00721868 5.05876182,2.83716138 L5.22784791,2.82027799 L5.39882459,2.81463122 L24.5894212,2.81463122 Z M19.8136013,18.4845892 C19.1415931,18.4845892 18.5851013,19.0744559 18.5851013,19.7988007 C18.5851013,20.5231455 19.1415931,21.1130122 19.8136013,21.1130122 C20.4750117,21.1130122 21.0324642,20.5220587 21.0418615,19.7988007 C21.0418615,19.0744906 20.4854014,18.4845892 19.8136013,18.4845892 Z" id="形状"></path>
            </g>
        </g>
    </g>
</svg>