<?xml version="1.0" encoding="UTF-8"?>
<svg width="30px" height="30px" viewBox="0 0 30 30" version="1.1" xmlns="http://www.w3.org/2000/svg" xmlns:xlink="http://www.w3.org/1999/xlink">
    <title>xxgl_pre</title>
    <g id="页面-1" stroke="none" stroke-width="1" fill="none" fill-rule="evenodd">
        <g id="svg切图" transform="translate(-63.000000, -89.000000)" fill="#979797" fill-rule="nonzero">
            <g id="xxgl_pre" transform="translate(63.000000, 89.000000)">
                <path d="M14.4330539,25.5468636 C14.5110147,25.8315292 14.6627236,26.0876554 14.8773964,26.2893895 L14.9899299,26.3856042 L16.004,26.9846312 L6.11847195,26.9856087 C5.86133577,26.985655 5.62371229,26.8485162 5.4951308,26.625862 C5.36654932,26.4032078 5.36654932,26.128873 5.4951308,25.9062188 C5.60534351,25.7153723 5.79566869,25.5873534 6.0097264,25.5547007 L6.11847195,25.546472 L14.4330539,25.5468636 Z M24.5894212,3.01463122 L24.7536636,3.02016458 C25.9476515,3.10088403 26.9019835,4.05511111 26.9827118,5.24896769 L26.9882458,5.41319209 L26.989238,17.1767646 C26.8048523,17.0222794 26.5861066,16.9269939 26.3445729,16.9064609 L26.1608365,16.9026803 L26.0420682,16.8973053 L25.9443021,16.8828698 L25.8332079,16.8563665 C25.3596591,16.7135737 24.9948455,16.2143449 24.9948455,15.6260244 C24.9948455,15.5557555 25.0089554,15.4629146 25.0361575,15.3577926 L25.067686,15.2489582 L25.1589294,14.9910768 L25.2048998,14.7908308 L25.220554,14.6381633 C25.2503984,14.1366117 25.066098,13.6614866 24.7216525,13.3357377 L24.6009801,13.2328559 L22.687958,12.0988852 L22.4575322,12.0050085 L22.2913685,11.9626569 L22.1796173,11.9448817 C22.1090385,11.9358355 22.0451026,11.9321549 21.9806005,11.932385 C21.5362848,11.9329867 21.1100327,12.1153082 20.8016837,12.437109 C20.4852485,12.7888415 20.0111068,13.0882471 19.8351907,13.0882471 C19.7001535,13.0882471 19.4083614,12.9265118 19.0910653,12.6485509 L18.9711401,12.5389564 L18.7512083,12.3222784 L18.590957,12.1966547 L18.4443585,12.1080968 C18.2471665,12.0010773 18.0432237,11.9381114 17.8344309,11.9170691 L17.6769566,11.9091149 L17.5390735,11.9153136 L17.4001844,11.9338727 C17.3111673,11.9492959 17.2289928,11.9708535 17.1518113,11.9987467 L17.0395525,12.0453632 L15.1022462,13.1667185 L14.8991173,13.3135148 L14.8250299,13.3810143 L14.7337189,13.4827398 L14.6358093,13.6184914 C14.364467,14.0352358 14.2948916,14.5329526 14.4348691,14.9919178 L14.5334047,15.2702226 L14.5626797,15.376616 L14.5823129,15.4684104 C14.5931495,15.5292701 14.5992534,15.5881596 14.5992534,15.6372976 C14.5992534,16.3064059 14.1341262,16.8429953 13.552436,16.9074553 L13.434647,16.9139516 L13.3691591,16.9139516 L13.2392519,16.9205173 L13.0416478,16.9596714 L12.9099414,17.0094231 C12.4899339,17.1930604 12.2149788,17.5661971 12.0933524,18.0361132 L12.0585004,18.1962092 L12.0232156,18.3985272 L11.9583041,18.8732421 L11.9273335,19.1710909 L11.9049724,19.4793708 L11.8978164,19.6478724 L11.8953529,19.8029276 L11.8975236,19.9653522 L11.9041203,20.131142 L11.9254133,20.4325324 L11.9556016,20.7294923 L12.0193308,21.1985947 L12.0537366,21.4009692 L12.0922552,21.5771919 L12.1455946,21.7505506 L12.2044283,21.8919546 C12.2574639,22.006379 12.3199727,22.1109904 12.3908876,22.2043126 L5.39882459,22.2031181 C4.12915671,22.2031181 3.08993177,21.2169044 3.00553397,19.9687817 L3,19.8045573 L3,5.41319209 C3,4.1436638 3.98632214,3.1045531 5.23458213,3.02016458 L5.39882459,3.01463122 L24.5894212,3.01463122 Z" id="形状"></path>
                <path d="M17.6764509,12.4091146 C17.893609,12.4093343 18.1046481,12.473055 18.2913934,12.5969816 L18.40038,12.678536 L18.6263123,12.9010252 C19.0471898,13.3018612 19.5045094,13.5882471 19.8351907,13.5882471 C20.2119402,13.5882471 20.8058178,13.1801611 21.1627021,12.7830362 C21.3769647,12.5594264 21.6731209,12.4328015 21.9823846,12.4323818 C22.0473921,12.4321499 22.1122015,12.4376955 22.1798303,12.4500574 L22.2837652,12.4738422 L22.4337092,12.5294169 L24.2966402,13.6295639 C24.6117919,13.8713367 24.7736882,14.2841994 24.7151828,14.6899486 L24.6874258,14.8246905 L24.5913804,15.0968627 C24.5323271,15.2817953 24.4948455,15.467589 24.4948455,15.6260244 C24.4948455,16.5053473 25.0944715,17.2406757 25.8805143,17.3787842 L26.0210788,17.3968645 L26.1594519,17.4026784 L26.2169601,17.4028376 C26.5546197,17.3893548 26.8349499,17.631122 26.9764683,18.0193568 L27.0146779,18.1401125 L27.0471717,18.2993218 L27.1166072,18.8067384 L27.1466558,19.0766639 L27.1714914,19.3654051 L27.1867558,19.6696681 C27.1880598,19.7178135 27.1887255,19.7646357 27.1887255,19.810074 L27.1866286,19.9519961 L27.1803325,20.1052381 L27.1593199,20.3980314 L27.1302571,20.6797999 L27.0681286,21.1361109 L27.0330526,21.3363791 C26.9585922,21.7538266 26.7431169,22.0714781 26.4257294,22.1744557 L26.3162127,22.2006731 L26.2146248,22.2064361 L26.1491369,22.2064361 C25.2333421,22.2064361 24.4845306,22.997075 24.4845306,23.9830901 C24.4845306,24.0769925 24.496848,24.1796704 24.5183592,24.28476 L24.5571309,24.4434078 L24.6002098,24.5813963 L24.6327628,24.6691901 C24.7919256,25.0514188 24.7308631,25.4851632 24.4780153,25.803876 L24.3866685,25.9056247 L24.2656434,26.0052127 L22.3674263,27.1147436 C22.2328337,27.171954 22.0970323,27.2 21.9424041,27.1998107 C21.6161182,27.185453 21.3169297,27.0512046 21.1237186,26.8185299 C20.7493424,26.3842229 20.1505319,25.9517889 19.7593879,25.9517889 C19.458335,25.9517889 19.0368964,26.1994573 18.6664229,26.534033 L18.530219,26.6632586 L18.40296,26.799051 C18.1922997,27.0320524 17.8929459,27.1651429 17.5811402,27.1654448 C17.5155572,27.1662724 17.4501387,27.1610039 17.3817789,27.1485402 L17.2766449,27.1243107 L17.1281968,27.068537 L15.2967189,25.9907871 C14.9787986,25.7437501 14.8246049,25.3404325 14.881272,24.9348321 L14.9080354,24.7997587 L15.0125997,24.4837451 C15.0667696,24.3037334 15.0994933,24.1314764 15.0994933,23.98333 C15.0994932,23.1040871 14.4997447,22.3686919 13.7137764,22.2305716 L13.5732272,22.2124898 L13.4348869,22.206676 L13.3583644,22.206676 C13.0286668,22.206676 12.7605588,21.9707525 12.6217556,21.5980033 L12.5803698,21.4688218 L12.5465437,21.3164641 L12.5147397,21.1309929 L12.4529963,20.6785159 L12.4241595,20.3971456 L12.4034508,20.1052748 C12.3980904,20.0017999 12.3952983,19.9032564 12.3952983,19.8103138 L12.397395,19.6683956 L12.4036904,19.515153 L12.4246974,19.2223659 L12.4537438,18.9406176 L12.5157823,18.4844229 L12.5507313,18.2840087 C12.6251917,17.8665612 12.8406671,17.5489096 13.1580546,17.4459321 L13.2675713,17.4197147 L13.3691591,17.4139516 L13.434647,17.4139516 C14.3505245,17.4139516 15.0992534,16.6234664 15.0992534,15.6372976 C15.0992534,15.5138144 15.0781391,15.3765482 15.0435691,15.2397023 L15.0047974,15.1035225 L14.9509812,14.9513414 C14.7920328,14.5690671 14.8530585,14.1353774 15.1058056,13.816733 L15.1971166,13.7150075 L15.3530697,13.5992547 L17.2529109,12.4975559 C17.345981,12.4536425 17.4526252,12.4258509 17.5638416,12.4146997 L17.6764509,12.4091146 Z M17.888,14.2936312 L16.545,15.0786312 L16.5522383,15.0988064 C16.6246865,15.3228233 16.6771697,15.548585 16.6988833,15.7723888 L16.7099401,15.9954028 C16.7099401,17.3679136 15.7644796,18.5317559 14.5099966,18.767627 L14.339,18.7926312 L14.3124898,18.9676528 L14.2804542,19.2339782 C14.2637218,19.3924232 14.2524981,19.5403892 14.2479187,19.6707634 L14.2455961,19.7950103 L14.2475792,19.9163571 L14.2628903,20.1783319 L14.3027611,20.5598998 L14.338,20.8026312 C15.6342402,20.9572036 16.6244029,22.060775 16.7046796,23.4226721 L16.7099401,23.601719 C16.7099401,23.7696669 16.6896421,23.9425325 16.6527934,24.1202184 L16.6105667,24.2995074 L16.544,24.5176312 L17.79,25.2616312 L17.8951383,25.1553095 L18.0952445,24.9711455 L18.304269,24.7977362 C18.8141216,24.3922452 19.3034121,24.1879672 19.7807374,24.1879672 C20.254637,24.1879672 20.7535134,24.4000863 21.2665373,24.8079098 L21.4216368,24.9346728 L21.5728534,25.0703379 L21.785,25.2826312 L23.081,24.5176312 L23.0749592,24.4984939 C23.0025163,24.2744293 22.9500334,24.048647 22.9283196,23.8248951 L22.9172625,23.6019588 C22.9172625,22.2295281 23.8626486,21.0658423 25.1171598,20.8297914 L25.288,20.8026312 L25.332056,20.4479474 L25.3553174,20.1847115 L25.364066,20.0467754 L25.371368,19.8051296 L25.363222,19.5503988 L25.3421234,19.2862713 L25.2994957,18.9263241 L25.278,18.7936312 C23.9869689,18.6432367 22.9895557,17.5283169 22.9118282,16.166822 L22.9069476,15.9954028 C22.9069476,15.827483 22.9272355,15.6546613 22.9640681,15.4769723 L23.0062771,15.2976621 L23.071,15.0786312 L21.784,14.3176312 L21.7351991,14.3659028 C21.6118928,14.483647 21.5001574,14.5823478 21.3884036,14.6705121 L21.2762144,14.7554793 C20.7816674,15.1333678 20.2933637,15.328323 19.8354306,15.328323 C19.3814718,15.328323 18.8828556,15.1252599 18.3879465,14.7470128 C18.2352906,14.6364201 18.0892187,14.5109879 17.9690447,14.3852148 L17.888,14.2936312 Z M19.8136013,16.61667 C21.4678282,16.61667 22.8267029,18.0534354 22.8267029,19.7990406 C22.8267029,21.5484719 21.4750249,22.9814055 19.8120941,22.9814055 C18.1403727,22.9688066 16.8002599,21.5482297 16.8002599,19.7990406 C16.8002599,18.0495674 18.1519779,16.61667 19.8136013,16.61667 Z M19.8136013,18.4845892 C19.1415931,18.4845892 18.5851013,19.0744559 18.5851013,19.7988007 C18.5851013,20.5231455 19.1415931,21.1130122 19.8136013,21.1130122 C20.4750117,21.1130122 21.0324642,20.5220587 21.0418615,19.7988007 C21.0418615,19.0744906 20.4854014,18.4845892 19.8136013,18.4845892 Z" id="形状"></path>
            </g>
        </g>
    </g>
</svg>