<?xml version="1.0" encoding="UTF-8"?>
<svg width="30px" height="30px" viewBox="0 0 30 30" version="1.1" xmlns="http://www.w3.org/2000/svg" xmlns:xlink="http://www.w3.org/1999/xlink">
    <title>zlhy_pre</title>
    <g id="页面-1" stroke="none" stroke-width="1" fill="none" fill-rule="evenodd">
        <g id="svg切图-最新" transform="translate(-268.000000, -168.000000)" fill="#979797" fill-rule="nonzero">
            <g id="zlhy_pre" transform="translate(268.000000, 168.000000)">
                <path d="M16,1.65 C16.9905198,1.65 17.768677,2.37260941 17.8440164,3.33390654 L17.85,3.4876033 L17.849,3.881 L19.25,3.88140497 C19.7517379,3.88140497 20.1960158,4.15762833 20.4293346,4.57913655 L20.4876213,4.69759707 L20.516,4.773 L24.5,4.77396694 C25.4309476,4.77396694 26.1880105,5.49597791 26.3271135,6.40823728 L26.3444993,6.56195089 L26.35,6.71074381 L26.35,24.3636364 C26.35,25.402188 25.6159853,26.2642364 24.6470412,26.3439813 L24.5,26.35 L6.5,26.35 C5.51733304,26.35 4.72840814,25.5455372 4.6555007,24.5620161 L4.65,24.4132231 L4.65,6.76033058 C4.65,5.74384544 5.41063045,4.90680877 6.35672582,4.82939595 L6.49995922,4.82355373 L10.962,4.823 L10.9665272,4.80742208 C11.1169741,4.35031492 11.5072073,4.00376737 11.9829506,3.90795648 L12.1147029,3.88814816 L12.25,3.88140497 L13.65,3.881 L13.65,3.4876033 C13.65,2.55436806 14.3039515,1.81249758 15.1948355,1.67345584 L15.3454384,1.65593451 L15.5,1.65 L16,1.65 Z M14.7777778,11.7667559 L14.7030941,11.7688598 C14.6238789,11.7795726 14.5434593,11.7900813 14.4617373,11.8004013 L14.4617373,11.8004013 L13.9549916,11.860182 L12.9454919,11.9590991 L11.836846,12.0472097 L10.8758569,12.1136436 L10.8014364,12.126871 C10.6351993,12.175391 10.5248569,12.3424028 10.5548402,12.5208159 L10.5548402,12.5208159 L10.7064303,13.3229806 L10.7287949,13.3953583 C10.7880408,13.5323461 10.9304209,13.6197744 11.0845413,13.6044898 L11.0845413,13.6044898 L11.317643,13.584697 L12.149,13.536 L12.149,14.492 L10.8,14.4929752 L10.7294628,14.500086 C10.5699737,14.5327222 10.45,14.673838 10.45,14.8429752 L10.45,14.8429752 L10.45,15.5867769 L10.4571108,15.6573141 L10.4775047,15.7230126 C10.5306376,15.8486329 10.6550253,15.9367769 10.8,15.9367769 L10.8,15.9367769 L11.912,15.936 L11.7880951,16.2785852 L11.6405252,16.6577022 C11.2899695,17.5259799 10.8959901,18.2794999 10.4619101,18.9086813 C10.3992887,18.9994486 10.3831057,19.11442 10.4182383,19.2189468 C10.5152942,19.5077081 10.6675826,19.8701795 10.7874731,20.1079789 C10.906957,20.3449718 11.2364338,20.3679391 11.3876432,20.1498159 L11.3876432,20.1498159 L11.5917134,19.8442172 L11.7878405,19.5275689 L11.9765411,19.1990319 L12.149,18.874 L12.15,21.9338843 L12.1571108,22.0044215 C12.1897469,22.1639106 12.3308628,22.2838843 12.5,22.2838843 L12.5,22.2838843 L13.25,22.2838843 L13.3205372,22.2767735 L13.3862358,22.2563796 C13.5118561,22.2032467 13.6,22.0788591 13.6,21.9338843 L13.6,21.9338843 L13.599,17.958 L13.736798,18.116736 L13.8968088,18.3098156 C14.0037145,18.4413179 14.1112974,18.5786624 14.2208397,18.7235117 L14.2208397,18.7235117 L14.2706189,18.7768611 C14.3969381,18.8866871 14.5885929,18.893238 14.7229661,18.7821857 L14.7229661,18.7821857 L15.199,18.388 L15.199,20.443 L14.25,20.4433884 L14.1794628,20.4504992 C14.0199737,20.4831354 13.8999979,20.6242512 13.8999979,20.7933884 L13.8999979,20.7933884 L13.8999979,21.5371901 L13.9071108,21.6077273 C13.9397469,21.7672164 14.0808628,21.8871901 14.25,21.8871901 L14.25,21.8871901 L21.35,21.8871901 L21.4205372,21.8800793 C21.5800263,21.8474431 21.7,21.7063273 21.7,21.5371901 L21.7,21.5371901 L21.7,20.7933884 L21.6928892,20.7228512 L21.6724953,20.6571526 C21.6193624,20.5315324 21.4949747,20.4433884 21.35,20.4433884 L21.35,20.4433884 L20.799,20.443 L20.8,12.2644628 L20.7928892,12.1939256 C20.760253,12.0344365 20.6191372,11.9144628 20.45,11.9144628 L20.45,11.9144628 L15.55,11.9144628 L15.4794628,11.9215736 L15.4137642,11.9419675 C15.2881439,11.9951004 15.2,12.1194881 15.2,12.2644628 L15.2,12.2644628 L15.199,12.466 L15.0893828,12.0301497 L15.0635396,11.9600484 C14.9981363,11.8281077 14.8543687,11.7484019 14.7030941,11.7688598 Z M19.2,19.011 L19.2,20.443 L16.699,20.443 L16.699,19.011 L19.2,19.011 Z M19.2,16.234 L19.2,17.616 L16.699,17.616 L16.699,16.234 L19.2,16.234 Z M15.1999625,15.8244818 L15.199,17.607 L14.6451272,17.0048216 L14.2081012,16.5440267 L13.9988192,16.3323641 L13.9384425,16.2834979 L13.8708691,16.2499806 C13.8005402,16.2241559 13.7231878,16.221431 13.65,16.242 L13.65,16.242 L13.65,15.887 L15,15.8871901 L15.0722882,15.8797163 C15.1189398,15.86992 15.1621728,15.8508336 15.1999625,15.8244818 L15.1999625,15.8244818 Z M19.2,13.358 L19.2,14.74 L16.699,14.74 L16.699,13.358 L19.2,13.358 Z M15.2005362,13.1535459 L15.1999625,14.5060968 C15.1432779,14.466569 15.074346,14.4433884 15,14.4433884 L15,14.4433884 L13.699,14.443 L13.699,13.379 L14.1401552,13.3428748 L14.9852779,13.2573085 L15.0669551,13.239107 C15.1185113,13.2209217 15.1638641,13.1912235 15.2005362,13.1535459 L15.2005362,13.1535459 Z M20,8.59214876 L11,8.59214876 L10.8909986,8.59894911 C10.4639527,8.65275354 10.15,9.01861323 10.15,9.43801653 C10.15,9.91860948 10.5446273,10.2838843 11,10.2838843 L11,10.2838843 L20,10.2838843 L20.1038557,10.2775139 C20.5137496,10.2270058 20.85,9.88164079 20.85,9.43801653 C20.85,8.95742358 20.4553727,8.59214876 20,8.59214876 L20,8.59214876 Z" id="形状结合"></path>
            </g>
        </g>
    </g>
</svg>