<?xml version="1.0" encoding="UTF-8"?>
<svg width="30px" height="30px" viewBox="0 0 30 30" version="1.1" xmlns="http://www.w3.org/2000/svg" xmlns:xlink="http://www.w3.org/1999/xlink">
    <title>zlhy_def</title>
    <g id="页面-1" stroke="none" stroke-width="1" fill="none" fill-rule="evenodd">
        <g id="svg切图-最新" transform="translate(-306.000000, -168.000000)" fill="#979797" fill-rule="nonzero">
            <g id="zlhy_def" transform="translate(306.000000, 168.000000)">
                <path d="M16,1.65 C16.9905198,1.65 17.768677,2.37260941 17.8440164,3.33390654 L17.85,3.4876033 L17.849,3.881 L19.25,3.88140497 C19.8250828,3.88140497 20.3246787,4.24428865 20.5176519,4.77289188 L24.5,4.77396694 C25.482667,4.77396694 26.2715919,5.57842978 26.3444993,6.56195089 L26.35,6.71074381 L26.35,24.3636364 C26.35,25.402188 25.6159853,26.2642364 24.6470412,26.3439813 L24.5,26.35 L6.5,26.35 C5.51733304,26.35 4.72840814,25.5455372 4.6555007,24.5620161 L4.65,24.4132231 L4.65,6.76033058 C4.65,5.74384544 5.41063045,4.90680877 6.35672582,4.82939595 L6.49995922,4.82355373 L10.9616031,4.82265956 C11.1080286,4.35959896 11.5011831,4.00353871 11.9860504,3.90726384 L12.1204443,3.88756281 L12.25,3.88140497 L13.65,3.881 L13.65,3.4876033 C13.65,2.55436806 14.3039515,1.81249758 15.1948355,1.67345584 L15.3454384,1.65593451 L15.5,1.65 L16,1.65 Z M20.5658127,6.51510118 C20.4377392,7.06809776 19.9639683,7.49213771 19.385293,7.54989343 L19.25,7.55661156 L12.25,7.55661156 C11.6378868,7.55661156 11.1112949,7.14549006 10.9491871,6.56511279 L6.5,6.56487604 C6.44858047,6.56487604 6.37869349,6.63379438 6.35682615,6.74114152 L6.35,6.80991734 L6.35,24.4628099 C6.35,24.5807747 6.40635972,24.6722991 6.46498542,24.6995304 L6.5,24.7078512 L24.5,24.7078512 C24.5514195,24.7078512 24.6213065,24.6389329 24.6431738,24.5315857 L24.65,24.4628099 L24.65,6.76033058 C24.65,6.64236584 24.5936403,6.55084141 24.5350008,6.52361006 L24.4999762,6.51528925 L20.5658127,6.51510118 Z M15.0635396,11.9600484 L15.0893828,12.0301497 L15.199,12.466 L15.2,12.2644628 C15.2,12.1194881 15.2881439,11.9951004 15.4137642,11.9419675 L15.4794628,11.9215736 L15.55,11.9144628 L20.45,11.9144628 C20.6191372,11.9144628 20.760253,12.0344365 20.7928892,12.1939256 L20.8,12.2644628 L20.799,20.443 L21.35,20.4433884 C21.4949747,20.4433884 21.6193624,20.5315324 21.6724953,20.6571526 L21.6928892,20.7228512 L21.7,20.7933884 L21.7,21.5371901 C21.7,21.7063273 21.5800263,21.8474431 21.4205372,21.8800793 L21.35,21.8871901 L14.25,21.8871901 C14.0808628,21.8871901 13.9397469,21.7672164 13.9071108,21.6077273 L13.8999979,21.5371901 L13.8999979,20.7933884 C13.8999979,20.6242512 14.0199737,20.4831354 14.1794628,20.4504992 L14.25,20.4433884 L15.199,20.443 L15.199,18.388 L14.7229661,18.7821857 C14.5885929,18.893238 14.3969381,18.8866871 14.2706189,18.7768611 L14.2208397,18.7235117 C14.1112974,18.5786624 14.0037145,18.4413179 13.8968088,18.3098156 L13.736798,18.116736 L13.599,17.958 L13.6,21.9338843 C13.6,22.0788591 13.5118561,22.2032467 13.3862358,22.2563796 L13.3205372,22.2767735 L13.25,22.2838843 L12.5,22.2838843 C12.3308628,22.2838843 12.1897469,22.1639106 12.1571108,22.0044215 L12.15,21.9338843 L12.149,18.874 L11.9765411,19.1990319 L11.7878405,19.5275689 L11.5917134,19.8442172 L11.3876432,20.1498159 C11.2364338,20.3679391 10.906957,20.3449718 10.7874731,20.1079789 C10.6675826,19.8701795 10.5152942,19.5077081 10.4182383,19.2189468 C10.3831057,19.11442 10.3992887,18.9994486 10.4619101,18.9086813 C10.8959901,18.2794999 11.2899695,17.5259799 11.6405252,16.6577022 L11.7880951,16.2785852 L11.912,15.936 L10.8,15.9367769 C10.6550253,15.9367769 10.5306376,15.8486329 10.4775047,15.7230126 L10.4571108,15.6573141 L10.45,15.5867769 L10.45,14.8429752 C10.45,14.673838 10.5699737,14.5327222 10.7294628,14.500086 L10.8,14.4929752 L12.149,14.492 L12.149,13.537 L11.3291388,13.5835339 L11.072,13.604 L11.0091665,13.6038616 C10.8616391,13.5866269 10.7373649,13.4764187 10.7069072,13.3253887 L10.6312822,12.9441148 C10.6032938,12.7983904 10.5785294,12.6617768 10.5548402,12.5208159 C10.5205038,12.3165001 10.6701803,12.1272405 10.8769099,12.1135724 L12.2205708,12.0184359 L13.0705111,11.948156 L13.5781013,11.9000791 L14.2724102,11.8238159 L14.7030941,11.7688598 C14.8543687,11.7484019 14.9981363,11.8281077 15.0635396,11.9600484 Z M19.2,19.011 L16.699,19.011 L16.699,20.443 L19.2,20.443 L19.2,19.011 Z M19.2,16.234 L16.699,16.234 L16.699,17.616 L19.2,17.616 L19.2,16.234 Z M15.1999625,15.8244818 C15.1621728,15.8508336 15.1189398,15.86992 15.0722882,15.8797163 L15,15.8871901 L13.65,15.887 L13.65,16.242 L13.7234778,16.229509 C13.772472,16.2258106 13.822033,16.2324037 13.8686875,16.2491862 L13.9360552,16.2819894 L13.9964583,16.3300002 L14.375693,16.7167082 L15.1982281,17.605762 L15.1999625,15.8244818 Z M19.2,13.358 L16.699,13.358 L16.699,14.74 L19.2,14.74 L19.2,13.358 Z M15.2004258,13.1536608 C15.1461118,13.2094126 15.072756,13.2476826 14.9883355,13.2569851 C14.723952,13.2861183 14.4682895,13.3123468 14.20509,13.3369093 L13.699,13.38 L13.699,14.443 L15,14.4433884 C15.074346,14.4433884 15.1432779,14.466569 15.1999625,14.5060968 L15.2004258,13.1536608 Z M20,8.59214876 C20.4553727,8.59214876 20.85,8.95742358 20.85,9.43801653 C20.85,9.88164079 20.5137496,10.2270058 20.1038557,10.2775139 L20,10.2838843 L11,10.2838843 C10.5446273,10.2838843 10.15,9.91860948 10.15,9.43801653 C10.15,9.01861323 10.4639527,8.65275354 10.8909986,8.59894911 L11,8.59214876 L20,8.59214876 Z M16,3.34173555 L15.5,3.34173555 C15.414122,3.34173555 15.3696488,3.36880752 15.3552946,3.43266302 L15.35,3.4876033 L15.35,5.22314049 C15.35,5.3922777 15.2300263,5.53339354 15.0705372,5.56602974 L15,5.57314049 L12.6,5.573 L12.6,5.864 L18.9,5.864 L18.9,5.573 L16.5,5.57314049 C16.3308628,5.57314049 16.189747,5.4531668 16.1571108,5.2936777 L16.15,5.22314049 L16.15,3.4876033 C16.15,3.38403549 16.1073476,3.34173555 16,3.34173555 Z" id="形状"></path>
            </g>
        </g>
    </g>
</svg>