<?xml version="1.0" encoding="UTF-8"?>
<svg width="30px" height="30px" viewBox="0 0 30 30" version="1.1" xmlns="http://www.w3.org/2000/svg" xmlns:xlink="http://www.w3.org/1999/xlink">
    <title>zlhy_pre</title>
    <g id="页面-1" stroke="none" stroke-width="1" fill="none" fill-rule="evenodd" stroke-linejoin="round">
        <g id="svg切图" transform="translate(-268.000000, -168.000000)" fill-rule="nonzero" stroke-width="0.7">
            <g id="zlhy_pre" transform="translate(268.000000, 168.000000)">
                <path d="M6,6 L25,6 L25,25 L6,25 L6,6 Z M19.25,7.20661156 L12.25,7.20661156 C11.7,7.20661156 11.25,6.76033058 11.25,6.21487604 L11.25,5.22314049 C11.25,4.67768595 11.7,4.23140495 12.25,4.23140497 L14,4.23140497 L14,3.4876033 C14,2.64462809 14.65,2 15.5,2 L16,2 C16.85,2 17.5,2.64462809 17.5,3.4876033 L17.5,4.23140497 L19.25,4.23140497 C19.8,4.23140497 20.25,4.67768595 20.25,5.22314049 L20.25,6.21487604 C20.25,6.76033058 19.8,7.20661156 19.25,7.20661156 Z M24.5,26 L6.5,26 C5.65000002,26 5,25.2561984 5,24.4132231 L5,6.76033058 C5,5.86776859 5.70000001,5.17355373 6.5,5.17355373 L11.45,5.17355373 L11.45,6.21487604 L6.5,6.21487604 C6.25000002,6.21487604 6,6.46280991 6,6.80991734 L6,24.4628099 C6,24.7603306 6.20000001,25.0578512 6.5,25.0578512 L24.5,25.0578512 C24.75,25.0578512 25,24.8099174 25,24.4628099 L25,6.76033058 C25,6.46280991 24.8,6.16528925 24.5,6.16528925 L20.1,6.16528925 L20.1,5.12396694 L24.5,5.12396694 C25.35,5.12396694 26,5.86776859 26,6.71074381 L26,24.3636364 C26,25.2561984 25.35,26 24.5,26 Z" id="形状" stroke="#979797" fill="#979797"></path>
                <path d="M12.25,5.22314049 L12.25,6.21487604 L19.25,6.21487604 L19.25,5.22314049 L16.5,5.22314049 L16.5,3.4876033 C16.5,3.19008263 16.3,2.99173555 16,2.99173555 L15.5,2.99173555 C15.2,2.99173555 15,3.19008266 15,3.4876033 L15,5.22314049 L12.25,5.22314049 Z" id="路径" stroke="#979797" fill="#979797"></path>
                <path d="M14.75,12.1157025 L14.95,12.9090909 L14.110933,12.9940968 L13.35,13.0578512 L13.35,14.7933884 L15,14.7933884 L15,15.5371901 L13.3,15.5371901 L13.3,16.9752066 L13.75,16.5785124 L13.9541667,16.7848944 L14.3875,17.2417355 L15.1,18.0165289 L14.5,18.5123967 C14.05,17.9173554 13.65,17.4710744 13.25,17.0743802 L13.25,21.9338843 L12.5,21.9338843 L12.5,17.2231405 C12.1,18.2644628 11.65,19.1570248 11.1,19.9504132 C11,19.7520661 10.85,19.4049587 10.75,19.107438 C11.4,18.1652893 11.95,16.9752066 12.4,15.5867769 L10.8,15.5867769 L10.8,14.8429752 L12.5,14.8429752 L12.5,13.1570248 L12.1539063,13.1864669 L11.4242187,13.2267562 C11.3,13.2345041 11.175,13.2438017 11.05,13.2561984 L10.9375,12.6774277 C10.925,12.6084711 10.9125,12.5371901 10.9,12.4628099 L11.8640604,12.39615 L12.760631,12.3262252 C12.9048011,12.3141176 13.0464335,12.3017379 13.1856653,12.2890181 L13.993347,12.208074 C14.2537037,12.1793695 14.5055555,12.1487603 14.75,12.1157025 Z M20.45,12.2644628 L20.45,20.7933884 L21.35,20.7933884 L21.35,21.5371901 L14.25,21.5371901 L14.25,20.7933884 L15.55,20.7933884 L15.55,12.2644628 L20.45,12.2644628 Z M19.55,18.661157 L16.35,18.661157 L16.35,20.7933884 L19.55,20.7933884 L19.55,18.661157 Z M19.55,15.8842975 L16.35,15.8842975 L16.35,17.9669421 L19.55,17.9669421 L19.55,15.8842975 Z M19.55,13.0082645 L16.35,13.0082645 L16.35,15.0909091 L19.55,15.0909091 L19.55,13.0082645 Z M20,8.94214876 C20.25,8.94214876 20.5,9.14049587 20.5,9.43801653 C20.5,9.7355372 20.25,9.9338843 20,9.9338843 L11,9.9338843 C10.75,9.9338843 10.5,9.7355372 10.5,9.43801653 C10.5,9.19008266 10.7,8.94214876 11,8.94214876 L20,8.94214876 Z" id="形状结合" stroke="#FFFFFF" fill="#FFFFFF"></path>
            </g>
        </g>
    </g>
</svg>